%TF.GenerationSoftware,KiCad,Pcbnew,8.0.2*%
%TF.CreationDate,2025-07-19T08:03:10+07:00*%
%TF.ProjectId,PicoLink,5069636f-4c69-46e6-9b2e-6b696361645f,rev?*%
%TF.SameCoordinates,Original*%
%TF.FileFunction,AssemblyDrawing,Bot*%
%FSLAX46Y46*%
G04 Gerber Fmt 4.6, Leading zero omitted, Abs format (unit mm)*
G04 Created by KiCad (PCBNEW 8.0.2) date 2025-07-19 08:03:10*
%MOMM*%
%LPD*%
G01*
G04 APERTURE LIST*
%ADD10C,0.150000*%
%ADD11C,0.100000*%
G04 APERTURE END LIST*
D10*
X166427197Y-102704762D02*
X166474816Y-102847619D01*
X166474816Y-102847619D02*
X166474816Y-103085714D01*
X166474816Y-103085714D02*
X166427197Y-103180952D01*
X166427197Y-103180952D02*
X166379577Y-103228571D01*
X166379577Y-103228571D02*
X166284339Y-103276190D01*
X166284339Y-103276190D02*
X166189101Y-103276190D01*
X166189101Y-103276190D02*
X166093863Y-103228571D01*
X166093863Y-103228571D02*
X166046244Y-103180952D01*
X166046244Y-103180952D02*
X165998625Y-103085714D01*
X165998625Y-103085714D02*
X165951006Y-102895238D01*
X165951006Y-102895238D02*
X165903387Y-102800000D01*
X165903387Y-102800000D02*
X165855768Y-102752381D01*
X165855768Y-102752381D02*
X165760530Y-102704762D01*
X165760530Y-102704762D02*
X165665292Y-102704762D01*
X165665292Y-102704762D02*
X165570054Y-102752381D01*
X165570054Y-102752381D02*
X165522435Y-102800000D01*
X165522435Y-102800000D02*
X165474816Y-102895238D01*
X165474816Y-102895238D02*
X165474816Y-103133333D01*
X165474816Y-103133333D02*
X165522435Y-103276190D01*
X166474816Y-103704762D02*
X165474816Y-103704762D01*
X165522435Y-104704761D02*
X165474816Y-104609523D01*
X165474816Y-104609523D02*
X165474816Y-104466666D01*
X165474816Y-104466666D02*
X165522435Y-104323809D01*
X165522435Y-104323809D02*
X165617673Y-104228571D01*
X165617673Y-104228571D02*
X165712911Y-104180952D01*
X165712911Y-104180952D02*
X165903387Y-104133333D01*
X165903387Y-104133333D02*
X166046244Y-104133333D01*
X166046244Y-104133333D02*
X166236720Y-104180952D01*
X166236720Y-104180952D02*
X166331958Y-104228571D01*
X166331958Y-104228571D02*
X166427197Y-104323809D01*
X166427197Y-104323809D02*
X166474816Y-104466666D01*
X166474816Y-104466666D02*
X166474816Y-104561904D01*
X166474816Y-104561904D02*
X166427197Y-104704761D01*
X166427197Y-104704761D02*
X166379577Y-104752380D01*
X166379577Y-104752380D02*
X166046244Y-104752380D01*
X166046244Y-104752380D02*
X166046244Y-104561904D01*
X166474816Y-105752380D02*
X165998625Y-105419047D01*
X166474816Y-105180952D02*
X165474816Y-105180952D01*
X165474816Y-105180952D02*
X165474816Y-105561904D01*
X165474816Y-105561904D02*
X165522435Y-105657142D01*
X165522435Y-105657142D02*
X165570054Y-105704761D01*
X165570054Y-105704761D02*
X165665292Y-105752380D01*
X165665292Y-105752380D02*
X165808149Y-105752380D01*
X165808149Y-105752380D02*
X165903387Y-105704761D01*
X165903387Y-105704761D02*
X165951006Y-105657142D01*
X165951006Y-105657142D02*
X165998625Y-105561904D01*
X165998625Y-105561904D02*
X165998625Y-105180952D01*
X165474816Y-106371428D02*
X165474816Y-106561904D01*
X165474816Y-106561904D02*
X165522435Y-106657142D01*
X165522435Y-106657142D02*
X165617673Y-106752380D01*
X165617673Y-106752380D02*
X165808149Y-106799999D01*
X165808149Y-106799999D02*
X166141482Y-106799999D01*
X166141482Y-106799999D02*
X166331958Y-106752380D01*
X166331958Y-106752380D02*
X166427197Y-106657142D01*
X166427197Y-106657142D02*
X166474816Y-106561904D01*
X166474816Y-106561904D02*
X166474816Y-106371428D01*
X166474816Y-106371428D02*
X166427197Y-106276190D01*
X166427197Y-106276190D02*
X166331958Y-106180952D01*
X166331958Y-106180952D02*
X166141482Y-106133333D01*
X166141482Y-106133333D02*
X165808149Y-106133333D01*
X165808149Y-106133333D02*
X165617673Y-106180952D01*
X165617673Y-106180952D02*
X165522435Y-106276190D01*
X165522435Y-106276190D02*
X165474816Y-106371428D01*
X166474816Y-107228571D02*
X165474816Y-107228571D01*
X166474816Y-107799999D02*
X165903387Y-107371428D01*
X165474816Y-107799999D02*
X166046244Y-107228571D01*
X166570054Y-107990476D02*
X166570054Y-108752380D01*
X166474816Y-108990476D02*
X165474816Y-108990476D01*
X166474816Y-109466666D02*
X165474816Y-109466666D01*
X165474816Y-109466666D02*
X166474816Y-110038094D01*
X166474816Y-110038094D02*
X165474816Y-110038094D01*
X166474816Y-110514285D02*
X165474816Y-110514285D01*
X165474816Y-110514285D02*
X165474816Y-110895237D01*
X165474816Y-110895237D02*
X165522435Y-110990475D01*
X165522435Y-110990475D02*
X165570054Y-111038094D01*
X165570054Y-111038094D02*
X165665292Y-111085713D01*
X165665292Y-111085713D02*
X165808149Y-111085713D01*
X165808149Y-111085713D02*
X165903387Y-111038094D01*
X165903387Y-111038094D02*
X165951006Y-110990475D01*
X165951006Y-110990475D02*
X165998625Y-110895237D01*
X165998625Y-110895237D02*
X165998625Y-110514285D01*
X165474816Y-111514285D02*
X166284339Y-111514285D01*
X166284339Y-111514285D02*
X166379577Y-111561904D01*
X166379577Y-111561904D02*
X166427197Y-111609523D01*
X166427197Y-111609523D02*
X166474816Y-111704761D01*
X166474816Y-111704761D02*
X166474816Y-111895237D01*
X166474816Y-111895237D02*
X166427197Y-111990475D01*
X166427197Y-111990475D02*
X166379577Y-112038094D01*
X166379577Y-112038094D02*
X166284339Y-112085713D01*
X166284339Y-112085713D02*
X165474816Y-112085713D01*
X165474816Y-112419047D02*
X165474816Y-112990475D01*
X166474816Y-112704761D02*
X165474816Y-112704761D01*
X156403333Y-107254819D02*
X156403333Y-107969104D01*
X156403333Y-107969104D02*
X156450952Y-108111961D01*
X156450952Y-108111961D02*
X156546190Y-108207200D01*
X156546190Y-108207200D02*
X156689047Y-108254819D01*
X156689047Y-108254819D02*
X156784285Y-108254819D01*
X155450952Y-107254819D02*
X155927142Y-107254819D01*
X155927142Y-107254819D02*
X155974761Y-107731009D01*
X155974761Y-107731009D02*
X155927142Y-107683390D01*
X155927142Y-107683390D02*
X155831904Y-107635771D01*
X155831904Y-107635771D02*
X155593809Y-107635771D01*
X155593809Y-107635771D02*
X155498571Y-107683390D01*
X155498571Y-107683390D02*
X155450952Y-107731009D01*
X155450952Y-107731009D02*
X155403333Y-107826247D01*
X155403333Y-107826247D02*
X155403333Y-108064342D01*
X155403333Y-108064342D02*
X155450952Y-108159580D01*
X155450952Y-108159580D02*
X155498571Y-108207200D01*
X155498571Y-108207200D02*
X155593809Y-108254819D01*
X155593809Y-108254819D02*
X155831904Y-108254819D01*
X155831904Y-108254819D02*
X155927142Y-108207200D01*
X155927142Y-108207200D02*
X155974761Y-108159580D01*
X167457141Y-90037203D02*
X167314284Y-90084822D01*
X167314284Y-90084822D02*
X167076189Y-90084822D01*
X167076189Y-90084822D02*
X166980951Y-90037203D01*
X166980951Y-90037203D02*
X166933332Y-89989583D01*
X166933332Y-89989583D02*
X166885713Y-89894345D01*
X166885713Y-89894345D02*
X166885713Y-89799107D01*
X166885713Y-89799107D02*
X166933332Y-89703869D01*
X166933332Y-89703869D02*
X166980951Y-89656250D01*
X166980951Y-89656250D02*
X167076189Y-89608631D01*
X167076189Y-89608631D02*
X167266665Y-89561012D01*
X167266665Y-89561012D02*
X167361903Y-89513393D01*
X167361903Y-89513393D02*
X167409522Y-89465774D01*
X167409522Y-89465774D02*
X167457141Y-89370536D01*
X167457141Y-89370536D02*
X167457141Y-89275298D01*
X167457141Y-89275298D02*
X167409522Y-89180060D01*
X167409522Y-89180060D02*
X167361903Y-89132441D01*
X167361903Y-89132441D02*
X167266665Y-89084822D01*
X167266665Y-89084822D02*
X167028570Y-89084822D01*
X167028570Y-89084822D02*
X166885713Y-89132441D01*
X166457141Y-90084822D02*
X166457141Y-89084822D01*
X165457142Y-89132441D02*
X165552380Y-89084822D01*
X165552380Y-89084822D02*
X165695237Y-89084822D01*
X165695237Y-89084822D02*
X165838094Y-89132441D01*
X165838094Y-89132441D02*
X165933332Y-89227679D01*
X165933332Y-89227679D02*
X165980951Y-89322917D01*
X165980951Y-89322917D02*
X166028570Y-89513393D01*
X166028570Y-89513393D02*
X166028570Y-89656250D01*
X166028570Y-89656250D02*
X165980951Y-89846726D01*
X165980951Y-89846726D02*
X165933332Y-89941964D01*
X165933332Y-89941964D02*
X165838094Y-90037203D01*
X165838094Y-90037203D02*
X165695237Y-90084822D01*
X165695237Y-90084822D02*
X165599999Y-90084822D01*
X165599999Y-90084822D02*
X165457142Y-90037203D01*
X165457142Y-90037203D02*
X165409523Y-89989583D01*
X165409523Y-89989583D02*
X165409523Y-89656250D01*
X165409523Y-89656250D02*
X165599999Y-89656250D01*
X164409523Y-90084822D02*
X164742856Y-89608631D01*
X164980951Y-90084822D02*
X164980951Y-89084822D01*
X164980951Y-89084822D02*
X164599999Y-89084822D01*
X164599999Y-89084822D02*
X164504761Y-89132441D01*
X164504761Y-89132441D02*
X164457142Y-89180060D01*
X164457142Y-89180060D02*
X164409523Y-89275298D01*
X164409523Y-89275298D02*
X164409523Y-89418155D01*
X164409523Y-89418155D02*
X164457142Y-89513393D01*
X164457142Y-89513393D02*
X164504761Y-89561012D01*
X164504761Y-89561012D02*
X164599999Y-89608631D01*
X164599999Y-89608631D02*
X164980951Y-89608631D01*
X163790475Y-89084822D02*
X163599999Y-89084822D01*
X163599999Y-89084822D02*
X163504761Y-89132441D01*
X163504761Y-89132441D02*
X163409523Y-89227679D01*
X163409523Y-89227679D02*
X163361904Y-89418155D01*
X163361904Y-89418155D02*
X163361904Y-89751488D01*
X163361904Y-89751488D02*
X163409523Y-89941964D01*
X163409523Y-89941964D02*
X163504761Y-90037203D01*
X163504761Y-90037203D02*
X163599999Y-90084822D01*
X163599999Y-90084822D02*
X163790475Y-90084822D01*
X163790475Y-90084822D02*
X163885713Y-90037203D01*
X163885713Y-90037203D02*
X163980951Y-89941964D01*
X163980951Y-89941964D02*
X164028570Y-89751488D01*
X164028570Y-89751488D02*
X164028570Y-89418155D01*
X164028570Y-89418155D02*
X163980951Y-89227679D01*
X163980951Y-89227679D02*
X163885713Y-89132441D01*
X163885713Y-89132441D02*
X163790475Y-89084822D01*
X162933332Y-90084822D02*
X162933332Y-89084822D01*
X162361904Y-90084822D02*
X162790475Y-89513393D01*
X162361904Y-89084822D02*
X162933332Y-89656250D01*
X162171428Y-90180060D02*
X161409523Y-90180060D01*
X161219046Y-89799107D02*
X160742856Y-89799107D01*
X161314284Y-90084822D02*
X160980951Y-89084822D01*
X160980951Y-89084822D02*
X160647618Y-90084822D01*
X160314284Y-90084822D02*
X160314284Y-89084822D01*
X160314284Y-89084822D02*
X160076189Y-89084822D01*
X160076189Y-89084822D02*
X159933332Y-89132441D01*
X159933332Y-89132441D02*
X159838094Y-89227679D01*
X159838094Y-89227679D02*
X159790475Y-89322917D01*
X159790475Y-89322917D02*
X159742856Y-89513393D01*
X159742856Y-89513393D02*
X159742856Y-89656250D01*
X159742856Y-89656250D02*
X159790475Y-89846726D01*
X159790475Y-89846726D02*
X159838094Y-89941964D01*
X159838094Y-89941964D02*
X159933332Y-90037203D01*
X159933332Y-90037203D02*
X160076189Y-90084822D01*
X160076189Y-90084822D02*
X160314284Y-90084822D01*
X158742856Y-89989583D02*
X158790475Y-90037203D01*
X158790475Y-90037203D02*
X158933332Y-90084822D01*
X158933332Y-90084822D02*
X159028570Y-90084822D01*
X159028570Y-90084822D02*
X159171427Y-90037203D01*
X159171427Y-90037203D02*
X159266665Y-89941964D01*
X159266665Y-89941964D02*
X159314284Y-89846726D01*
X159314284Y-89846726D02*
X159361903Y-89656250D01*
X159361903Y-89656250D02*
X159361903Y-89513393D01*
X159361903Y-89513393D02*
X159314284Y-89322917D01*
X159314284Y-89322917D02*
X159266665Y-89227679D01*
X159266665Y-89227679D02*
X159171427Y-89132441D01*
X159171427Y-89132441D02*
X159028570Y-89084822D01*
X159028570Y-89084822D02*
X158933332Y-89084822D01*
X158933332Y-89084822D02*
X158790475Y-89132441D01*
X158790475Y-89132441D02*
X158742856Y-89180060D01*
X162554817Y-94166666D02*
X163269102Y-94166666D01*
X163269102Y-94166666D02*
X163411959Y-94119047D01*
X163411959Y-94119047D02*
X163507198Y-94023809D01*
X163507198Y-94023809D02*
X163554817Y-93880952D01*
X163554817Y-93880952D02*
X163554817Y-93785714D01*
X163554817Y-95166666D02*
X163554817Y-94595238D01*
X163554817Y-94880952D02*
X162554817Y-94880952D01*
X162554817Y-94880952D02*
X162697674Y-94785714D01*
X162697674Y-94785714D02*
X162792912Y-94690476D01*
X162792912Y-94690476D02*
X162840531Y-94595238D01*
X139304819Y-91981666D02*
X140019104Y-91981666D01*
X140019104Y-91981666D02*
X140161961Y-91934047D01*
X140161961Y-91934047D02*
X140257200Y-91838809D01*
X140257200Y-91838809D02*
X140304819Y-91695952D01*
X140304819Y-91695952D02*
X140304819Y-91600714D01*
X139638152Y-92886428D02*
X140304819Y-92886428D01*
X139257200Y-92648333D02*
X139971485Y-92410238D01*
X139971485Y-92410238D02*
X139971485Y-93029285D01*
X130084819Y-93666666D02*
X130799104Y-93666666D01*
X130799104Y-93666666D02*
X130941961Y-93619047D01*
X130941961Y-93619047D02*
X131037200Y-93523809D01*
X131037200Y-93523809D02*
X131084819Y-93380952D01*
X131084819Y-93380952D02*
X131084819Y-93285714D01*
X130084819Y-94047619D02*
X130084819Y-94666666D01*
X130084819Y-94666666D02*
X130465771Y-94333333D01*
X130465771Y-94333333D02*
X130465771Y-94476190D01*
X130465771Y-94476190D02*
X130513390Y-94571428D01*
X130513390Y-94571428D02*
X130561009Y-94619047D01*
X130561009Y-94619047D02*
X130656247Y-94666666D01*
X130656247Y-94666666D02*
X130894342Y-94666666D01*
X130894342Y-94666666D02*
X130989580Y-94619047D01*
X130989580Y-94619047D02*
X131037200Y-94571428D01*
X131037200Y-94571428D02*
X131084819Y-94476190D01*
X131084819Y-94476190D02*
X131084819Y-94190476D01*
X131084819Y-94190476D02*
X131037200Y-94095238D01*
X131037200Y-94095238D02*
X130989580Y-94047619D01*
X143254819Y-91966666D02*
X143969104Y-91966666D01*
X143969104Y-91966666D02*
X144111961Y-91919047D01*
X144111961Y-91919047D02*
X144207200Y-91823809D01*
X144207200Y-91823809D02*
X144254819Y-91680952D01*
X144254819Y-91680952D02*
X144254819Y-91585714D01*
X143254819Y-92347619D02*
X143254819Y-93014285D01*
X143254819Y-93014285D02*
X144254819Y-92585714D01*
D11*
%TO.C,J5*%
X147180000Y-107165001D02*
X147815001Y-106530000D01*
X147815001Y-106530000D02*
X164959999Y-106529998D01*
X147180000Y-109069999D02*
X147180000Y-107165001D01*
X164960000Y-109070002D02*
X147180000Y-109069999D01*
X164959999Y-106529998D02*
X164960000Y-109070002D01*
%TO.C,J1*%
X161830001Y-90690002D02*
X164370000Y-90690003D01*
X164370000Y-90690003D02*
X164369997Y-98310001D01*
X164369997Y-98310001D02*
X162465000Y-98310003D01*
X161830001Y-97675002D02*
X161830001Y-90690002D01*
X162465000Y-98310003D02*
X161830001Y-97675002D01*
%TO.C,J4*%
X138580000Y-88505000D02*
X140485000Y-88505000D01*
X138580000Y-96125000D02*
X138580000Y-88505000D01*
X140485000Y-88505000D02*
X141120000Y-89140000D01*
X141120000Y-89140000D02*
X141120000Y-96125000D01*
X141120000Y-96125000D02*
X138580000Y-96125000D01*
%TO.C,J3*%
X126180000Y-83820000D02*
X134080000Y-83820000D01*
X126180000Y-104180000D02*
X126180000Y-83820000D01*
X127380000Y-85010000D02*
X133880000Y-85010000D01*
X127380000Y-102990000D02*
X127380000Y-85010000D01*
X133880000Y-85010000D02*
X133880000Y-91950000D01*
X133880000Y-91950000D02*
X135080000Y-91950000D01*
X133880000Y-96050000D02*
X133880000Y-96050000D01*
X133880000Y-96050000D02*
X133880000Y-102990000D01*
X133880000Y-102990000D02*
X127380000Y-102990000D01*
X134080000Y-83820000D02*
X135080000Y-84820000D01*
X135080000Y-84820000D02*
X135080000Y-104180000D01*
X135080000Y-96050000D02*
X133880000Y-96050000D01*
X135080000Y-104180000D02*
X126180000Y-104180000D01*
%TO.C,J7*%
X142530000Y-88490000D02*
X144435000Y-88490000D01*
X142530000Y-96110000D02*
X142530000Y-88490000D01*
X144435000Y-88490000D02*
X145070000Y-89125000D01*
X145070000Y-89125000D02*
X145070000Y-96110000D01*
X145070000Y-96110000D02*
X142530000Y-96110000D01*
%TD*%
M02*
