%TF.GenerationSoftware,KiCad,Pcbnew,8.0.2*%
%TF.CreationDate,2025-07-19T08:03:09+07:00*%
%TF.ProjectId,PicoLink,5069636f-4c69-46e6-9b2e-6b696361645f,rev?*%
%TF.SameCoordinates,Original*%
%TF.FileFunction,Legend,Bot*%
%TF.FilePolarity,Positive*%
%FSLAX46Y46*%
G04 Gerber Fmt 4.6, Leading zero omitted, Abs format (unit mm)*
G04 Created by KiCad (PCBNEW 8.0.2) date 2025-07-19 08:03:09*
%MOMM*%
%LPD*%
G01*
G04 APERTURE LIST*
%ADD10C,0.150000*%
%ADD11C,0.120000*%
G04 APERTURE END LIST*
D10*
X145574819Y-107466666D02*
X146289104Y-107466666D01*
X146289104Y-107466666D02*
X146431961Y-107419047D01*
X146431961Y-107419047D02*
X146527200Y-107323809D01*
X146527200Y-107323809D02*
X146574819Y-107180952D01*
X146574819Y-107180952D02*
X146574819Y-107085714D01*
X145574819Y-108419047D02*
X145574819Y-107942857D01*
X145574819Y-107942857D02*
X146051009Y-107895238D01*
X146051009Y-107895238D02*
X146003390Y-107942857D01*
X146003390Y-107942857D02*
X145955771Y-108038095D01*
X145955771Y-108038095D02*
X145955771Y-108276190D01*
X145955771Y-108276190D02*
X146003390Y-108371428D01*
X146003390Y-108371428D02*
X146051009Y-108419047D01*
X146051009Y-108419047D02*
X146146247Y-108466666D01*
X146146247Y-108466666D02*
X146384342Y-108466666D01*
X146384342Y-108466666D02*
X146479580Y-108419047D01*
X146479580Y-108419047D02*
X146527200Y-108371428D01*
X146527200Y-108371428D02*
X146574819Y-108276190D01*
X146574819Y-108276190D02*
X146574819Y-108038095D01*
X146574819Y-108038095D02*
X146527200Y-107942857D01*
X146527200Y-107942857D02*
X146479580Y-107895238D01*
X163433332Y-98824822D02*
X163433332Y-99539107D01*
X163433332Y-99539107D02*
X163480951Y-99681964D01*
X163480951Y-99681964D02*
X163576189Y-99777203D01*
X163576189Y-99777203D02*
X163719046Y-99824822D01*
X163719046Y-99824822D02*
X163814284Y-99824822D01*
X162433332Y-99824822D02*
X163004760Y-99824822D01*
X162719046Y-99824822D02*
X162719046Y-98824822D01*
X162719046Y-98824822D02*
X162814284Y-98967679D01*
X162814284Y-98967679D02*
X162909522Y-99062917D01*
X162909522Y-99062917D02*
X163004760Y-99110536D01*
D11*
%TO.C,J5*%
X147119998Y-107799999D02*
X147120000Y-106470000D01*
X147120000Y-106470000D02*
X148450001Y-106469998D01*
X165020000Y-106470000D02*
X149720000Y-106470002D01*
X149719999Y-109130000D02*
X149720000Y-106470002D01*
X165020000Y-109130000D02*
X165020000Y-106470000D01*
X165020000Y-109130000D02*
X149719999Y-109130000D01*
%TO.C,J1*%
X164429999Y-90630003D02*
X164429999Y-95770003D01*
X164429999Y-90630003D02*
X161769999Y-90630003D01*
X164429999Y-95770003D02*
X161770000Y-95770005D01*
X161769999Y-90630003D02*
X161770000Y-95770005D01*
X161769999Y-98370003D02*
X161769997Y-97040002D01*
X163099998Y-98370005D02*
X161769999Y-98370003D01*
%TO.C,J4*%
X138520000Y-91045000D02*
X141180000Y-91045000D01*
X138520000Y-96185000D02*
X138520000Y-91045000D01*
X138520000Y-96185000D02*
X141180000Y-96185000D01*
X139850000Y-88445000D02*
X141180000Y-88445000D01*
X141180000Y-88445000D02*
X141180000Y-89775000D01*
X141180000Y-96185000D02*
X141180000Y-91045000D01*
%TO.C,J3*%
X126070000Y-83710000D02*
X135190000Y-83710000D01*
X126070000Y-104290000D02*
X126070000Y-83710000D01*
X127380000Y-85010000D02*
X133880000Y-85010000D01*
X127380000Y-102990000D02*
X127380000Y-85010000D01*
X133880000Y-85010000D02*
X133880000Y-91950000D01*
X133880000Y-91950000D02*
X135190000Y-91950000D01*
X133880000Y-96050000D02*
X133880000Y-96050000D01*
X133880000Y-96050000D02*
X133880000Y-102990000D01*
X133880000Y-102990000D02*
X127380000Y-102990000D01*
X135190000Y-83710000D02*
X135190000Y-104290000D01*
X135190000Y-96050000D02*
X133880000Y-96050000D01*
X135190000Y-104290000D02*
X126070000Y-104290000D01*
X135580000Y-88920000D02*
X136580000Y-89420000D01*
X136580000Y-88420000D02*
X135580000Y-88920000D01*
X136580000Y-89420000D02*
X136580000Y-88420000D01*
%TO.C,J7*%
X142470000Y-91030000D02*
X145130000Y-91030000D01*
X142470000Y-96170000D02*
X142470000Y-91030000D01*
X142470000Y-96170000D02*
X145130000Y-96170000D01*
X143800000Y-88430000D02*
X145130000Y-88430000D01*
X145130000Y-88430000D02*
X145130000Y-89760000D01*
X145130000Y-96170000D02*
X145130000Y-91030000D01*
%TD*%
M02*
