%TF.GenerationSoftware,KiCad,Pcbnew,8.0.2*%
%TF.CreationDate,2025-07-19T08:03:09+07:00*%
%TF.ProjectId,PicoLink,5069636f-4c69-46e6-9b2e-6b696361645f,rev?*%
%TF.SameCoordinates,Original*%
%TF.FileFunction,Paste,Top*%
%TF.FilePolarity,Positive*%
%FSLAX46Y46*%
G04 Gerber Fmt 4.6, Leading zero omitted, Abs format (unit mm)*
G04 Created by KiCad (PCBNEW 8.0.2) date 2025-07-19 08:03:09*
%MOMM*%
%LPD*%
G01*
G04 APERTURE LIST*
G04 Aperture macros list*
%AMRoundRect*
0 Rectangle with rounded corners*
0 $1 Rounding radius*
0 $2 $3 $4 $5 $6 $7 $8 $9 X,Y pos of 4 corners*
0 Add a 4 corners polygon primitive as box body*
4,1,4,$2,$3,$4,$5,$6,$7,$8,$9,$2,$3,0*
0 Add four circle primitives for the rounded corners*
1,1,$1+$1,$2,$3*
1,1,$1+$1,$4,$5*
1,1,$1+$1,$6,$7*
1,1,$1+$1,$8,$9*
0 Add four rect primitives between the rounded corners*
20,1,$1+$1,$2,$3,$4,$5,0*
20,1,$1+$1,$4,$5,$6,$7,0*
20,1,$1+$1,$6,$7,$8,$9,0*
20,1,$1+$1,$8,$9,$2,$3,0*%
G04 Aperture macros list end*
%ADD10R,4.500000X2.000000*%
%ADD11RoundRect,0.050000X-0.050000X-0.387500X0.050000X-0.387500X0.050000X0.387500X-0.050000X0.387500X0*%
%ADD12RoundRect,0.050000X-0.387500X-0.050000X0.387500X-0.050000X0.387500X0.050000X-0.387500X0.050000X0*%
%ADD13RoundRect,0.249999X-0.395001X-0.395001X0.395001X-0.395001X0.395001X0.395001X-0.395001X0.395001X0*%
%ADD14RoundRect,0.250000X0.350000X0.450000X-0.350000X0.450000X-0.350000X-0.450000X0.350000X-0.450000X0*%
%ADD15RoundRect,0.250000X0.325000X0.450000X-0.325000X0.450000X-0.325000X-0.450000X0.325000X-0.450000X0*%
%ADD16RoundRect,0.237500X-0.237500X0.300000X-0.237500X-0.300000X0.237500X-0.300000X0.237500X0.300000X0*%
%ADD17RoundRect,0.250000X0.450000X-0.350000X0.450000X0.350000X-0.450000X0.350000X-0.450000X-0.350000X0*%
%ADD18RoundRect,0.250000X-0.450000X0.325000X-0.450000X-0.325000X0.450000X-0.325000X0.450000X0.325000X0*%
%ADD19RoundRect,0.237500X0.237500X-0.300000X0.237500X0.300000X-0.237500X0.300000X-0.237500X-0.300000X0*%
%ADD20R,1.550000X1.300000*%
%ADD21RoundRect,0.150000X-0.650000X-0.150000X0.650000X-0.150000X0.650000X0.150000X-0.650000X0.150000X0*%
%ADD22RoundRect,0.375000X0.375000X-0.625000X0.375000X0.625000X-0.375000X0.625000X-0.375000X-0.625000X0*%
%ADD23RoundRect,0.500000X1.400000X-0.500000X1.400000X0.500000X-1.400000X0.500000X-1.400000X-0.500000X0*%
%ADD24RoundRect,0.250000X-0.350000X-0.450000X0.350000X-0.450000X0.350000X0.450000X-0.350000X0.450000X0*%
%ADD25RoundRect,0.250000X-0.450000X0.350000X-0.450000X-0.350000X0.450000X-0.350000X0.450000X0.350000X0*%
%ADD26RoundRect,0.150000X0.425000X-0.150000X0.425000X0.150000X-0.425000X0.150000X-0.425000X-0.150000X0*%
%ADD27RoundRect,0.075000X0.500000X-0.075000X0.500000X0.075000X-0.500000X0.075000X-0.500000X-0.075000X0*%
%ADD28RoundRect,0.250000X0.750000X-0.840000X0.750000X0.840000X-0.750000X0.840000X-0.750000X-0.840000X0*%
G04 APERTURE END LIST*
D10*
%TO.C,Y1*%
X148600000Y-102500000D03*
X157100000Y-102500000D03*
%TD*%
D11*
%TO.C,U1*%
X153100000Y-89212500D03*
X153500000Y-89212500D03*
X153900000Y-89212500D03*
X154300000Y-89212500D03*
X154700000Y-89212500D03*
X155100000Y-89212500D03*
X155500000Y-89212500D03*
X155900000Y-89212500D03*
X156300000Y-89212500D03*
X156700000Y-89212500D03*
X157100000Y-89212500D03*
X157500000Y-89212500D03*
X157900000Y-89212500D03*
X158300000Y-89212500D03*
D12*
X159137500Y-90050000D03*
X159137500Y-90450000D03*
X159137500Y-90850000D03*
X159137500Y-91250000D03*
X159137500Y-91650000D03*
X159137500Y-92050000D03*
X159137500Y-92450000D03*
X159137500Y-92850000D03*
X159137500Y-93250000D03*
X159137500Y-93650000D03*
X159137500Y-94050000D03*
X159137500Y-94450000D03*
X159137500Y-94850000D03*
X159137500Y-95250000D03*
D11*
X158300000Y-96087500D03*
X157900000Y-96087500D03*
X157500000Y-96087500D03*
X157100000Y-96087500D03*
X156700000Y-96087500D03*
X156300000Y-96087500D03*
X155900000Y-96087500D03*
X155500000Y-96087500D03*
X155100000Y-96087500D03*
X154700000Y-96087500D03*
X154300000Y-96087500D03*
X153900000Y-96087500D03*
X153500000Y-96087500D03*
X153100000Y-96087500D03*
D12*
X152262500Y-95250000D03*
X152262500Y-94850000D03*
X152262500Y-94450000D03*
X152262500Y-94050000D03*
X152262500Y-93650000D03*
X152262500Y-93250000D03*
X152262500Y-92850000D03*
X152262500Y-92450000D03*
X152262500Y-92050000D03*
X152262500Y-91650000D03*
X152262500Y-91250000D03*
X152262500Y-90850000D03*
X152262500Y-90450000D03*
X152262500Y-90050000D03*
D13*
X156500000Y-93450000D03*
X156500000Y-91850000D03*
X154900000Y-93450000D03*
X154900000Y-91850000D03*
%TD*%
D14*
%TO.C,R3*%
X168850000Y-99700000D03*
X166850000Y-99700000D03*
%TD*%
D15*
%TO.C,D1*%
X168824998Y-97500001D03*
X166775002Y-97499999D03*
%TD*%
D16*
%TO.C,C13*%
X162700000Y-101287500D03*
X162700000Y-103012500D03*
%TD*%
%TO.C,C12*%
X167550000Y-84737500D03*
X167550000Y-86462500D03*
%TD*%
%TO.C,C11*%
X169250000Y-84737500D03*
X169250000Y-86462500D03*
%TD*%
%TO.C,C10*%
X170900000Y-84737500D03*
X170900000Y-86462500D03*
%TD*%
%TO.C,C9*%
X164150000Y-84737500D03*
X164150000Y-86462500D03*
%TD*%
%TO.C,C8*%
X165850000Y-84737500D03*
X165850000Y-86462500D03*
%TD*%
%TO.C,C7*%
X169700000Y-102437500D03*
X169700000Y-104162500D03*
%TD*%
%TO.C,C6*%
X168000000Y-102437500D03*
X168000000Y-104162500D03*
%TD*%
%TO.C,C5*%
X166322500Y-102437500D03*
X166322500Y-104162500D03*
%TD*%
%TO.C,C4*%
X160750000Y-84737500D03*
X160750000Y-86462500D03*
%TD*%
%TO.C,C3*%
X162500000Y-84737500D03*
X162500000Y-86462500D03*
%TD*%
%TO.C,C2*%
X159050000Y-86462500D03*
X159050000Y-84737500D03*
%TD*%
D17*
%TO.C,R2*%
X164550001Y-103100000D03*
X164550001Y-101100000D03*
%TD*%
D18*
%TO.C,D3*%
X159550001Y-76825002D03*
X159549999Y-78874998D03*
%TD*%
D19*
%TO.C,C18*%
X168950000Y-81762500D03*
X168950000Y-80037500D03*
%TD*%
D14*
%TO.C,R23*%
X148650000Y-89700000D03*
X146650000Y-89700000D03*
%TD*%
%TO.C,R25*%
X148700000Y-93800000D03*
X146700000Y-93800000D03*
%TD*%
D16*
%TO.C,C17*%
X157550000Y-77187500D03*
X157550000Y-78912500D03*
%TD*%
D20*
%TO.C,SW2*%
X135875000Y-80700000D03*
X143825000Y-80700000D03*
X135875000Y-85200000D03*
X143825000Y-85200000D03*
%TD*%
D16*
%TO.C,C1*%
X161000001Y-101287500D03*
X161000001Y-103012500D03*
%TD*%
D14*
%TO.C,R1*%
X168799997Y-95249998D03*
X166799997Y-95249998D03*
%TD*%
D21*
%TO.C,U4*%
X149100003Y-80995000D03*
X149100000Y-82265000D03*
X149100000Y-83535000D03*
X149099999Y-84804999D03*
X156299997Y-84805000D03*
X156300000Y-83535000D03*
X156300000Y-82265000D03*
X156300001Y-80995001D03*
%TD*%
D22*
%TO.C,U6*%
X162100000Y-82349999D03*
X164400000Y-82350000D03*
D23*
X164400000Y-76050000D03*
D22*
X166699999Y-82350001D03*
%TD*%
D16*
%TO.C,C16*%
X153650001Y-77175001D03*
X153650001Y-78900001D03*
%TD*%
D24*
%TO.C,R17*%
X139700000Y-101000000D03*
X141700000Y-101000000D03*
%TD*%
D25*
%TO.C,R22*%
X155550000Y-76850000D03*
X155550000Y-78850000D03*
%TD*%
D14*
%TO.C,R26*%
X146700000Y-95900000D03*
X148700000Y-95900000D03*
%TD*%
D24*
%TO.C,R19*%
X139700000Y-103050000D03*
X141700000Y-103050000D03*
%TD*%
D14*
%TO.C,R6*%
X168749996Y-88899997D03*
X166749996Y-88899997D03*
%TD*%
D26*
%TO.C,J2*%
X172820000Y-97200000D03*
X172820001Y-96400001D03*
D27*
X172820003Y-95250002D03*
X172820000Y-94250002D03*
X172819998Y-93750001D03*
X172820000Y-92749999D03*
D26*
X172819999Y-91599999D03*
X172819997Y-90800000D03*
X172819997Y-90800000D03*
X172819999Y-91599999D03*
D27*
X172820002Y-92250002D03*
X172820000Y-93250001D03*
X172820000Y-94749999D03*
X172819997Y-95750000D03*
D26*
X172820001Y-96400001D03*
X172820000Y-97200000D03*
D28*
X177325000Y-99110002D03*
X173394999Y-99109996D03*
X177325002Y-88889999D03*
X173395000Y-88889998D03*
%TD*%
D14*
%TO.C,R13*%
X168749997Y-90949998D03*
X166749997Y-90949998D03*
%TD*%
%TO.C,R12*%
X168749997Y-93099998D03*
X166749997Y-93099998D03*
%TD*%
D17*
%TO.C,R20*%
X146450000Y-79900000D03*
X146450000Y-77900000D03*
%TD*%
D14*
%TO.C,R24*%
X148650000Y-91750000D03*
X146650000Y-91750000D03*
%TD*%
D24*
%TO.C,R14*%
X139700000Y-98900000D03*
X141700000Y-98900000D03*
%TD*%
M02*
