%TF.GenerationSoftware,KiCad,Pcbnew,8.0.2*%
%TF.CreationDate,2025-07-19T08:03:10+07:00*%
%TF.ProjectId,PicoLink,5069636f-4c69-46e6-9b2e-6b696361645f,rev?*%
%TF.SameCoordinates,Original*%
%TF.FileFunction,Other,User*%
%FSLAX46Y46*%
G04 Gerber Fmt 4.6, Leading zero omitted, Abs format (unit mm)*
G04 Created by KiCad (PCBNEW 8.0.2) date 2025-07-19 08:03:10*
%MOMM*%
%LPD*%
G01*
G04 APERTURE LIST*
%ADD10C,0.050000*%
G04 APERTURE END LIST*
D10*
%TO.C,Y1*%
X146050000Y-99900000D02*
X146050000Y-105100000D01*
X146050000Y-105100000D02*
X159650000Y-105100000D01*
X159650000Y-99900000D02*
X146050000Y-99900000D01*
X159650000Y-105100000D02*
X159650000Y-99900000D01*
%TO.C,U1*%
X159830000Y-96780000D02*
X159830000Y-88520000D01*
X159830000Y-88520000D02*
X151570000Y-88520000D01*
X151570000Y-96780000D02*
X159830000Y-96780000D01*
X151570000Y-88520000D02*
X151570000Y-96780000D01*
%TO.C,R3*%
X169700000Y-100650000D02*
X166000000Y-100650000D01*
X169700000Y-98750000D02*
X169700000Y-100650000D01*
X166000000Y-100650000D02*
X166000000Y-98750000D01*
X166000000Y-98750000D02*
X169700000Y-98750000D01*
%TO.C,D1*%
X169650000Y-98450000D02*
X165950000Y-98450000D01*
X169650000Y-96550000D02*
X169650000Y-98450000D01*
X165950000Y-98450000D02*
X165950000Y-96550000D01*
X165950000Y-96550000D02*
X169650000Y-96550000D01*
%TO.C,C13*%
X163429999Y-100499997D02*
X163429999Y-103800000D01*
X161970001Y-100500000D02*
X163429999Y-100499997D01*
X163429999Y-103800000D02*
X161970001Y-103800003D01*
X161970001Y-103800003D02*
X161970001Y-100500000D01*
%TO.C,C12*%
X168279999Y-83949997D02*
X168279999Y-87250000D01*
X166820001Y-83950000D02*
X168279999Y-83949997D01*
X168279999Y-87250000D02*
X166820001Y-87250003D01*
X166820001Y-87250003D02*
X166820001Y-83950000D01*
%TO.C,C11*%
X169979999Y-83949997D02*
X169979999Y-87250000D01*
X168520001Y-83950000D02*
X169979999Y-83949997D01*
X169979999Y-87250000D02*
X168520001Y-87250003D01*
X168520001Y-87250003D02*
X168520001Y-83950000D01*
%TO.C,C10*%
X171629999Y-83949997D02*
X171629999Y-87250000D01*
X170170001Y-83950000D02*
X171629999Y-83949997D01*
X171629999Y-87250000D02*
X170170001Y-87250003D01*
X170170001Y-87250003D02*
X170170001Y-83950000D01*
%TO.C,C9*%
X164879999Y-83949997D02*
X164879999Y-87250000D01*
X163420001Y-83950000D02*
X164879999Y-83949997D01*
X164879999Y-87250000D02*
X163420001Y-87250003D01*
X163420001Y-87250003D02*
X163420001Y-83950000D01*
%TO.C,C8*%
X166579999Y-83949997D02*
X166579999Y-87250000D01*
X165120001Y-83950000D02*
X166579999Y-83949997D01*
X166579999Y-87250000D02*
X165120001Y-87250003D01*
X165120001Y-87250003D02*
X165120001Y-83950000D01*
%TO.C,C7*%
X170429999Y-101649997D02*
X170429999Y-104950000D01*
X168970001Y-101650000D02*
X170429999Y-101649997D01*
X170429999Y-104950000D02*
X168970001Y-104950003D01*
X168970001Y-104950003D02*
X168970001Y-101650000D01*
%TO.C,C6*%
X168729999Y-101649997D02*
X168729999Y-104950000D01*
X167270001Y-101650000D02*
X168729999Y-101649997D01*
X168729999Y-104950000D02*
X167270001Y-104950003D01*
X167270001Y-104950003D02*
X167270001Y-101650000D01*
%TO.C,C5*%
X167052499Y-101649997D02*
X167052499Y-104950000D01*
X165592501Y-101650000D02*
X167052499Y-101649997D01*
X167052499Y-104950000D02*
X165592501Y-104950003D01*
X165592501Y-104950003D02*
X165592501Y-101650000D01*
%TO.C,C4*%
X161479999Y-83949997D02*
X161479999Y-87250000D01*
X160020001Y-83950000D02*
X161479999Y-83949997D01*
X161479999Y-87250000D02*
X160020001Y-87250003D01*
X160020001Y-87250003D02*
X160020001Y-83950000D01*
%TO.C,C3*%
X163229999Y-83949997D02*
X163229999Y-87250000D01*
X161770001Y-83950000D02*
X163229999Y-83949997D01*
X163229999Y-87250000D02*
X161770001Y-87250003D01*
X161770001Y-87250003D02*
X161770001Y-83950000D01*
%TO.C,C2*%
X158320001Y-87250003D02*
X158320001Y-83950000D01*
X159779999Y-87250000D02*
X158320001Y-87250003D01*
X158320001Y-83950000D02*
X159779999Y-83949997D01*
X159779999Y-83949997D02*
X159779999Y-87250000D01*
%TO.C,R2*%
X163600001Y-103950000D02*
X163600001Y-100250000D01*
X165500001Y-103950000D02*
X163600001Y-103950000D01*
X163600001Y-100250000D02*
X165500001Y-100250000D01*
X165500001Y-100250000D02*
X165500001Y-103950000D01*
%TO.C,D3*%
X158600000Y-76000000D02*
X160500000Y-76000000D01*
X158600000Y-79700000D02*
X158600000Y-76000000D01*
X160500000Y-76000000D02*
X160500000Y-79700000D01*
X160500000Y-79700000D02*
X158600000Y-79700000D01*
%TO.C,C18*%
X168220001Y-79250002D02*
X169679999Y-79249999D01*
X168220001Y-82550001D02*
X168220001Y-79250002D01*
X169679999Y-79249999D02*
X169679999Y-82549998D01*
X169679999Y-82549998D02*
X168220001Y-82550001D01*
%TO.C,R23*%
X145800000Y-88750000D02*
X149500000Y-88750000D01*
X145800000Y-90650000D02*
X145800000Y-88750000D01*
X149500000Y-88750000D02*
X149500000Y-90650000D01*
X149500000Y-90650000D02*
X145800000Y-90650000D01*
%TO.C,R25*%
X145850000Y-92850000D02*
X149550000Y-92850000D01*
X145850000Y-94750000D02*
X145850000Y-92850000D01*
X149550000Y-92850000D02*
X149550000Y-94750000D01*
X149550000Y-94750000D02*
X145850000Y-94750000D01*
%TO.C,C17*%
X156820001Y-76400000D02*
X158279999Y-76399997D01*
X156820001Y-79700003D02*
X156820001Y-76400000D01*
X158279999Y-76399997D02*
X158279999Y-79700000D01*
X158279999Y-79700000D02*
X156820001Y-79700003D01*
%TO.C,SW2*%
X134850000Y-79700000D02*
X134850001Y-86200001D01*
X134850000Y-79700000D02*
X144849999Y-79699999D01*
X134850001Y-86200001D02*
X144850000Y-86200000D01*
X144850000Y-86200000D02*
X144849999Y-79699999D01*
%TO.C,C1*%
X160270002Y-103800003D02*
X160270004Y-100500003D01*
X161729998Y-103799997D02*
X160270002Y-103800003D01*
X160270004Y-100500003D02*
X161730000Y-100499997D01*
X161730000Y-100499997D02*
X161729998Y-103799997D01*
%TO.C,R1*%
X165949997Y-94299998D02*
X169649997Y-94299998D01*
X165949997Y-96199998D02*
X165949997Y-94299998D01*
X169649997Y-94299998D02*
X169649997Y-96199998D01*
X169649997Y-96199998D02*
X165949997Y-96199998D01*
%TO.C,U4*%
X148049999Y-80040000D02*
X148049999Y-85760000D01*
X148049999Y-85760000D02*
X157350001Y-85760000D01*
X157350001Y-80040000D02*
X148049999Y-80040000D01*
X157350001Y-85760000D02*
X157350001Y-80040000D01*
%TO.C,U6*%
X160799999Y-74800000D02*
X160800001Y-83600000D01*
X160800001Y-83600000D02*
X168000001Y-83600000D01*
X167999999Y-74800000D02*
X160799999Y-74800000D01*
X168000001Y-83600000D02*
X167999999Y-74800000D01*
%TO.C,C16*%
X152920001Y-79687503D02*
X152920004Y-76387504D01*
X152920004Y-76387504D02*
X154380001Y-76387499D01*
X154379998Y-79687498D02*
X152920001Y-79687503D01*
X154380001Y-76387499D02*
X154379998Y-79687498D01*
%TO.C,R17*%
X138850000Y-100050000D02*
X142550000Y-100050000D01*
X138850000Y-101950000D02*
X138850000Y-100050000D01*
X142550000Y-100050000D02*
X142550000Y-101950000D01*
X142550000Y-101950000D02*
X138850000Y-101950000D01*
%TO.C,R22*%
X154600000Y-76000000D02*
X156500000Y-76000000D01*
X154600000Y-79700000D02*
X154600000Y-76000000D01*
X156500000Y-76000000D02*
X156500000Y-79700000D01*
X156500000Y-79700000D02*
X154600000Y-79700000D01*
%TO.C,H6*%
X133050000Y-79200000D02*
G75*
G02*
X127150000Y-79200000I-2950000J0D01*
G01*
X127150000Y-79200000D02*
G75*
G02*
X133050000Y-79200000I2950000J0D01*
G01*
%TO.C,R26*%
X149550000Y-96850000D02*
X145850000Y-96850000D01*
X149550000Y-94950000D02*
X149550000Y-96850000D01*
X145850000Y-96850000D02*
X145850000Y-94950000D01*
X145850000Y-94950000D02*
X149550000Y-94950000D01*
%TO.C,FID3*%
X138100000Y-76300000D02*
G75*
G02*
X135600000Y-76300000I-1250000J0D01*
G01*
X135600000Y-76300000D02*
G75*
G02*
X138100000Y-76300000I1250000J0D01*
G01*
%TO.C,R19*%
X138850000Y-102100000D02*
X142550000Y-102100000D01*
X138850000Y-104000000D02*
X138850000Y-102100000D01*
X142550000Y-102100000D02*
X142550000Y-104000000D01*
X142550000Y-104000000D02*
X138850000Y-104000000D01*
%TO.C,R6*%
X165899996Y-87949997D02*
X169599996Y-87949997D01*
X165899996Y-89849997D02*
X165899996Y-87949997D01*
X169599996Y-87949997D02*
X169599996Y-89849997D01*
X169599996Y-89849997D02*
X165899996Y-89849997D01*
%TO.C,H5*%
X179300000Y-79150000D02*
G75*
G02*
X173400000Y-79150000I-2950000J0D01*
G01*
X173400000Y-79150000D02*
G75*
G02*
X179300000Y-79150000I2950000J0D01*
G01*
%TO.C,J2*%
X171740002Y-89750000D02*
X171890000Y-89750000D01*
X171740002Y-98250000D02*
X171740002Y-89750000D01*
X171889999Y-100700002D02*
X171890000Y-98250000D01*
X171890000Y-87300000D02*
X174900002Y-87299999D01*
X171890000Y-89750000D02*
X171890000Y-87300000D01*
X171890000Y-98250000D02*
X171740002Y-98250000D01*
X174900000Y-89030000D02*
X175820000Y-89030000D01*
X174900000Y-98970001D02*
X174900000Y-100699999D01*
X174900000Y-100699999D02*
X171889999Y-100700002D01*
X174900002Y-87299999D02*
X174900000Y-89030000D01*
X175820000Y-87300000D02*
X178829998Y-87300002D01*
X175820000Y-89030000D02*
X175820000Y-87300000D01*
X175820000Y-98970000D02*
X174900000Y-98970001D01*
X175820000Y-100700000D02*
X175820000Y-98970000D01*
X178829998Y-87300002D02*
X178830001Y-89030000D01*
X178830000Y-98970000D02*
X178830000Y-100699999D01*
X178830000Y-100699999D02*
X175820000Y-100700000D01*
X178830001Y-89030000D02*
X180680000Y-89030001D01*
X180680000Y-89030001D02*
X180680002Y-98970000D01*
X180680002Y-98970000D02*
X178830000Y-98970000D01*
%TO.C,R13*%
X165899997Y-89999998D02*
X169599997Y-89999998D01*
X165899997Y-91899998D02*
X165899997Y-89999998D01*
X169599997Y-89999998D02*
X169599997Y-91899998D01*
X169599997Y-91899998D02*
X165899997Y-91899998D01*
%TO.C,H3*%
X179050000Y-107700000D02*
G75*
G02*
X173150000Y-107700000I-2950000J0D01*
G01*
X173150000Y-107700000D02*
G75*
G02*
X179050000Y-107700000I2950000J0D01*
G01*
%TO.C,FID1*%
X170350000Y-109100000D02*
G75*
G02*
X167850000Y-109100000I-1250000J0D01*
G01*
X167850000Y-109100000D02*
G75*
G02*
X170350000Y-109100000I1250000J0D01*
G01*
%TO.C,R12*%
X165899997Y-92149998D02*
X169599997Y-92149998D01*
X165899997Y-94049998D02*
X165899997Y-92149998D01*
X169599997Y-92149998D02*
X169599997Y-94049998D01*
X169599997Y-94049998D02*
X165899997Y-94049998D01*
%TO.C,FID2*%
X177250000Y-83450000D02*
G75*
G02*
X174750000Y-83450000I-1250000J0D01*
G01*
X174750000Y-83450000D02*
G75*
G02*
X177250000Y-83450000I1250000J0D01*
G01*
%TO.C,R20*%
X145500000Y-77050000D02*
X147400000Y-77050000D01*
X145500000Y-80750000D02*
X145500000Y-77050000D01*
X147400000Y-77050000D02*
X147400000Y-80750000D01*
X147400000Y-80750000D02*
X145500000Y-80750000D01*
%TO.C,H4*%
X133450000Y-107900000D02*
G75*
G02*
X127550000Y-107900000I-2950000J0D01*
G01*
X127550000Y-107900000D02*
G75*
G02*
X133450000Y-107900000I2950000J0D01*
G01*
%TO.C,R24*%
X145800000Y-90800000D02*
X149500000Y-90800000D01*
X145800000Y-92700000D02*
X145800000Y-90800000D01*
X149500000Y-90800000D02*
X149500000Y-92700000D01*
X149500000Y-92700000D02*
X145800000Y-92700000D01*
%TO.C,R14*%
X138850000Y-97950000D02*
X142550000Y-97950000D01*
X138850000Y-99850000D02*
X138850000Y-97950000D01*
X142550000Y-97950000D02*
X142550000Y-99850000D01*
X142550000Y-99850000D02*
X138850000Y-99850000D01*
%TD*%
M02*
