%TF.GenerationSoftware,KiCad,Pcbnew,8.0.2*%
%TF.CreationDate,2025-07-19T08:03:10+07:00*%
%TF.ProjectId,PicoLink,5069636f-4c69-46e6-9b2e-6b696361645f,rev?*%
%TF.SameCoordinates,Original*%
%TF.FileFunction,AssemblyDrawing,Top*%
%FSLAX46Y46*%
G04 Gerber Fmt 4.6, Leading zero omitted, Abs format (unit mm)*
G04 Created by KiCad (PCBNEW 8.0.2) date 2025-07-19 08:03:10*
%MOMM*%
%LPD*%
G01*
G04 APERTURE LIST*
%ADD10C,0.150000*%
%ADD11C,0.080000*%
%ADD12C,0.060000*%
%ADD13C,0.120000*%
%ADD14C,0.100000*%
G04 APERTURE END LIST*
D10*
X147278571Y-106504819D02*
X146707143Y-106504819D01*
X146992857Y-106504819D02*
X146992857Y-105504819D01*
X146992857Y-105504819D02*
X146897619Y-105647676D01*
X146897619Y-105647676D02*
X146802381Y-105742914D01*
X146802381Y-105742914D02*
X146707143Y-105790533D01*
X147659524Y-105600057D02*
X147707143Y-105552438D01*
X147707143Y-105552438D02*
X147802381Y-105504819D01*
X147802381Y-105504819D02*
X148040476Y-105504819D01*
X148040476Y-105504819D02*
X148135714Y-105552438D01*
X148135714Y-105552438D02*
X148183333Y-105600057D01*
X148183333Y-105600057D02*
X148230952Y-105695295D01*
X148230952Y-105695295D02*
X148230952Y-105790533D01*
X148230952Y-105790533D02*
X148183333Y-105933390D01*
X148183333Y-105933390D02*
X147611905Y-106504819D01*
X147611905Y-106504819D02*
X148230952Y-106504819D01*
X148659524Y-106504819D02*
X148659524Y-105504819D01*
X148659524Y-105504819D02*
X148992857Y-106219104D01*
X148992857Y-106219104D02*
X149326190Y-105504819D01*
X149326190Y-105504819D02*
X149326190Y-106504819D01*
X149802381Y-106504819D02*
X149802381Y-105504819D01*
X150230952Y-106504819D02*
X150230952Y-105981009D01*
X150230952Y-105981009D02*
X150183333Y-105885771D01*
X150183333Y-105885771D02*
X150088095Y-105838152D01*
X150088095Y-105838152D02*
X149945238Y-105838152D01*
X149945238Y-105838152D02*
X149850000Y-105885771D01*
X149850000Y-105885771D02*
X149802381Y-105933390D01*
X150611905Y-105838152D02*
X151135714Y-105838152D01*
X151135714Y-105838152D02*
X150611905Y-106504819D01*
X150611905Y-106504819D02*
X151135714Y-106504819D01*
X152278572Y-106504819D02*
X152278572Y-105504819D01*
X152278572Y-105981009D02*
X152850000Y-105981009D01*
X152850000Y-106504819D02*
X152850000Y-105504819D01*
X153897619Y-106409580D02*
X153850000Y-106457200D01*
X153850000Y-106457200D02*
X153707143Y-106504819D01*
X153707143Y-106504819D02*
X153611905Y-106504819D01*
X153611905Y-106504819D02*
X153469048Y-106457200D01*
X153469048Y-106457200D02*
X153373810Y-106361961D01*
X153373810Y-106361961D02*
X153326191Y-106266723D01*
X153326191Y-106266723D02*
X153278572Y-106076247D01*
X153278572Y-106076247D02*
X153278572Y-105933390D01*
X153278572Y-105933390D02*
X153326191Y-105742914D01*
X153326191Y-105742914D02*
X153373810Y-105647676D01*
X153373810Y-105647676D02*
X153469048Y-105552438D01*
X153469048Y-105552438D02*
X153611905Y-105504819D01*
X153611905Y-105504819D02*
X153707143Y-105504819D01*
X153707143Y-105504819D02*
X153850000Y-105552438D01*
X153850000Y-105552438D02*
X153897619Y-105600057D01*
X154754762Y-105838152D02*
X154754762Y-106504819D01*
X154516667Y-105457200D02*
X154278572Y-106171485D01*
X154278572Y-106171485D02*
X154897619Y-106171485D01*
X155326191Y-106504819D02*
X155516667Y-106504819D01*
X155516667Y-106504819D02*
X155611905Y-106457200D01*
X155611905Y-106457200D02*
X155659524Y-106409580D01*
X155659524Y-106409580D02*
X155754762Y-106266723D01*
X155754762Y-106266723D02*
X155802381Y-106076247D01*
X155802381Y-106076247D02*
X155802381Y-105695295D01*
X155802381Y-105695295D02*
X155754762Y-105600057D01*
X155754762Y-105600057D02*
X155707143Y-105552438D01*
X155707143Y-105552438D02*
X155611905Y-105504819D01*
X155611905Y-105504819D02*
X155421429Y-105504819D01*
X155421429Y-105504819D02*
X155326191Y-105552438D01*
X155326191Y-105552438D02*
X155278572Y-105600057D01*
X155278572Y-105600057D02*
X155230953Y-105695295D01*
X155230953Y-105695295D02*
X155230953Y-105933390D01*
X155230953Y-105933390D02*
X155278572Y-106028628D01*
X155278572Y-106028628D02*
X155326191Y-106076247D01*
X155326191Y-106076247D02*
X155421429Y-106123866D01*
X155421429Y-106123866D02*
X155611905Y-106123866D01*
X155611905Y-106123866D02*
X155707143Y-106076247D01*
X155707143Y-106076247D02*
X155754762Y-106028628D01*
X155754762Y-106028628D02*
X155802381Y-105933390D01*
X156230953Y-106123866D02*
X156992858Y-106123866D01*
X157421429Y-106457200D02*
X157564286Y-106504819D01*
X157564286Y-106504819D02*
X157802381Y-106504819D01*
X157802381Y-106504819D02*
X157897619Y-106457200D01*
X157897619Y-106457200D02*
X157945238Y-106409580D01*
X157945238Y-106409580D02*
X157992857Y-106314342D01*
X157992857Y-106314342D02*
X157992857Y-106219104D01*
X157992857Y-106219104D02*
X157945238Y-106123866D01*
X157945238Y-106123866D02*
X157897619Y-106076247D01*
X157897619Y-106076247D02*
X157802381Y-106028628D01*
X157802381Y-106028628D02*
X157611905Y-105981009D01*
X157611905Y-105981009D02*
X157516667Y-105933390D01*
X157516667Y-105933390D02*
X157469048Y-105885771D01*
X157469048Y-105885771D02*
X157421429Y-105790533D01*
X157421429Y-105790533D02*
X157421429Y-105695295D01*
X157421429Y-105695295D02*
X157469048Y-105600057D01*
X157469048Y-105600057D02*
X157516667Y-105552438D01*
X157516667Y-105552438D02*
X157611905Y-105504819D01*
X157611905Y-105504819D02*
X157850000Y-105504819D01*
X157850000Y-105504819D02*
X157992857Y-105552438D01*
X158421429Y-106504819D02*
X158421429Y-105504819D01*
X158421429Y-105504819D02*
X158659524Y-105504819D01*
X158659524Y-105504819D02*
X158802381Y-105552438D01*
X158802381Y-105552438D02*
X158897619Y-105647676D01*
X158897619Y-105647676D02*
X158945238Y-105742914D01*
X158945238Y-105742914D02*
X158992857Y-105933390D01*
X158992857Y-105933390D02*
X158992857Y-106076247D01*
X158992857Y-106076247D02*
X158945238Y-106266723D01*
X158945238Y-106266723D02*
X158897619Y-106361961D01*
X158897619Y-106361961D02*
X158802381Y-106457200D01*
X158802381Y-106457200D02*
X158659524Y-106504819D01*
X158659524Y-106504819D02*
X158421429Y-106504819D01*
X152373809Y-102478628D02*
X152373809Y-102954819D01*
X152040476Y-101954819D02*
X152373809Y-102478628D01*
X152373809Y-102478628D02*
X152707142Y-101954819D01*
X153564285Y-102954819D02*
X152992857Y-102954819D01*
X153278571Y-102954819D02*
X153278571Y-101954819D01*
X153278571Y-101954819D02*
X153183333Y-102097676D01*
X153183333Y-102097676D02*
X153088095Y-102192914D01*
X153088095Y-102192914D02*
X152992857Y-102240533D01*
X153604761Y-97934819D02*
X153271428Y-97458628D01*
X153033333Y-97934819D02*
X153033333Y-96934819D01*
X153033333Y-96934819D02*
X153414285Y-96934819D01*
X153414285Y-96934819D02*
X153509523Y-96982438D01*
X153509523Y-96982438D02*
X153557142Y-97030057D01*
X153557142Y-97030057D02*
X153604761Y-97125295D01*
X153604761Y-97125295D02*
X153604761Y-97268152D01*
X153604761Y-97268152D02*
X153557142Y-97363390D01*
X153557142Y-97363390D02*
X153509523Y-97411009D01*
X153509523Y-97411009D02*
X153414285Y-97458628D01*
X153414285Y-97458628D02*
X153033333Y-97458628D01*
X154033333Y-97934819D02*
X154033333Y-96934819D01*
X154033333Y-96934819D02*
X154414285Y-96934819D01*
X154414285Y-96934819D02*
X154509523Y-96982438D01*
X154509523Y-96982438D02*
X154557142Y-97030057D01*
X154557142Y-97030057D02*
X154604761Y-97125295D01*
X154604761Y-97125295D02*
X154604761Y-97268152D01*
X154604761Y-97268152D02*
X154557142Y-97363390D01*
X154557142Y-97363390D02*
X154509523Y-97411009D01*
X154509523Y-97411009D02*
X154414285Y-97458628D01*
X154414285Y-97458628D02*
X154033333Y-97458628D01*
X154985714Y-97030057D02*
X155033333Y-96982438D01*
X155033333Y-96982438D02*
X155128571Y-96934819D01*
X155128571Y-96934819D02*
X155366666Y-96934819D01*
X155366666Y-96934819D02*
X155461904Y-96982438D01*
X155461904Y-96982438D02*
X155509523Y-97030057D01*
X155509523Y-97030057D02*
X155557142Y-97125295D01*
X155557142Y-97125295D02*
X155557142Y-97220533D01*
X155557142Y-97220533D02*
X155509523Y-97363390D01*
X155509523Y-97363390D02*
X154938095Y-97934819D01*
X154938095Y-97934819D02*
X155557142Y-97934819D01*
X156176190Y-96934819D02*
X156271428Y-96934819D01*
X156271428Y-96934819D02*
X156366666Y-96982438D01*
X156366666Y-96982438D02*
X156414285Y-97030057D01*
X156414285Y-97030057D02*
X156461904Y-97125295D01*
X156461904Y-97125295D02*
X156509523Y-97315771D01*
X156509523Y-97315771D02*
X156509523Y-97553866D01*
X156509523Y-97553866D02*
X156461904Y-97744342D01*
X156461904Y-97744342D02*
X156414285Y-97839580D01*
X156414285Y-97839580D02*
X156366666Y-97887200D01*
X156366666Y-97887200D02*
X156271428Y-97934819D01*
X156271428Y-97934819D02*
X156176190Y-97934819D01*
X156176190Y-97934819D02*
X156080952Y-97887200D01*
X156080952Y-97887200D02*
X156033333Y-97839580D01*
X156033333Y-97839580D02*
X155985714Y-97744342D01*
X155985714Y-97744342D02*
X155938095Y-97553866D01*
X155938095Y-97553866D02*
X155938095Y-97315771D01*
X155938095Y-97315771D02*
X155985714Y-97125295D01*
X155985714Y-97125295D02*
X156033333Y-97030057D01*
X156033333Y-97030057D02*
X156080952Y-96982438D01*
X156080952Y-96982438D02*
X156176190Y-96934819D01*
X157366666Y-97268152D02*
X157366666Y-97934819D01*
X157128571Y-96887200D02*
X156890476Y-97601485D01*
X156890476Y-97601485D02*
X157509523Y-97601485D01*
X158080952Y-96934819D02*
X158176190Y-96934819D01*
X158176190Y-96934819D02*
X158271428Y-96982438D01*
X158271428Y-96982438D02*
X158319047Y-97030057D01*
X158319047Y-97030057D02*
X158366666Y-97125295D01*
X158366666Y-97125295D02*
X158414285Y-97315771D01*
X158414285Y-97315771D02*
X158414285Y-97553866D01*
X158414285Y-97553866D02*
X158366666Y-97744342D01*
X158366666Y-97744342D02*
X158319047Y-97839580D01*
X158319047Y-97839580D02*
X158271428Y-97887200D01*
X158271428Y-97887200D02*
X158176190Y-97934819D01*
X158176190Y-97934819D02*
X158080952Y-97934819D01*
X158080952Y-97934819D02*
X157985714Y-97887200D01*
X157985714Y-97887200D02*
X157938095Y-97839580D01*
X157938095Y-97839580D02*
X157890476Y-97744342D01*
X157890476Y-97744342D02*
X157842857Y-97553866D01*
X157842857Y-97553866D02*
X157842857Y-97315771D01*
X157842857Y-97315771D02*
X157890476Y-97125295D01*
X157890476Y-97125295D02*
X157938095Y-97030057D01*
X157938095Y-97030057D02*
X157985714Y-96982438D01*
X157985714Y-96982438D02*
X158080952Y-96934819D01*
X154938095Y-92104819D02*
X154938095Y-92914342D01*
X154938095Y-92914342D02*
X154985714Y-93009580D01*
X154985714Y-93009580D02*
X155033333Y-93057200D01*
X155033333Y-93057200D02*
X155128571Y-93104819D01*
X155128571Y-93104819D02*
X155319047Y-93104819D01*
X155319047Y-93104819D02*
X155414285Y-93057200D01*
X155414285Y-93057200D02*
X155461904Y-93009580D01*
X155461904Y-93009580D02*
X155509523Y-92914342D01*
X155509523Y-92914342D02*
X155509523Y-92104819D01*
X156509523Y-93104819D02*
X155938095Y-93104819D01*
X156223809Y-93104819D02*
X156223809Y-92104819D01*
X156223809Y-92104819D02*
X156128571Y-92247676D01*
X156128571Y-92247676D02*
X156033333Y-92342914D01*
X156033333Y-92342914D02*
X155938095Y-92390533D01*
X167635714Y-98504821D02*
X167064286Y-98504821D01*
X167350000Y-98504821D02*
X167350000Y-97504821D01*
X167350000Y-97504821D02*
X167254762Y-97647678D01*
X167254762Y-97647678D02*
X167159524Y-97742916D01*
X167159524Y-97742916D02*
X167064286Y-97790535D01*
X168064286Y-98504821D02*
X168064286Y-97504821D01*
X168635714Y-98504821D02*
X168207143Y-97933392D01*
X168635714Y-97504821D02*
X168064286Y-98076249D01*
D11*
X167766666Y-99927149D02*
X167600000Y-99689054D01*
X167480952Y-99927149D02*
X167480952Y-99427149D01*
X167480952Y-99427149D02*
X167671428Y-99427149D01*
X167671428Y-99427149D02*
X167719047Y-99450959D01*
X167719047Y-99450959D02*
X167742857Y-99474768D01*
X167742857Y-99474768D02*
X167766666Y-99522387D01*
X167766666Y-99522387D02*
X167766666Y-99593816D01*
X167766666Y-99593816D02*
X167742857Y-99641435D01*
X167742857Y-99641435D02*
X167719047Y-99665244D01*
X167719047Y-99665244D02*
X167671428Y-99689054D01*
X167671428Y-99689054D02*
X167480952Y-99689054D01*
X167933333Y-99427149D02*
X168242857Y-99427149D01*
X168242857Y-99427149D02*
X168076190Y-99617625D01*
X168076190Y-99617625D02*
X168147619Y-99617625D01*
X168147619Y-99617625D02*
X168195238Y-99641435D01*
X168195238Y-99641435D02*
X168219047Y-99665244D01*
X168219047Y-99665244D02*
X168242857Y-99712863D01*
X168242857Y-99712863D02*
X168242857Y-99831911D01*
X168242857Y-99831911D02*
X168219047Y-99879530D01*
X168219047Y-99879530D02*
X168195238Y-99903340D01*
X168195238Y-99903340D02*
X168147619Y-99927149D01*
X168147619Y-99927149D02*
X168004762Y-99927149D01*
X168004762Y-99927149D02*
X167957143Y-99903340D01*
X167957143Y-99903340D02*
X167933333Y-99879530D01*
D10*
X166395237Y-95638154D02*
X166395237Y-96447678D01*
X166395237Y-96447678D02*
X166347618Y-96542916D01*
X166347618Y-96542916D02*
X166299999Y-96590535D01*
X166299999Y-96590535D02*
X166204761Y-96638154D01*
X166204761Y-96638154D02*
X166061904Y-96638154D01*
X166061904Y-96638154D02*
X165966666Y-96590535D01*
X166395237Y-96257202D02*
X166299999Y-96304821D01*
X166299999Y-96304821D02*
X166109523Y-96304821D01*
X166109523Y-96304821D02*
X166014285Y-96257202D01*
X166014285Y-96257202D02*
X165966666Y-96209582D01*
X165966666Y-96209582D02*
X165919047Y-96114344D01*
X165919047Y-96114344D02*
X165919047Y-95828630D01*
X165919047Y-95828630D02*
X165966666Y-95733392D01*
X165966666Y-95733392D02*
X166014285Y-95685773D01*
X166014285Y-95685773D02*
X166109523Y-95638154D01*
X166109523Y-95638154D02*
X166299999Y-95638154D01*
X166299999Y-95638154D02*
X166395237Y-95685773D01*
X166871428Y-96304821D02*
X166871428Y-95638154D01*
X166871428Y-95828630D02*
X166919047Y-95733392D01*
X166919047Y-95733392D02*
X166966666Y-95685773D01*
X166966666Y-95685773D02*
X167061904Y-95638154D01*
X167061904Y-95638154D02*
X167157142Y-95638154D01*
X167871428Y-96257202D02*
X167776190Y-96304821D01*
X167776190Y-96304821D02*
X167585714Y-96304821D01*
X167585714Y-96304821D02*
X167490476Y-96257202D01*
X167490476Y-96257202D02*
X167442857Y-96161963D01*
X167442857Y-96161963D02*
X167442857Y-95781011D01*
X167442857Y-95781011D02*
X167490476Y-95685773D01*
X167490476Y-95685773D02*
X167585714Y-95638154D01*
X167585714Y-95638154D02*
X167776190Y-95638154D01*
X167776190Y-95638154D02*
X167871428Y-95685773D01*
X167871428Y-95685773D02*
X167919047Y-95781011D01*
X167919047Y-95781011D02*
X167919047Y-95876249D01*
X167919047Y-95876249D02*
X167442857Y-95971487D01*
X168728571Y-96257202D02*
X168633333Y-96304821D01*
X168633333Y-96304821D02*
X168442857Y-96304821D01*
X168442857Y-96304821D02*
X168347619Y-96257202D01*
X168347619Y-96257202D02*
X168300000Y-96161963D01*
X168300000Y-96161963D02*
X168300000Y-95781011D01*
X168300000Y-95781011D02*
X168347619Y-95685773D01*
X168347619Y-95685773D02*
X168442857Y-95638154D01*
X168442857Y-95638154D02*
X168633333Y-95638154D01*
X168633333Y-95638154D02*
X168728571Y-95685773D01*
X168728571Y-95685773D02*
X168776190Y-95781011D01*
X168776190Y-95781011D02*
X168776190Y-95876249D01*
X168776190Y-95876249D02*
X168300000Y-95971487D01*
X169204762Y-95638154D02*
X169204762Y-96304821D01*
X169204762Y-95733392D02*
X169252381Y-95685773D01*
X169252381Y-95685773D02*
X169347619Y-95638154D01*
X169347619Y-95638154D02*
X169490476Y-95638154D01*
X169490476Y-95638154D02*
X169585714Y-95685773D01*
X169585714Y-95685773D02*
X169633333Y-95781011D01*
X169633333Y-95781011D02*
X169633333Y-96304821D01*
D11*
X167430952Y-97727149D02*
X167430952Y-97227149D01*
X167430952Y-97227149D02*
X167550000Y-97227149D01*
X167550000Y-97227149D02*
X167621428Y-97250959D01*
X167621428Y-97250959D02*
X167669047Y-97298578D01*
X167669047Y-97298578D02*
X167692857Y-97346197D01*
X167692857Y-97346197D02*
X167716666Y-97441435D01*
X167716666Y-97441435D02*
X167716666Y-97512863D01*
X167716666Y-97512863D02*
X167692857Y-97608101D01*
X167692857Y-97608101D02*
X167669047Y-97655720D01*
X167669047Y-97655720D02*
X167621428Y-97703340D01*
X167621428Y-97703340D02*
X167550000Y-97727149D01*
X167550000Y-97727149D02*
X167430952Y-97727149D01*
X168192857Y-97727149D02*
X167907143Y-97727149D01*
X168050000Y-97727149D02*
X168050000Y-97227149D01*
X168050000Y-97227149D02*
X168002381Y-97298578D01*
X168002381Y-97298578D02*
X167954762Y-97346197D01*
X167954762Y-97346197D02*
X167907143Y-97370006D01*
D10*
X161724820Y-103221427D02*
X161724820Y-103792855D01*
X161724820Y-103507141D02*
X160724820Y-103507141D01*
X160724820Y-103507141D02*
X160867677Y-103602379D01*
X160867677Y-103602379D02*
X160962915Y-103697617D01*
X160962915Y-103697617D02*
X161010534Y-103792855D01*
X160820058Y-102840474D02*
X160772439Y-102792855D01*
X160772439Y-102792855D02*
X160724820Y-102697617D01*
X160724820Y-102697617D02*
X160724820Y-102459522D01*
X160724820Y-102459522D02*
X160772439Y-102364284D01*
X160772439Y-102364284D02*
X160820058Y-102316665D01*
X160820058Y-102316665D02*
X160915296Y-102269046D01*
X160915296Y-102269046D02*
X161010534Y-102269046D01*
X161010534Y-102269046D02*
X161153391Y-102316665D01*
X161153391Y-102316665D02*
X161724820Y-102888093D01*
X161724820Y-102888093D02*
X161724820Y-102269046D01*
X161058153Y-101840474D02*
X162058153Y-101840474D01*
X161105772Y-101840474D02*
X161058153Y-101745236D01*
X161058153Y-101745236D02*
X161058153Y-101554760D01*
X161058153Y-101554760D02*
X161105772Y-101459522D01*
X161105772Y-101459522D02*
X161153391Y-101411903D01*
X161153391Y-101411903D02*
X161248629Y-101364284D01*
X161248629Y-101364284D02*
X161534343Y-101364284D01*
X161534343Y-101364284D02*
X161629581Y-101411903D01*
X161629581Y-101411903D02*
X161677201Y-101459522D01*
X161677201Y-101459522D02*
X161724820Y-101554760D01*
X161724820Y-101554760D02*
X161724820Y-101745236D01*
X161724820Y-101745236D02*
X161677201Y-101840474D01*
X161201010Y-100602379D02*
X161201010Y-100935712D01*
X161724820Y-100935712D02*
X160724820Y-100935712D01*
X160724820Y-100935712D02*
X160724820Y-100459522D01*
D12*
X162843832Y-102407142D02*
X162862880Y-102426190D01*
X162862880Y-102426190D02*
X162881927Y-102483332D01*
X162881927Y-102483332D02*
X162881927Y-102521428D01*
X162881927Y-102521428D02*
X162862880Y-102578571D01*
X162862880Y-102578571D02*
X162824784Y-102616666D01*
X162824784Y-102616666D02*
X162786689Y-102635713D01*
X162786689Y-102635713D02*
X162710499Y-102654761D01*
X162710499Y-102654761D02*
X162653356Y-102654761D01*
X162653356Y-102654761D02*
X162577165Y-102635713D01*
X162577165Y-102635713D02*
X162539070Y-102616666D01*
X162539070Y-102616666D02*
X162500975Y-102578571D01*
X162500975Y-102578571D02*
X162481927Y-102521428D01*
X162481927Y-102521428D02*
X162481927Y-102483332D01*
X162481927Y-102483332D02*
X162500975Y-102426190D01*
X162500975Y-102426190D02*
X162520022Y-102407142D01*
X162881927Y-102026190D02*
X162881927Y-102254761D01*
X162881927Y-102140475D02*
X162481927Y-102140475D01*
X162481927Y-102140475D02*
X162539070Y-102178571D01*
X162539070Y-102178571D02*
X162577165Y-102216666D01*
X162577165Y-102216666D02*
X162596213Y-102254761D01*
X162481927Y-101892857D02*
X162481927Y-101645238D01*
X162481927Y-101645238D02*
X162634308Y-101778571D01*
X162634308Y-101778571D02*
X162634308Y-101721428D01*
X162634308Y-101721428D02*
X162653356Y-101683333D01*
X162653356Y-101683333D02*
X162672403Y-101664285D01*
X162672403Y-101664285D02*
X162710499Y-101645238D01*
X162710499Y-101645238D02*
X162805737Y-101645238D01*
X162805737Y-101645238D02*
X162843832Y-101664285D01*
X162843832Y-101664285D02*
X162862880Y-101683333D01*
X162862880Y-101683333D02*
X162881927Y-101721428D01*
X162881927Y-101721428D02*
X162881927Y-101835714D01*
X162881927Y-101835714D02*
X162862880Y-101873809D01*
X162862880Y-101873809D02*
X162843832Y-101892857D01*
D10*
X166574820Y-87147618D02*
X166574820Y-87719046D01*
X166574820Y-87433332D02*
X165574820Y-87433332D01*
X165574820Y-87433332D02*
X165717677Y-87528570D01*
X165717677Y-87528570D02*
X165812915Y-87623808D01*
X165812915Y-87623808D02*
X165860534Y-87719046D01*
X165574820Y-86528570D02*
X165574820Y-86433332D01*
X165574820Y-86433332D02*
X165622439Y-86338094D01*
X165622439Y-86338094D02*
X165670058Y-86290475D01*
X165670058Y-86290475D02*
X165765296Y-86242856D01*
X165765296Y-86242856D02*
X165955772Y-86195237D01*
X165955772Y-86195237D02*
X166193867Y-86195237D01*
X166193867Y-86195237D02*
X166384343Y-86242856D01*
X166384343Y-86242856D02*
X166479581Y-86290475D01*
X166479581Y-86290475D02*
X166527201Y-86338094D01*
X166527201Y-86338094D02*
X166574820Y-86433332D01*
X166574820Y-86433332D02*
X166574820Y-86528570D01*
X166574820Y-86528570D02*
X166527201Y-86623808D01*
X166527201Y-86623808D02*
X166479581Y-86671427D01*
X166479581Y-86671427D02*
X166384343Y-86719046D01*
X166384343Y-86719046D02*
X166193867Y-86766665D01*
X166193867Y-86766665D02*
X165955772Y-86766665D01*
X165955772Y-86766665D02*
X165765296Y-86719046D01*
X165765296Y-86719046D02*
X165670058Y-86671427D01*
X165670058Y-86671427D02*
X165622439Y-86623808D01*
X165622439Y-86623808D02*
X165574820Y-86528570D01*
X165574820Y-85576189D02*
X165574820Y-85480951D01*
X165574820Y-85480951D02*
X165622439Y-85385713D01*
X165622439Y-85385713D02*
X165670058Y-85338094D01*
X165670058Y-85338094D02*
X165765296Y-85290475D01*
X165765296Y-85290475D02*
X165955772Y-85242856D01*
X165955772Y-85242856D02*
X166193867Y-85242856D01*
X166193867Y-85242856D02*
X166384343Y-85290475D01*
X166384343Y-85290475D02*
X166479581Y-85338094D01*
X166479581Y-85338094D02*
X166527201Y-85385713D01*
X166527201Y-85385713D02*
X166574820Y-85480951D01*
X166574820Y-85480951D02*
X166574820Y-85576189D01*
X166574820Y-85576189D02*
X166527201Y-85671427D01*
X166527201Y-85671427D02*
X166479581Y-85719046D01*
X166479581Y-85719046D02*
X166384343Y-85766665D01*
X166384343Y-85766665D02*
X166193867Y-85814284D01*
X166193867Y-85814284D02*
X165955772Y-85814284D01*
X165955772Y-85814284D02*
X165765296Y-85766665D01*
X165765296Y-85766665D02*
X165670058Y-85719046D01*
X165670058Y-85719046D02*
X165622439Y-85671427D01*
X165622439Y-85671427D02*
X165574820Y-85576189D01*
X165908153Y-84814284D02*
X166574820Y-84814284D01*
X166003391Y-84814284D02*
X165955772Y-84766665D01*
X165955772Y-84766665D02*
X165908153Y-84671427D01*
X165908153Y-84671427D02*
X165908153Y-84528570D01*
X165908153Y-84528570D02*
X165955772Y-84433332D01*
X165955772Y-84433332D02*
X166051010Y-84385713D01*
X166051010Y-84385713D02*
X166574820Y-84385713D01*
X166051010Y-83576189D02*
X166051010Y-83909522D01*
X166574820Y-83909522D02*
X165574820Y-83909522D01*
X165574820Y-83909522D02*
X165574820Y-83433332D01*
D12*
X167693832Y-85857142D02*
X167712880Y-85876190D01*
X167712880Y-85876190D02*
X167731927Y-85933332D01*
X167731927Y-85933332D02*
X167731927Y-85971428D01*
X167731927Y-85971428D02*
X167712880Y-86028571D01*
X167712880Y-86028571D02*
X167674784Y-86066666D01*
X167674784Y-86066666D02*
X167636689Y-86085713D01*
X167636689Y-86085713D02*
X167560499Y-86104761D01*
X167560499Y-86104761D02*
X167503356Y-86104761D01*
X167503356Y-86104761D02*
X167427165Y-86085713D01*
X167427165Y-86085713D02*
X167389070Y-86066666D01*
X167389070Y-86066666D02*
X167350975Y-86028571D01*
X167350975Y-86028571D02*
X167331927Y-85971428D01*
X167331927Y-85971428D02*
X167331927Y-85933332D01*
X167331927Y-85933332D02*
X167350975Y-85876190D01*
X167350975Y-85876190D02*
X167370022Y-85857142D01*
X167731927Y-85476190D02*
X167731927Y-85704761D01*
X167731927Y-85590475D02*
X167331927Y-85590475D01*
X167331927Y-85590475D02*
X167389070Y-85628571D01*
X167389070Y-85628571D02*
X167427165Y-85666666D01*
X167427165Y-85666666D02*
X167446213Y-85704761D01*
X167370022Y-85323809D02*
X167350975Y-85304761D01*
X167350975Y-85304761D02*
X167331927Y-85266666D01*
X167331927Y-85266666D02*
X167331927Y-85171428D01*
X167331927Y-85171428D02*
X167350975Y-85133333D01*
X167350975Y-85133333D02*
X167370022Y-85114285D01*
X167370022Y-85114285D02*
X167408118Y-85095238D01*
X167408118Y-85095238D02*
X167446213Y-85095238D01*
X167446213Y-85095238D02*
X167503356Y-85114285D01*
X167503356Y-85114285D02*
X167731927Y-85342857D01*
X167731927Y-85342857D02*
X167731927Y-85095238D01*
D10*
X168274820Y-87147618D02*
X168274820Y-87719046D01*
X168274820Y-87433332D02*
X167274820Y-87433332D01*
X167274820Y-87433332D02*
X167417677Y-87528570D01*
X167417677Y-87528570D02*
X167512915Y-87623808D01*
X167512915Y-87623808D02*
X167560534Y-87719046D01*
X167274820Y-86528570D02*
X167274820Y-86433332D01*
X167274820Y-86433332D02*
X167322439Y-86338094D01*
X167322439Y-86338094D02*
X167370058Y-86290475D01*
X167370058Y-86290475D02*
X167465296Y-86242856D01*
X167465296Y-86242856D02*
X167655772Y-86195237D01*
X167655772Y-86195237D02*
X167893867Y-86195237D01*
X167893867Y-86195237D02*
X168084343Y-86242856D01*
X168084343Y-86242856D02*
X168179581Y-86290475D01*
X168179581Y-86290475D02*
X168227201Y-86338094D01*
X168227201Y-86338094D02*
X168274820Y-86433332D01*
X168274820Y-86433332D02*
X168274820Y-86528570D01*
X168274820Y-86528570D02*
X168227201Y-86623808D01*
X168227201Y-86623808D02*
X168179581Y-86671427D01*
X168179581Y-86671427D02*
X168084343Y-86719046D01*
X168084343Y-86719046D02*
X167893867Y-86766665D01*
X167893867Y-86766665D02*
X167655772Y-86766665D01*
X167655772Y-86766665D02*
X167465296Y-86719046D01*
X167465296Y-86719046D02*
X167370058Y-86671427D01*
X167370058Y-86671427D02*
X167322439Y-86623808D01*
X167322439Y-86623808D02*
X167274820Y-86528570D01*
X167274820Y-85576189D02*
X167274820Y-85480951D01*
X167274820Y-85480951D02*
X167322439Y-85385713D01*
X167322439Y-85385713D02*
X167370058Y-85338094D01*
X167370058Y-85338094D02*
X167465296Y-85290475D01*
X167465296Y-85290475D02*
X167655772Y-85242856D01*
X167655772Y-85242856D02*
X167893867Y-85242856D01*
X167893867Y-85242856D02*
X168084343Y-85290475D01*
X168084343Y-85290475D02*
X168179581Y-85338094D01*
X168179581Y-85338094D02*
X168227201Y-85385713D01*
X168227201Y-85385713D02*
X168274820Y-85480951D01*
X168274820Y-85480951D02*
X168274820Y-85576189D01*
X168274820Y-85576189D02*
X168227201Y-85671427D01*
X168227201Y-85671427D02*
X168179581Y-85719046D01*
X168179581Y-85719046D02*
X168084343Y-85766665D01*
X168084343Y-85766665D02*
X167893867Y-85814284D01*
X167893867Y-85814284D02*
X167655772Y-85814284D01*
X167655772Y-85814284D02*
X167465296Y-85766665D01*
X167465296Y-85766665D02*
X167370058Y-85719046D01*
X167370058Y-85719046D02*
X167322439Y-85671427D01*
X167322439Y-85671427D02*
X167274820Y-85576189D01*
X167608153Y-84814284D02*
X168274820Y-84814284D01*
X167703391Y-84814284D02*
X167655772Y-84766665D01*
X167655772Y-84766665D02*
X167608153Y-84671427D01*
X167608153Y-84671427D02*
X167608153Y-84528570D01*
X167608153Y-84528570D02*
X167655772Y-84433332D01*
X167655772Y-84433332D02*
X167751010Y-84385713D01*
X167751010Y-84385713D02*
X168274820Y-84385713D01*
X167751010Y-83576189D02*
X167751010Y-83909522D01*
X168274820Y-83909522D02*
X167274820Y-83909522D01*
X167274820Y-83909522D02*
X167274820Y-83433332D01*
D12*
X169393832Y-85857142D02*
X169412880Y-85876190D01*
X169412880Y-85876190D02*
X169431927Y-85933332D01*
X169431927Y-85933332D02*
X169431927Y-85971428D01*
X169431927Y-85971428D02*
X169412880Y-86028571D01*
X169412880Y-86028571D02*
X169374784Y-86066666D01*
X169374784Y-86066666D02*
X169336689Y-86085713D01*
X169336689Y-86085713D02*
X169260499Y-86104761D01*
X169260499Y-86104761D02*
X169203356Y-86104761D01*
X169203356Y-86104761D02*
X169127165Y-86085713D01*
X169127165Y-86085713D02*
X169089070Y-86066666D01*
X169089070Y-86066666D02*
X169050975Y-86028571D01*
X169050975Y-86028571D02*
X169031927Y-85971428D01*
X169031927Y-85971428D02*
X169031927Y-85933332D01*
X169031927Y-85933332D02*
X169050975Y-85876190D01*
X169050975Y-85876190D02*
X169070022Y-85857142D01*
X169431927Y-85476190D02*
X169431927Y-85704761D01*
X169431927Y-85590475D02*
X169031927Y-85590475D01*
X169031927Y-85590475D02*
X169089070Y-85628571D01*
X169089070Y-85628571D02*
X169127165Y-85666666D01*
X169127165Y-85666666D02*
X169146213Y-85704761D01*
X169431927Y-85095238D02*
X169431927Y-85323809D01*
X169431927Y-85209523D02*
X169031927Y-85209523D01*
X169031927Y-85209523D02*
X169089070Y-85247619D01*
X169089070Y-85247619D02*
X169127165Y-85285714D01*
X169127165Y-85285714D02*
X169146213Y-85323809D01*
D10*
X169924820Y-87147618D02*
X169924820Y-87719046D01*
X169924820Y-87433332D02*
X168924820Y-87433332D01*
X168924820Y-87433332D02*
X169067677Y-87528570D01*
X169067677Y-87528570D02*
X169162915Y-87623808D01*
X169162915Y-87623808D02*
X169210534Y-87719046D01*
X168924820Y-86528570D02*
X168924820Y-86433332D01*
X168924820Y-86433332D02*
X168972439Y-86338094D01*
X168972439Y-86338094D02*
X169020058Y-86290475D01*
X169020058Y-86290475D02*
X169115296Y-86242856D01*
X169115296Y-86242856D02*
X169305772Y-86195237D01*
X169305772Y-86195237D02*
X169543867Y-86195237D01*
X169543867Y-86195237D02*
X169734343Y-86242856D01*
X169734343Y-86242856D02*
X169829581Y-86290475D01*
X169829581Y-86290475D02*
X169877201Y-86338094D01*
X169877201Y-86338094D02*
X169924820Y-86433332D01*
X169924820Y-86433332D02*
X169924820Y-86528570D01*
X169924820Y-86528570D02*
X169877201Y-86623808D01*
X169877201Y-86623808D02*
X169829581Y-86671427D01*
X169829581Y-86671427D02*
X169734343Y-86719046D01*
X169734343Y-86719046D02*
X169543867Y-86766665D01*
X169543867Y-86766665D02*
X169305772Y-86766665D01*
X169305772Y-86766665D02*
X169115296Y-86719046D01*
X169115296Y-86719046D02*
X169020058Y-86671427D01*
X169020058Y-86671427D02*
X168972439Y-86623808D01*
X168972439Y-86623808D02*
X168924820Y-86528570D01*
X168924820Y-85576189D02*
X168924820Y-85480951D01*
X168924820Y-85480951D02*
X168972439Y-85385713D01*
X168972439Y-85385713D02*
X169020058Y-85338094D01*
X169020058Y-85338094D02*
X169115296Y-85290475D01*
X169115296Y-85290475D02*
X169305772Y-85242856D01*
X169305772Y-85242856D02*
X169543867Y-85242856D01*
X169543867Y-85242856D02*
X169734343Y-85290475D01*
X169734343Y-85290475D02*
X169829581Y-85338094D01*
X169829581Y-85338094D02*
X169877201Y-85385713D01*
X169877201Y-85385713D02*
X169924820Y-85480951D01*
X169924820Y-85480951D02*
X169924820Y-85576189D01*
X169924820Y-85576189D02*
X169877201Y-85671427D01*
X169877201Y-85671427D02*
X169829581Y-85719046D01*
X169829581Y-85719046D02*
X169734343Y-85766665D01*
X169734343Y-85766665D02*
X169543867Y-85814284D01*
X169543867Y-85814284D02*
X169305772Y-85814284D01*
X169305772Y-85814284D02*
X169115296Y-85766665D01*
X169115296Y-85766665D02*
X169020058Y-85719046D01*
X169020058Y-85719046D02*
X168972439Y-85671427D01*
X168972439Y-85671427D02*
X168924820Y-85576189D01*
X169258153Y-84814284D02*
X169924820Y-84814284D01*
X169353391Y-84814284D02*
X169305772Y-84766665D01*
X169305772Y-84766665D02*
X169258153Y-84671427D01*
X169258153Y-84671427D02*
X169258153Y-84528570D01*
X169258153Y-84528570D02*
X169305772Y-84433332D01*
X169305772Y-84433332D02*
X169401010Y-84385713D01*
X169401010Y-84385713D02*
X169924820Y-84385713D01*
X169401010Y-83576189D02*
X169401010Y-83909522D01*
X169924820Y-83909522D02*
X168924820Y-83909522D01*
X168924820Y-83909522D02*
X168924820Y-83433332D01*
D12*
X171043832Y-85857142D02*
X171062880Y-85876190D01*
X171062880Y-85876190D02*
X171081927Y-85933332D01*
X171081927Y-85933332D02*
X171081927Y-85971428D01*
X171081927Y-85971428D02*
X171062880Y-86028571D01*
X171062880Y-86028571D02*
X171024784Y-86066666D01*
X171024784Y-86066666D02*
X170986689Y-86085713D01*
X170986689Y-86085713D02*
X170910499Y-86104761D01*
X170910499Y-86104761D02*
X170853356Y-86104761D01*
X170853356Y-86104761D02*
X170777165Y-86085713D01*
X170777165Y-86085713D02*
X170739070Y-86066666D01*
X170739070Y-86066666D02*
X170700975Y-86028571D01*
X170700975Y-86028571D02*
X170681927Y-85971428D01*
X170681927Y-85971428D02*
X170681927Y-85933332D01*
X170681927Y-85933332D02*
X170700975Y-85876190D01*
X170700975Y-85876190D02*
X170720022Y-85857142D01*
X171081927Y-85476190D02*
X171081927Y-85704761D01*
X171081927Y-85590475D02*
X170681927Y-85590475D01*
X170681927Y-85590475D02*
X170739070Y-85628571D01*
X170739070Y-85628571D02*
X170777165Y-85666666D01*
X170777165Y-85666666D02*
X170796213Y-85704761D01*
X170681927Y-85228571D02*
X170681927Y-85190476D01*
X170681927Y-85190476D02*
X170700975Y-85152380D01*
X170700975Y-85152380D02*
X170720022Y-85133333D01*
X170720022Y-85133333D02*
X170758118Y-85114285D01*
X170758118Y-85114285D02*
X170834308Y-85095238D01*
X170834308Y-85095238D02*
X170929546Y-85095238D01*
X170929546Y-85095238D02*
X171005737Y-85114285D01*
X171005737Y-85114285D02*
X171043832Y-85133333D01*
X171043832Y-85133333D02*
X171062880Y-85152380D01*
X171062880Y-85152380D02*
X171081927Y-85190476D01*
X171081927Y-85190476D02*
X171081927Y-85228571D01*
X171081927Y-85228571D02*
X171062880Y-85266666D01*
X171062880Y-85266666D02*
X171043832Y-85285714D01*
X171043832Y-85285714D02*
X171005737Y-85304761D01*
X171005737Y-85304761D02*
X170929546Y-85323809D01*
X170929546Y-85323809D02*
X170834308Y-85323809D01*
X170834308Y-85323809D02*
X170758118Y-85304761D01*
X170758118Y-85304761D02*
X170720022Y-85285714D01*
X170720022Y-85285714D02*
X170700975Y-85266666D01*
X170700975Y-85266666D02*
X170681927Y-85228571D01*
D10*
X163174820Y-87147618D02*
X163174820Y-87719046D01*
X163174820Y-87433332D02*
X162174820Y-87433332D01*
X162174820Y-87433332D02*
X162317677Y-87528570D01*
X162317677Y-87528570D02*
X162412915Y-87623808D01*
X162412915Y-87623808D02*
X162460534Y-87719046D01*
X162174820Y-86528570D02*
X162174820Y-86433332D01*
X162174820Y-86433332D02*
X162222439Y-86338094D01*
X162222439Y-86338094D02*
X162270058Y-86290475D01*
X162270058Y-86290475D02*
X162365296Y-86242856D01*
X162365296Y-86242856D02*
X162555772Y-86195237D01*
X162555772Y-86195237D02*
X162793867Y-86195237D01*
X162793867Y-86195237D02*
X162984343Y-86242856D01*
X162984343Y-86242856D02*
X163079581Y-86290475D01*
X163079581Y-86290475D02*
X163127201Y-86338094D01*
X163127201Y-86338094D02*
X163174820Y-86433332D01*
X163174820Y-86433332D02*
X163174820Y-86528570D01*
X163174820Y-86528570D02*
X163127201Y-86623808D01*
X163127201Y-86623808D02*
X163079581Y-86671427D01*
X163079581Y-86671427D02*
X162984343Y-86719046D01*
X162984343Y-86719046D02*
X162793867Y-86766665D01*
X162793867Y-86766665D02*
X162555772Y-86766665D01*
X162555772Y-86766665D02*
X162365296Y-86719046D01*
X162365296Y-86719046D02*
X162270058Y-86671427D01*
X162270058Y-86671427D02*
X162222439Y-86623808D01*
X162222439Y-86623808D02*
X162174820Y-86528570D01*
X162174820Y-85576189D02*
X162174820Y-85480951D01*
X162174820Y-85480951D02*
X162222439Y-85385713D01*
X162222439Y-85385713D02*
X162270058Y-85338094D01*
X162270058Y-85338094D02*
X162365296Y-85290475D01*
X162365296Y-85290475D02*
X162555772Y-85242856D01*
X162555772Y-85242856D02*
X162793867Y-85242856D01*
X162793867Y-85242856D02*
X162984343Y-85290475D01*
X162984343Y-85290475D02*
X163079581Y-85338094D01*
X163079581Y-85338094D02*
X163127201Y-85385713D01*
X163127201Y-85385713D02*
X163174820Y-85480951D01*
X163174820Y-85480951D02*
X163174820Y-85576189D01*
X163174820Y-85576189D02*
X163127201Y-85671427D01*
X163127201Y-85671427D02*
X163079581Y-85719046D01*
X163079581Y-85719046D02*
X162984343Y-85766665D01*
X162984343Y-85766665D02*
X162793867Y-85814284D01*
X162793867Y-85814284D02*
X162555772Y-85814284D01*
X162555772Y-85814284D02*
X162365296Y-85766665D01*
X162365296Y-85766665D02*
X162270058Y-85719046D01*
X162270058Y-85719046D02*
X162222439Y-85671427D01*
X162222439Y-85671427D02*
X162174820Y-85576189D01*
X162508153Y-84814284D02*
X163174820Y-84814284D01*
X162603391Y-84814284D02*
X162555772Y-84766665D01*
X162555772Y-84766665D02*
X162508153Y-84671427D01*
X162508153Y-84671427D02*
X162508153Y-84528570D01*
X162508153Y-84528570D02*
X162555772Y-84433332D01*
X162555772Y-84433332D02*
X162651010Y-84385713D01*
X162651010Y-84385713D02*
X163174820Y-84385713D01*
X162651010Y-83576189D02*
X162651010Y-83909522D01*
X163174820Y-83909522D02*
X162174820Y-83909522D01*
X162174820Y-83909522D02*
X162174820Y-83433332D01*
D12*
X164293832Y-85666666D02*
X164312880Y-85685714D01*
X164312880Y-85685714D02*
X164331927Y-85742856D01*
X164331927Y-85742856D02*
X164331927Y-85780952D01*
X164331927Y-85780952D02*
X164312880Y-85838095D01*
X164312880Y-85838095D02*
X164274784Y-85876190D01*
X164274784Y-85876190D02*
X164236689Y-85895237D01*
X164236689Y-85895237D02*
X164160499Y-85914285D01*
X164160499Y-85914285D02*
X164103356Y-85914285D01*
X164103356Y-85914285D02*
X164027165Y-85895237D01*
X164027165Y-85895237D02*
X163989070Y-85876190D01*
X163989070Y-85876190D02*
X163950975Y-85838095D01*
X163950975Y-85838095D02*
X163931927Y-85780952D01*
X163931927Y-85780952D02*
X163931927Y-85742856D01*
X163931927Y-85742856D02*
X163950975Y-85685714D01*
X163950975Y-85685714D02*
X163970022Y-85666666D01*
X164331927Y-85476190D02*
X164331927Y-85399999D01*
X164331927Y-85399999D02*
X164312880Y-85361904D01*
X164312880Y-85361904D02*
X164293832Y-85342856D01*
X164293832Y-85342856D02*
X164236689Y-85304761D01*
X164236689Y-85304761D02*
X164160499Y-85285714D01*
X164160499Y-85285714D02*
X164008118Y-85285714D01*
X164008118Y-85285714D02*
X163970022Y-85304761D01*
X163970022Y-85304761D02*
X163950975Y-85323809D01*
X163950975Y-85323809D02*
X163931927Y-85361904D01*
X163931927Y-85361904D02*
X163931927Y-85438095D01*
X163931927Y-85438095D02*
X163950975Y-85476190D01*
X163950975Y-85476190D02*
X163970022Y-85495237D01*
X163970022Y-85495237D02*
X164008118Y-85514285D01*
X164008118Y-85514285D02*
X164103356Y-85514285D01*
X164103356Y-85514285D02*
X164141451Y-85495237D01*
X164141451Y-85495237D02*
X164160499Y-85476190D01*
X164160499Y-85476190D02*
X164179546Y-85438095D01*
X164179546Y-85438095D02*
X164179546Y-85361904D01*
X164179546Y-85361904D02*
X164160499Y-85323809D01*
X164160499Y-85323809D02*
X164141451Y-85304761D01*
X164141451Y-85304761D02*
X164103356Y-85285714D01*
D10*
X164874820Y-87147618D02*
X164874820Y-87719046D01*
X164874820Y-87433332D02*
X163874820Y-87433332D01*
X163874820Y-87433332D02*
X164017677Y-87528570D01*
X164017677Y-87528570D02*
X164112915Y-87623808D01*
X164112915Y-87623808D02*
X164160534Y-87719046D01*
X163874820Y-86528570D02*
X163874820Y-86433332D01*
X163874820Y-86433332D02*
X163922439Y-86338094D01*
X163922439Y-86338094D02*
X163970058Y-86290475D01*
X163970058Y-86290475D02*
X164065296Y-86242856D01*
X164065296Y-86242856D02*
X164255772Y-86195237D01*
X164255772Y-86195237D02*
X164493867Y-86195237D01*
X164493867Y-86195237D02*
X164684343Y-86242856D01*
X164684343Y-86242856D02*
X164779581Y-86290475D01*
X164779581Y-86290475D02*
X164827201Y-86338094D01*
X164827201Y-86338094D02*
X164874820Y-86433332D01*
X164874820Y-86433332D02*
X164874820Y-86528570D01*
X164874820Y-86528570D02*
X164827201Y-86623808D01*
X164827201Y-86623808D02*
X164779581Y-86671427D01*
X164779581Y-86671427D02*
X164684343Y-86719046D01*
X164684343Y-86719046D02*
X164493867Y-86766665D01*
X164493867Y-86766665D02*
X164255772Y-86766665D01*
X164255772Y-86766665D02*
X164065296Y-86719046D01*
X164065296Y-86719046D02*
X163970058Y-86671427D01*
X163970058Y-86671427D02*
X163922439Y-86623808D01*
X163922439Y-86623808D02*
X163874820Y-86528570D01*
X163874820Y-85576189D02*
X163874820Y-85480951D01*
X163874820Y-85480951D02*
X163922439Y-85385713D01*
X163922439Y-85385713D02*
X163970058Y-85338094D01*
X163970058Y-85338094D02*
X164065296Y-85290475D01*
X164065296Y-85290475D02*
X164255772Y-85242856D01*
X164255772Y-85242856D02*
X164493867Y-85242856D01*
X164493867Y-85242856D02*
X164684343Y-85290475D01*
X164684343Y-85290475D02*
X164779581Y-85338094D01*
X164779581Y-85338094D02*
X164827201Y-85385713D01*
X164827201Y-85385713D02*
X164874820Y-85480951D01*
X164874820Y-85480951D02*
X164874820Y-85576189D01*
X164874820Y-85576189D02*
X164827201Y-85671427D01*
X164827201Y-85671427D02*
X164779581Y-85719046D01*
X164779581Y-85719046D02*
X164684343Y-85766665D01*
X164684343Y-85766665D02*
X164493867Y-85814284D01*
X164493867Y-85814284D02*
X164255772Y-85814284D01*
X164255772Y-85814284D02*
X164065296Y-85766665D01*
X164065296Y-85766665D02*
X163970058Y-85719046D01*
X163970058Y-85719046D02*
X163922439Y-85671427D01*
X163922439Y-85671427D02*
X163874820Y-85576189D01*
X164208153Y-84814284D02*
X164874820Y-84814284D01*
X164303391Y-84814284D02*
X164255772Y-84766665D01*
X164255772Y-84766665D02*
X164208153Y-84671427D01*
X164208153Y-84671427D02*
X164208153Y-84528570D01*
X164208153Y-84528570D02*
X164255772Y-84433332D01*
X164255772Y-84433332D02*
X164351010Y-84385713D01*
X164351010Y-84385713D02*
X164874820Y-84385713D01*
X164351010Y-83576189D02*
X164351010Y-83909522D01*
X164874820Y-83909522D02*
X163874820Y-83909522D01*
X163874820Y-83909522D02*
X163874820Y-83433332D01*
D12*
X165993832Y-85666666D02*
X166012880Y-85685714D01*
X166012880Y-85685714D02*
X166031927Y-85742856D01*
X166031927Y-85742856D02*
X166031927Y-85780952D01*
X166031927Y-85780952D02*
X166012880Y-85838095D01*
X166012880Y-85838095D02*
X165974784Y-85876190D01*
X165974784Y-85876190D02*
X165936689Y-85895237D01*
X165936689Y-85895237D02*
X165860499Y-85914285D01*
X165860499Y-85914285D02*
X165803356Y-85914285D01*
X165803356Y-85914285D02*
X165727165Y-85895237D01*
X165727165Y-85895237D02*
X165689070Y-85876190D01*
X165689070Y-85876190D02*
X165650975Y-85838095D01*
X165650975Y-85838095D02*
X165631927Y-85780952D01*
X165631927Y-85780952D02*
X165631927Y-85742856D01*
X165631927Y-85742856D02*
X165650975Y-85685714D01*
X165650975Y-85685714D02*
X165670022Y-85666666D01*
X165803356Y-85438095D02*
X165784308Y-85476190D01*
X165784308Y-85476190D02*
X165765260Y-85495237D01*
X165765260Y-85495237D02*
X165727165Y-85514285D01*
X165727165Y-85514285D02*
X165708118Y-85514285D01*
X165708118Y-85514285D02*
X165670022Y-85495237D01*
X165670022Y-85495237D02*
X165650975Y-85476190D01*
X165650975Y-85476190D02*
X165631927Y-85438095D01*
X165631927Y-85438095D02*
X165631927Y-85361904D01*
X165631927Y-85361904D02*
X165650975Y-85323809D01*
X165650975Y-85323809D02*
X165670022Y-85304761D01*
X165670022Y-85304761D02*
X165708118Y-85285714D01*
X165708118Y-85285714D02*
X165727165Y-85285714D01*
X165727165Y-85285714D02*
X165765260Y-85304761D01*
X165765260Y-85304761D02*
X165784308Y-85323809D01*
X165784308Y-85323809D02*
X165803356Y-85361904D01*
X165803356Y-85361904D02*
X165803356Y-85438095D01*
X165803356Y-85438095D02*
X165822403Y-85476190D01*
X165822403Y-85476190D02*
X165841451Y-85495237D01*
X165841451Y-85495237D02*
X165879546Y-85514285D01*
X165879546Y-85514285D02*
X165955737Y-85514285D01*
X165955737Y-85514285D02*
X165993832Y-85495237D01*
X165993832Y-85495237D02*
X166012880Y-85476190D01*
X166012880Y-85476190D02*
X166031927Y-85438095D01*
X166031927Y-85438095D02*
X166031927Y-85361904D01*
X166031927Y-85361904D02*
X166012880Y-85323809D01*
X166012880Y-85323809D02*
X165993832Y-85304761D01*
X165993832Y-85304761D02*
X165955737Y-85285714D01*
X165955737Y-85285714D02*
X165879546Y-85285714D01*
X165879546Y-85285714D02*
X165841451Y-85304761D01*
X165841451Y-85304761D02*
X165822403Y-85323809D01*
X165822403Y-85323809D02*
X165803356Y-85361904D01*
D10*
X168724820Y-104847618D02*
X168724820Y-105419046D01*
X168724820Y-105133332D02*
X167724820Y-105133332D01*
X167724820Y-105133332D02*
X167867677Y-105228570D01*
X167867677Y-105228570D02*
X167962915Y-105323808D01*
X167962915Y-105323808D02*
X168010534Y-105419046D01*
X167724820Y-104228570D02*
X167724820Y-104133332D01*
X167724820Y-104133332D02*
X167772439Y-104038094D01*
X167772439Y-104038094D02*
X167820058Y-103990475D01*
X167820058Y-103990475D02*
X167915296Y-103942856D01*
X167915296Y-103942856D02*
X168105772Y-103895237D01*
X168105772Y-103895237D02*
X168343867Y-103895237D01*
X168343867Y-103895237D02*
X168534343Y-103942856D01*
X168534343Y-103942856D02*
X168629581Y-103990475D01*
X168629581Y-103990475D02*
X168677201Y-104038094D01*
X168677201Y-104038094D02*
X168724820Y-104133332D01*
X168724820Y-104133332D02*
X168724820Y-104228570D01*
X168724820Y-104228570D02*
X168677201Y-104323808D01*
X168677201Y-104323808D02*
X168629581Y-104371427D01*
X168629581Y-104371427D02*
X168534343Y-104419046D01*
X168534343Y-104419046D02*
X168343867Y-104466665D01*
X168343867Y-104466665D02*
X168105772Y-104466665D01*
X168105772Y-104466665D02*
X167915296Y-104419046D01*
X167915296Y-104419046D02*
X167820058Y-104371427D01*
X167820058Y-104371427D02*
X167772439Y-104323808D01*
X167772439Y-104323808D02*
X167724820Y-104228570D01*
X167724820Y-103276189D02*
X167724820Y-103180951D01*
X167724820Y-103180951D02*
X167772439Y-103085713D01*
X167772439Y-103085713D02*
X167820058Y-103038094D01*
X167820058Y-103038094D02*
X167915296Y-102990475D01*
X167915296Y-102990475D02*
X168105772Y-102942856D01*
X168105772Y-102942856D02*
X168343867Y-102942856D01*
X168343867Y-102942856D02*
X168534343Y-102990475D01*
X168534343Y-102990475D02*
X168629581Y-103038094D01*
X168629581Y-103038094D02*
X168677201Y-103085713D01*
X168677201Y-103085713D02*
X168724820Y-103180951D01*
X168724820Y-103180951D02*
X168724820Y-103276189D01*
X168724820Y-103276189D02*
X168677201Y-103371427D01*
X168677201Y-103371427D02*
X168629581Y-103419046D01*
X168629581Y-103419046D02*
X168534343Y-103466665D01*
X168534343Y-103466665D02*
X168343867Y-103514284D01*
X168343867Y-103514284D02*
X168105772Y-103514284D01*
X168105772Y-103514284D02*
X167915296Y-103466665D01*
X167915296Y-103466665D02*
X167820058Y-103419046D01*
X167820058Y-103419046D02*
X167772439Y-103371427D01*
X167772439Y-103371427D02*
X167724820Y-103276189D01*
X168058153Y-102514284D02*
X168724820Y-102514284D01*
X168153391Y-102514284D02*
X168105772Y-102466665D01*
X168105772Y-102466665D02*
X168058153Y-102371427D01*
X168058153Y-102371427D02*
X168058153Y-102228570D01*
X168058153Y-102228570D02*
X168105772Y-102133332D01*
X168105772Y-102133332D02*
X168201010Y-102085713D01*
X168201010Y-102085713D02*
X168724820Y-102085713D01*
X168201010Y-101276189D02*
X168201010Y-101609522D01*
X168724820Y-101609522D02*
X167724820Y-101609522D01*
X167724820Y-101609522D02*
X167724820Y-101133332D01*
D12*
X169843832Y-103366666D02*
X169862880Y-103385714D01*
X169862880Y-103385714D02*
X169881927Y-103442856D01*
X169881927Y-103442856D02*
X169881927Y-103480952D01*
X169881927Y-103480952D02*
X169862880Y-103538095D01*
X169862880Y-103538095D02*
X169824784Y-103576190D01*
X169824784Y-103576190D02*
X169786689Y-103595237D01*
X169786689Y-103595237D02*
X169710499Y-103614285D01*
X169710499Y-103614285D02*
X169653356Y-103614285D01*
X169653356Y-103614285D02*
X169577165Y-103595237D01*
X169577165Y-103595237D02*
X169539070Y-103576190D01*
X169539070Y-103576190D02*
X169500975Y-103538095D01*
X169500975Y-103538095D02*
X169481927Y-103480952D01*
X169481927Y-103480952D02*
X169481927Y-103442856D01*
X169481927Y-103442856D02*
X169500975Y-103385714D01*
X169500975Y-103385714D02*
X169520022Y-103366666D01*
X169481927Y-103233333D02*
X169481927Y-102966666D01*
X169481927Y-102966666D02*
X169881927Y-103138095D01*
D10*
X167024820Y-104847618D02*
X167024820Y-105419046D01*
X167024820Y-105133332D02*
X166024820Y-105133332D01*
X166024820Y-105133332D02*
X166167677Y-105228570D01*
X166167677Y-105228570D02*
X166262915Y-105323808D01*
X166262915Y-105323808D02*
X166310534Y-105419046D01*
X166024820Y-104228570D02*
X166024820Y-104133332D01*
X166024820Y-104133332D02*
X166072439Y-104038094D01*
X166072439Y-104038094D02*
X166120058Y-103990475D01*
X166120058Y-103990475D02*
X166215296Y-103942856D01*
X166215296Y-103942856D02*
X166405772Y-103895237D01*
X166405772Y-103895237D02*
X166643867Y-103895237D01*
X166643867Y-103895237D02*
X166834343Y-103942856D01*
X166834343Y-103942856D02*
X166929581Y-103990475D01*
X166929581Y-103990475D02*
X166977201Y-104038094D01*
X166977201Y-104038094D02*
X167024820Y-104133332D01*
X167024820Y-104133332D02*
X167024820Y-104228570D01*
X167024820Y-104228570D02*
X166977201Y-104323808D01*
X166977201Y-104323808D02*
X166929581Y-104371427D01*
X166929581Y-104371427D02*
X166834343Y-104419046D01*
X166834343Y-104419046D02*
X166643867Y-104466665D01*
X166643867Y-104466665D02*
X166405772Y-104466665D01*
X166405772Y-104466665D02*
X166215296Y-104419046D01*
X166215296Y-104419046D02*
X166120058Y-104371427D01*
X166120058Y-104371427D02*
X166072439Y-104323808D01*
X166072439Y-104323808D02*
X166024820Y-104228570D01*
X166024820Y-103276189D02*
X166024820Y-103180951D01*
X166024820Y-103180951D02*
X166072439Y-103085713D01*
X166072439Y-103085713D02*
X166120058Y-103038094D01*
X166120058Y-103038094D02*
X166215296Y-102990475D01*
X166215296Y-102990475D02*
X166405772Y-102942856D01*
X166405772Y-102942856D02*
X166643867Y-102942856D01*
X166643867Y-102942856D02*
X166834343Y-102990475D01*
X166834343Y-102990475D02*
X166929581Y-103038094D01*
X166929581Y-103038094D02*
X166977201Y-103085713D01*
X166977201Y-103085713D02*
X167024820Y-103180951D01*
X167024820Y-103180951D02*
X167024820Y-103276189D01*
X167024820Y-103276189D02*
X166977201Y-103371427D01*
X166977201Y-103371427D02*
X166929581Y-103419046D01*
X166929581Y-103419046D02*
X166834343Y-103466665D01*
X166834343Y-103466665D02*
X166643867Y-103514284D01*
X166643867Y-103514284D02*
X166405772Y-103514284D01*
X166405772Y-103514284D02*
X166215296Y-103466665D01*
X166215296Y-103466665D02*
X166120058Y-103419046D01*
X166120058Y-103419046D02*
X166072439Y-103371427D01*
X166072439Y-103371427D02*
X166024820Y-103276189D01*
X166358153Y-102514284D02*
X167024820Y-102514284D01*
X166453391Y-102514284D02*
X166405772Y-102466665D01*
X166405772Y-102466665D02*
X166358153Y-102371427D01*
X166358153Y-102371427D02*
X166358153Y-102228570D01*
X166358153Y-102228570D02*
X166405772Y-102133332D01*
X166405772Y-102133332D02*
X166501010Y-102085713D01*
X166501010Y-102085713D02*
X167024820Y-102085713D01*
X166501010Y-101276189D02*
X166501010Y-101609522D01*
X167024820Y-101609522D02*
X166024820Y-101609522D01*
X166024820Y-101609522D02*
X166024820Y-101133332D01*
D12*
X168143832Y-103366666D02*
X168162880Y-103385714D01*
X168162880Y-103385714D02*
X168181927Y-103442856D01*
X168181927Y-103442856D02*
X168181927Y-103480952D01*
X168181927Y-103480952D02*
X168162880Y-103538095D01*
X168162880Y-103538095D02*
X168124784Y-103576190D01*
X168124784Y-103576190D02*
X168086689Y-103595237D01*
X168086689Y-103595237D02*
X168010499Y-103614285D01*
X168010499Y-103614285D02*
X167953356Y-103614285D01*
X167953356Y-103614285D02*
X167877165Y-103595237D01*
X167877165Y-103595237D02*
X167839070Y-103576190D01*
X167839070Y-103576190D02*
X167800975Y-103538095D01*
X167800975Y-103538095D02*
X167781927Y-103480952D01*
X167781927Y-103480952D02*
X167781927Y-103442856D01*
X167781927Y-103442856D02*
X167800975Y-103385714D01*
X167800975Y-103385714D02*
X167820022Y-103366666D01*
X167781927Y-103023809D02*
X167781927Y-103099999D01*
X167781927Y-103099999D02*
X167800975Y-103138095D01*
X167800975Y-103138095D02*
X167820022Y-103157142D01*
X167820022Y-103157142D02*
X167877165Y-103195237D01*
X167877165Y-103195237D02*
X167953356Y-103214285D01*
X167953356Y-103214285D02*
X168105737Y-103214285D01*
X168105737Y-103214285D02*
X168143832Y-103195237D01*
X168143832Y-103195237D02*
X168162880Y-103176190D01*
X168162880Y-103176190D02*
X168181927Y-103138095D01*
X168181927Y-103138095D02*
X168181927Y-103061904D01*
X168181927Y-103061904D02*
X168162880Y-103023809D01*
X168162880Y-103023809D02*
X168143832Y-103004761D01*
X168143832Y-103004761D02*
X168105737Y-102985714D01*
X168105737Y-102985714D02*
X168010499Y-102985714D01*
X168010499Y-102985714D02*
X167972403Y-103004761D01*
X167972403Y-103004761D02*
X167953356Y-103023809D01*
X167953356Y-103023809D02*
X167934308Y-103061904D01*
X167934308Y-103061904D02*
X167934308Y-103138095D01*
X167934308Y-103138095D02*
X167953356Y-103176190D01*
X167953356Y-103176190D02*
X167972403Y-103195237D01*
X167972403Y-103195237D02*
X168010499Y-103214285D01*
D10*
X165347320Y-103895237D02*
X165347320Y-104466665D01*
X165347320Y-104180951D02*
X164347320Y-104180951D01*
X164347320Y-104180951D02*
X164490177Y-104276189D01*
X164490177Y-104276189D02*
X164585415Y-104371427D01*
X164585415Y-104371427D02*
X164633034Y-104466665D01*
X164680653Y-103038094D02*
X165347320Y-103038094D01*
X164680653Y-103466665D02*
X165204462Y-103466665D01*
X165204462Y-103466665D02*
X165299701Y-103419046D01*
X165299701Y-103419046D02*
X165347320Y-103323808D01*
X165347320Y-103323808D02*
X165347320Y-103180951D01*
X165347320Y-103180951D02*
X165299701Y-103085713D01*
X165299701Y-103085713D02*
X165252081Y-103038094D01*
X164823510Y-102228570D02*
X164823510Y-102561903D01*
X165347320Y-102561903D02*
X164347320Y-102561903D01*
X164347320Y-102561903D02*
X164347320Y-102085713D01*
D12*
X166466332Y-103366666D02*
X166485380Y-103385714D01*
X166485380Y-103385714D02*
X166504427Y-103442856D01*
X166504427Y-103442856D02*
X166504427Y-103480952D01*
X166504427Y-103480952D02*
X166485380Y-103538095D01*
X166485380Y-103538095D02*
X166447284Y-103576190D01*
X166447284Y-103576190D02*
X166409189Y-103595237D01*
X166409189Y-103595237D02*
X166332999Y-103614285D01*
X166332999Y-103614285D02*
X166275856Y-103614285D01*
X166275856Y-103614285D02*
X166199665Y-103595237D01*
X166199665Y-103595237D02*
X166161570Y-103576190D01*
X166161570Y-103576190D02*
X166123475Y-103538095D01*
X166123475Y-103538095D02*
X166104427Y-103480952D01*
X166104427Y-103480952D02*
X166104427Y-103442856D01*
X166104427Y-103442856D02*
X166123475Y-103385714D01*
X166123475Y-103385714D02*
X166142522Y-103366666D01*
X166104427Y-103004761D02*
X166104427Y-103195237D01*
X166104427Y-103195237D02*
X166294903Y-103214285D01*
X166294903Y-103214285D02*
X166275856Y-103195237D01*
X166275856Y-103195237D02*
X166256808Y-103157142D01*
X166256808Y-103157142D02*
X166256808Y-103061904D01*
X166256808Y-103061904D02*
X166275856Y-103023809D01*
X166275856Y-103023809D02*
X166294903Y-103004761D01*
X166294903Y-103004761D02*
X166332999Y-102985714D01*
X166332999Y-102985714D02*
X166428237Y-102985714D01*
X166428237Y-102985714D02*
X166466332Y-103004761D01*
X166466332Y-103004761D02*
X166485380Y-103023809D01*
X166485380Y-103023809D02*
X166504427Y-103061904D01*
X166504427Y-103061904D02*
X166504427Y-103157142D01*
X166504427Y-103157142D02*
X166485380Y-103195237D01*
X166485380Y-103195237D02*
X166466332Y-103214285D01*
D10*
X159774820Y-87147618D02*
X159774820Y-87719046D01*
X159774820Y-87433332D02*
X158774820Y-87433332D01*
X158774820Y-87433332D02*
X158917677Y-87528570D01*
X158917677Y-87528570D02*
X159012915Y-87623808D01*
X159012915Y-87623808D02*
X159060534Y-87719046D01*
X158774820Y-86528570D02*
X158774820Y-86433332D01*
X158774820Y-86433332D02*
X158822439Y-86338094D01*
X158822439Y-86338094D02*
X158870058Y-86290475D01*
X158870058Y-86290475D02*
X158965296Y-86242856D01*
X158965296Y-86242856D02*
X159155772Y-86195237D01*
X159155772Y-86195237D02*
X159393867Y-86195237D01*
X159393867Y-86195237D02*
X159584343Y-86242856D01*
X159584343Y-86242856D02*
X159679581Y-86290475D01*
X159679581Y-86290475D02*
X159727201Y-86338094D01*
X159727201Y-86338094D02*
X159774820Y-86433332D01*
X159774820Y-86433332D02*
X159774820Y-86528570D01*
X159774820Y-86528570D02*
X159727201Y-86623808D01*
X159727201Y-86623808D02*
X159679581Y-86671427D01*
X159679581Y-86671427D02*
X159584343Y-86719046D01*
X159584343Y-86719046D02*
X159393867Y-86766665D01*
X159393867Y-86766665D02*
X159155772Y-86766665D01*
X159155772Y-86766665D02*
X158965296Y-86719046D01*
X158965296Y-86719046D02*
X158870058Y-86671427D01*
X158870058Y-86671427D02*
X158822439Y-86623808D01*
X158822439Y-86623808D02*
X158774820Y-86528570D01*
X158774820Y-85576189D02*
X158774820Y-85480951D01*
X158774820Y-85480951D02*
X158822439Y-85385713D01*
X158822439Y-85385713D02*
X158870058Y-85338094D01*
X158870058Y-85338094D02*
X158965296Y-85290475D01*
X158965296Y-85290475D02*
X159155772Y-85242856D01*
X159155772Y-85242856D02*
X159393867Y-85242856D01*
X159393867Y-85242856D02*
X159584343Y-85290475D01*
X159584343Y-85290475D02*
X159679581Y-85338094D01*
X159679581Y-85338094D02*
X159727201Y-85385713D01*
X159727201Y-85385713D02*
X159774820Y-85480951D01*
X159774820Y-85480951D02*
X159774820Y-85576189D01*
X159774820Y-85576189D02*
X159727201Y-85671427D01*
X159727201Y-85671427D02*
X159679581Y-85719046D01*
X159679581Y-85719046D02*
X159584343Y-85766665D01*
X159584343Y-85766665D02*
X159393867Y-85814284D01*
X159393867Y-85814284D02*
X159155772Y-85814284D01*
X159155772Y-85814284D02*
X158965296Y-85766665D01*
X158965296Y-85766665D02*
X158870058Y-85719046D01*
X158870058Y-85719046D02*
X158822439Y-85671427D01*
X158822439Y-85671427D02*
X158774820Y-85576189D01*
X159108153Y-84814284D02*
X159774820Y-84814284D01*
X159203391Y-84814284D02*
X159155772Y-84766665D01*
X159155772Y-84766665D02*
X159108153Y-84671427D01*
X159108153Y-84671427D02*
X159108153Y-84528570D01*
X159108153Y-84528570D02*
X159155772Y-84433332D01*
X159155772Y-84433332D02*
X159251010Y-84385713D01*
X159251010Y-84385713D02*
X159774820Y-84385713D01*
X159251010Y-83576189D02*
X159251010Y-83909522D01*
X159774820Y-83909522D02*
X158774820Y-83909522D01*
X158774820Y-83909522D02*
X158774820Y-83433332D01*
D12*
X160893832Y-85666666D02*
X160912880Y-85685714D01*
X160912880Y-85685714D02*
X160931927Y-85742856D01*
X160931927Y-85742856D02*
X160931927Y-85780952D01*
X160931927Y-85780952D02*
X160912880Y-85838095D01*
X160912880Y-85838095D02*
X160874784Y-85876190D01*
X160874784Y-85876190D02*
X160836689Y-85895237D01*
X160836689Y-85895237D02*
X160760499Y-85914285D01*
X160760499Y-85914285D02*
X160703356Y-85914285D01*
X160703356Y-85914285D02*
X160627165Y-85895237D01*
X160627165Y-85895237D02*
X160589070Y-85876190D01*
X160589070Y-85876190D02*
X160550975Y-85838095D01*
X160550975Y-85838095D02*
X160531927Y-85780952D01*
X160531927Y-85780952D02*
X160531927Y-85742856D01*
X160531927Y-85742856D02*
X160550975Y-85685714D01*
X160550975Y-85685714D02*
X160570022Y-85666666D01*
X160665260Y-85323809D02*
X160931927Y-85323809D01*
X160512880Y-85419047D02*
X160798594Y-85514285D01*
X160798594Y-85514285D02*
X160798594Y-85266666D01*
D10*
X161524820Y-87147618D02*
X161524820Y-87719046D01*
X161524820Y-87433332D02*
X160524820Y-87433332D01*
X160524820Y-87433332D02*
X160667677Y-87528570D01*
X160667677Y-87528570D02*
X160762915Y-87623808D01*
X160762915Y-87623808D02*
X160810534Y-87719046D01*
X160524820Y-86528570D02*
X160524820Y-86433332D01*
X160524820Y-86433332D02*
X160572439Y-86338094D01*
X160572439Y-86338094D02*
X160620058Y-86290475D01*
X160620058Y-86290475D02*
X160715296Y-86242856D01*
X160715296Y-86242856D02*
X160905772Y-86195237D01*
X160905772Y-86195237D02*
X161143867Y-86195237D01*
X161143867Y-86195237D02*
X161334343Y-86242856D01*
X161334343Y-86242856D02*
X161429581Y-86290475D01*
X161429581Y-86290475D02*
X161477201Y-86338094D01*
X161477201Y-86338094D02*
X161524820Y-86433332D01*
X161524820Y-86433332D02*
X161524820Y-86528570D01*
X161524820Y-86528570D02*
X161477201Y-86623808D01*
X161477201Y-86623808D02*
X161429581Y-86671427D01*
X161429581Y-86671427D02*
X161334343Y-86719046D01*
X161334343Y-86719046D02*
X161143867Y-86766665D01*
X161143867Y-86766665D02*
X160905772Y-86766665D01*
X160905772Y-86766665D02*
X160715296Y-86719046D01*
X160715296Y-86719046D02*
X160620058Y-86671427D01*
X160620058Y-86671427D02*
X160572439Y-86623808D01*
X160572439Y-86623808D02*
X160524820Y-86528570D01*
X160524820Y-85576189D02*
X160524820Y-85480951D01*
X160524820Y-85480951D02*
X160572439Y-85385713D01*
X160572439Y-85385713D02*
X160620058Y-85338094D01*
X160620058Y-85338094D02*
X160715296Y-85290475D01*
X160715296Y-85290475D02*
X160905772Y-85242856D01*
X160905772Y-85242856D02*
X161143867Y-85242856D01*
X161143867Y-85242856D02*
X161334343Y-85290475D01*
X161334343Y-85290475D02*
X161429581Y-85338094D01*
X161429581Y-85338094D02*
X161477201Y-85385713D01*
X161477201Y-85385713D02*
X161524820Y-85480951D01*
X161524820Y-85480951D02*
X161524820Y-85576189D01*
X161524820Y-85576189D02*
X161477201Y-85671427D01*
X161477201Y-85671427D02*
X161429581Y-85719046D01*
X161429581Y-85719046D02*
X161334343Y-85766665D01*
X161334343Y-85766665D02*
X161143867Y-85814284D01*
X161143867Y-85814284D02*
X160905772Y-85814284D01*
X160905772Y-85814284D02*
X160715296Y-85766665D01*
X160715296Y-85766665D02*
X160620058Y-85719046D01*
X160620058Y-85719046D02*
X160572439Y-85671427D01*
X160572439Y-85671427D02*
X160524820Y-85576189D01*
X160858153Y-84814284D02*
X161524820Y-84814284D01*
X160953391Y-84814284D02*
X160905772Y-84766665D01*
X160905772Y-84766665D02*
X160858153Y-84671427D01*
X160858153Y-84671427D02*
X160858153Y-84528570D01*
X160858153Y-84528570D02*
X160905772Y-84433332D01*
X160905772Y-84433332D02*
X161001010Y-84385713D01*
X161001010Y-84385713D02*
X161524820Y-84385713D01*
X161001010Y-83576189D02*
X161001010Y-83909522D01*
X161524820Y-83909522D02*
X160524820Y-83909522D01*
X160524820Y-83909522D02*
X160524820Y-83433332D01*
D12*
X162643832Y-85666666D02*
X162662880Y-85685714D01*
X162662880Y-85685714D02*
X162681927Y-85742856D01*
X162681927Y-85742856D02*
X162681927Y-85780952D01*
X162681927Y-85780952D02*
X162662880Y-85838095D01*
X162662880Y-85838095D02*
X162624784Y-85876190D01*
X162624784Y-85876190D02*
X162586689Y-85895237D01*
X162586689Y-85895237D02*
X162510499Y-85914285D01*
X162510499Y-85914285D02*
X162453356Y-85914285D01*
X162453356Y-85914285D02*
X162377165Y-85895237D01*
X162377165Y-85895237D02*
X162339070Y-85876190D01*
X162339070Y-85876190D02*
X162300975Y-85838095D01*
X162300975Y-85838095D02*
X162281927Y-85780952D01*
X162281927Y-85780952D02*
X162281927Y-85742856D01*
X162281927Y-85742856D02*
X162300975Y-85685714D01*
X162300975Y-85685714D02*
X162320022Y-85666666D01*
X162281927Y-85533333D02*
X162281927Y-85285714D01*
X162281927Y-85285714D02*
X162434308Y-85419047D01*
X162434308Y-85419047D02*
X162434308Y-85361904D01*
X162434308Y-85361904D02*
X162453356Y-85323809D01*
X162453356Y-85323809D02*
X162472403Y-85304761D01*
X162472403Y-85304761D02*
X162510499Y-85285714D01*
X162510499Y-85285714D02*
X162605737Y-85285714D01*
X162605737Y-85285714D02*
X162643832Y-85304761D01*
X162643832Y-85304761D02*
X162662880Y-85323809D01*
X162662880Y-85323809D02*
X162681927Y-85361904D01*
X162681927Y-85361904D02*
X162681927Y-85476190D01*
X162681927Y-85476190D02*
X162662880Y-85514285D01*
X162662880Y-85514285D02*
X162643832Y-85533333D01*
D10*
X157170058Y-87242855D02*
X157122439Y-87195236D01*
X157122439Y-87195236D02*
X157074820Y-87099998D01*
X157074820Y-87099998D02*
X157074820Y-86861903D01*
X157074820Y-86861903D02*
X157122439Y-86766665D01*
X157122439Y-86766665D02*
X157170058Y-86719046D01*
X157170058Y-86719046D02*
X157265296Y-86671427D01*
X157265296Y-86671427D02*
X157360534Y-86671427D01*
X157360534Y-86671427D02*
X157503391Y-86719046D01*
X157503391Y-86719046D02*
X158074820Y-87290474D01*
X158074820Y-87290474D02*
X158074820Y-86671427D01*
X157408153Y-85814284D02*
X158074820Y-85814284D01*
X157408153Y-86242855D02*
X157931962Y-86242855D01*
X157931962Y-86242855D02*
X158027201Y-86195236D01*
X158027201Y-86195236D02*
X158074820Y-86099998D01*
X158074820Y-86099998D02*
X158074820Y-85957141D01*
X158074820Y-85957141D02*
X158027201Y-85861903D01*
X158027201Y-85861903D02*
X157979581Y-85814284D01*
X157170058Y-85385712D02*
X157122439Y-85338093D01*
X157122439Y-85338093D02*
X157074820Y-85242855D01*
X157074820Y-85242855D02*
X157074820Y-85004760D01*
X157074820Y-85004760D02*
X157122439Y-84909522D01*
X157122439Y-84909522D02*
X157170058Y-84861903D01*
X157170058Y-84861903D02*
X157265296Y-84814284D01*
X157265296Y-84814284D02*
X157360534Y-84814284D01*
X157360534Y-84814284D02*
X157503391Y-84861903D01*
X157503391Y-84861903D02*
X158074820Y-85433331D01*
X158074820Y-85433331D02*
X158074820Y-84814284D01*
X157551010Y-84052379D02*
X157551010Y-84385712D01*
X158074820Y-84385712D02*
X157074820Y-84385712D01*
X157074820Y-84385712D02*
X157074820Y-83909522D01*
D12*
X159193832Y-85666666D02*
X159212880Y-85685714D01*
X159212880Y-85685714D02*
X159231927Y-85742856D01*
X159231927Y-85742856D02*
X159231927Y-85780952D01*
X159231927Y-85780952D02*
X159212880Y-85838095D01*
X159212880Y-85838095D02*
X159174784Y-85876190D01*
X159174784Y-85876190D02*
X159136689Y-85895237D01*
X159136689Y-85895237D02*
X159060499Y-85914285D01*
X159060499Y-85914285D02*
X159003356Y-85914285D01*
X159003356Y-85914285D02*
X158927165Y-85895237D01*
X158927165Y-85895237D02*
X158889070Y-85876190D01*
X158889070Y-85876190D02*
X158850975Y-85838095D01*
X158850975Y-85838095D02*
X158831927Y-85780952D01*
X158831927Y-85780952D02*
X158831927Y-85742856D01*
X158831927Y-85742856D02*
X158850975Y-85685714D01*
X158850975Y-85685714D02*
X158870022Y-85666666D01*
X158870022Y-85514285D02*
X158850975Y-85495237D01*
X158850975Y-85495237D02*
X158831927Y-85457142D01*
X158831927Y-85457142D02*
X158831927Y-85361904D01*
X158831927Y-85361904D02*
X158850975Y-85323809D01*
X158850975Y-85323809D02*
X158870022Y-85304761D01*
X158870022Y-85304761D02*
X158908118Y-85285714D01*
X158908118Y-85285714D02*
X158946213Y-85285714D01*
X158946213Y-85285714D02*
X159003356Y-85304761D01*
X159003356Y-85304761D02*
X159231927Y-85533333D01*
X159231927Y-85533333D02*
X159231927Y-85285714D01*
D10*
X166654820Y-102314284D02*
X166654820Y-102885712D01*
X166654820Y-102599998D02*
X165654820Y-102599998D01*
X165654820Y-102599998D02*
X165797677Y-102695236D01*
X165797677Y-102695236D02*
X165892915Y-102790474D01*
X165892915Y-102790474D02*
X165940534Y-102885712D01*
X166654820Y-101885712D02*
X165654820Y-101885712D01*
X166654820Y-101314284D02*
X166083391Y-101742855D01*
X165654820Y-101314284D02*
X166226248Y-101885712D01*
D11*
X164777150Y-102183333D02*
X164539055Y-102349999D01*
X164777150Y-102469047D02*
X164277150Y-102469047D01*
X164277150Y-102469047D02*
X164277150Y-102278571D01*
X164277150Y-102278571D02*
X164300960Y-102230952D01*
X164300960Y-102230952D02*
X164324769Y-102207142D01*
X164324769Y-102207142D02*
X164372388Y-102183333D01*
X164372388Y-102183333D02*
X164443817Y-102183333D01*
X164443817Y-102183333D02*
X164491436Y-102207142D01*
X164491436Y-102207142D02*
X164515245Y-102230952D01*
X164515245Y-102230952D02*
X164539055Y-102278571D01*
X164539055Y-102278571D02*
X164539055Y-102469047D01*
X164324769Y-101992856D02*
X164300960Y-101969047D01*
X164300960Y-101969047D02*
X164277150Y-101921428D01*
X164277150Y-101921428D02*
X164277150Y-101802380D01*
X164277150Y-101802380D02*
X164300960Y-101754761D01*
X164300960Y-101754761D02*
X164324769Y-101730952D01*
X164324769Y-101730952D02*
X164372388Y-101707142D01*
X164372388Y-101707142D02*
X164420007Y-101707142D01*
X164420007Y-101707142D02*
X164491436Y-101730952D01*
X164491436Y-101730952D02*
X164777150Y-102016666D01*
X164777150Y-102016666D02*
X164777150Y-101707142D01*
X159777149Y-78219047D02*
X159277149Y-78219047D01*
X159277149Y-78219047D02*
X159277149Y-78099999D01*
X159277149Y-78099999D02*
X159300959Y-78028571D01*
X159300959Y-78028571D02*
X159348578Y-77980952D01*
X159348578Y-77980952D02*
X159396197Y-77957142D01*
X159396197Y-77957142D02*
X159491435Y-77933333D01*
X159491435Y-77933333D02*
X159562863Y-77933333D01*
X159562863Y-77933333D02*
X159658101Y-77957142D01*
X159658101Y-77957142D02*
X159705720Y-77980952D01*
X159705720Y-77980952D02*
X159753340Y-78028571D01*
X159753340Y-78028571D02*
X159777149Y-78099999D01*
X159777149Y-78099999D02*
X159777149Y-78219047D01*
X159277149Y-77766666D02*
X159277149Y-77457142D01*
X159277149Y-77457142D02*
X159467625Y-77623809D01*
X159467625Y-77623809D02*
X159467625Y-77552380D01*
X159467625Y-77552380D02*
X159491435Y-77504761D01*
X159491435Y-77504761D02*
X159515244Y-77480952D01*
X159515244Y-77480952D02*
X159562863Y-77457142D01*
X159562863Y-77457142D02*
X159681911Y-77457142D01*
X159681911Y-77457142D02*
X159729530Y-77480952D01*
X159729530Y-77480952D02*
X159753340Y-77504761D01*
X159753340Y-77504761D02*
X159777149Y-77552380D01*
X159777149Y-77552380D02*
X159777149Y-77695237D01*
X159777149Y-77695237D02*
X159753340Y-77742856D01*
X159753340Y-77742856D02*
X159729530Y-77766666D01*
D12*
X169093832Y-81157142D02*
X169112880Y-81176190D01*
X169112880Y-81176190D02*
X169131927Y-81233332D01*
X169131927Y-81233332D02*
X169131927Y-81271428D01*
X169131927Y-81271428D02*
X169112880Y-81328571D01*
X169112880Y-81328571D02*
X169074784Y-81366666D01*
X169074784Y-81366666D02*
X169036689Y-81385713D01*
X169036689Y-81385713D02*
X168960499Y-81404761D01*
X168960499Y-81404761D02*
X168903356Y-81404761D01*
X168903356Y-81404761D02*
X168827165Y-81385713D01*
X168827165Y-81385713D02*
X168789070Y-81366666D01*
X168789070Y-81366666D02*
X168750975Y-81328571D01*
X168750975Y-81328571D02*
X168731927Y-81271428D01*
X168731927Y-81271428D02*
X168731927Y-81233332D01*
X168731927Y-81233332D02*
X168750975Y-81176190D01*
X168750975Y-81176190D02*
X168770022Y-81157142D01*
X169131927Y-80776190D02*
X169131927Y-81004761D01*
X169131927Y-80890475D02*
X168731927Y-80890475D01*
X168731927Y-80890475D02*
X168789070Y-80928571D01*
X168789070Y-80928571D02*
X168827165Y-80966666D01*
X168827165Y-80966666D02*
X168846213Y-81004761D01*
X168903356Y-80547619D02*
X168884308Y-80585714D01*
X168884308Y-80585714D02*
X168865260Y-80604761D01*
X168865260Y-80604761D02*
X168827165Y-80623809D01*
X168827165Y-80623809D02*
X168808118Y-80623809D01*
X168808118Y-80623809D02*
X168770022Y-80604761D01*
X168770022Y-80604761D02*
X168750975Y-80585714D01*
X168750975Y-80585714D02*
X168731927Y-80547619D01*
X168731927Y-80547619D02*
X168731927Y-80471428D01*
X168731927Y-80471428D02*
X168750975Y-80433333D01*
X168750975Y-80433333D02*
X168770022Y-80414285D01*
X168770022Y-80414285D02*
X168808118Y-80395238D01*
X168808118Y-80395238D02*
X168827165Y-80395238D01*
X168827165Y-80395238D02*
X168865260Y-80414285D01*
X168865260Y-80414285D02*
X168884308Y-80433333D01*
X168884308Y-80433333D02*
X168903356Y-80471428D01*
X168903356Y-80471428D02*
X168903356Y-80547619D01*
X168903356Y-80547619D02*
X168922403Y-80585714D01*
X168922403Y-80585714D02*
X168941451Y-80604761D01*
X168941451Y-80604761D02*
X168979546Y-80623809D01*
X168979546Y-80623809D02*
X169055737Y-80623809D01*
X169055737Y-80623809D02*
X169093832Y-80604761D01*
X169093832Y-80604761D02*
X169112880Y-80585714D01*
X169112880Y-80585714D02*
X169131927Y-80547619D01*
X169131927Y-80547619D02*
X169131927Y-80471428D01*
X169131927Y-80471428D02*
X169112880Y-80433333D01*
X169112880Y-80433333D02*
X169093832Y-80414285D01*
X169093832Y-80414285D02*
X169055737Y-80395238D01*
X169055737Y-80395238D02*
X168979546Y-80395238D01*
X168979546Y-80395238D02*
X168941451Y-80414285D01*
X168941451Y-80414285D02*
X168922403Y-80433333D01*
X168922403Y-80433333D02*
X168903356Y-80471428D01*
D11*
X147328571Y-89927149D02*
X147161905Y-89689054D01*
X147042857Y-89927149D02*
X147042857Y-89427149D01*
X147042857Y-89427149D02*
X147233333Y-89427149D01*
X147233333Y-89427149D02*
X147280952Y-89450959D01*
X147280952Y-89450959D02*
X147304762Y-89474768D01*
X147304762Y-89474768D02*
X147328571Y-89522387D01*
X147328571Y-89522387D02*
X147328571Y-89593816D01*
X147328571Y-89593816D02*
X147304762Y-89641435D01*
X147304762Y-89641435D02*
X147280952Y-89665244D01*
X147280952Y-89665244D02*
X147233333Y-89689054D01*
X147233333Y-89689054D02*
X147042857Y-89689054D01*
X147519048Y-89474768D02*
X147542857Y-89450959D01*
X147542857Y-89450959D02*
X147590476Y-89427149D01*
X147590476Y-89427149D02*
X147709524Y-89427149D01*
X147709524Y-89427149D02*
X147757143Y-89450959D01*
X147757143Y-89450959D02*
X147780952Y-89474768D01*
X147780952Y-89474768D02*
X147804762Y-89522387D01*
X147804762Y-89522387D02*
X147804762Y-89570006D01*
X147804762Y-89570006D02*
X147780952Y-89641435D01*
X147780952Y-89641435D02*
X147495238Y-89927149D01*
X147495238Y-89927149D02*
X147804762Y-89927149D01*
X147971428Y-89427149D02*
X148280952Y-89427149D01*
X148280952Y-89427149D02*
X148114285Y-89617625D01*
X148114285Y-89617625D02*
X148185714Y-89617625D01*
X148185714Y-89617625D02*
X148233333Y-89641435D01*
X148233333Y-89641435D02*
X148257142Y-89665244D01*
X148257142Y-89665244D02*
X148280952Y-89712863D01*
X148280952Y-89712863D02*
X148280952Y-89831911D01*
X148280952Y-89831911D02*
X148257142Y-89879530D01*
X148257142Y-89879530D02*
X148233333Y-89903340D01*
X148233333Y-89903340D02*
X148185714Y-89927149D01*
X148185714Y-89927149D02*
X148042857Y-89927149D01*
X148042857Y-89927149D02*
X147995238Y-89903340D01*
X147995238Y-89903340D02*
X147971428Y-89879530D01*
X147378571Y-94027149D02*
X147211905Y-93789054D01*
X147092857Y-94027149D02*
X147092857Y-93527149D01*
X147092857Y-93527149D02*
X147283333Y-93527149D01*
X147283333Y-93527149D02*
X147330952Y-93550959D01*
X147330952Y-93550959D02*
X147354762Y-93574768D01*
X147354762Y-93574768D02*
X147378571Y-93622387D01*
X147378571Y-93622387D02*
X147378571Y-93693816D01*
X147378571Y-93693816D02*
X147354762Y-93741435D01*
X147354762Y-93741435D02*
X147330952Y-93765244D01*
X147330952Y-93765244D02*
X147283333Y-93789054D01*
X147283333Y-93789054D02*
X147092857Y-93789054D01*
X147569048Y-93574768D02*
X147592857Y-93550959D01*
X147592857Y-93550959D02*
X147640476Y-93527149D01*
X147640476Y-93527149D02*
X147759524Y-93527149D01*
X147759524Y-93527149D02*
X147807143Y-93550959D01*
X147807143Y-93550959D02*
X147830952Y-93574768D01*
X147830952Y-93574768D02*
X147854762Y-93622387D01*
X147854762Y-93622387D02*
X147854762Y-93670006D01*
X147854762Y-93670006D02*
X147830952Y-93741435D01*
X147830952Y-93741435D02*
X147545238Y-94027149D01*
X147545238Y-94027149D02*
X147854762Y-94027149D01*
X148307142Y-93527149D02*
X148069047Y-93527149D01*
X148069047Y-93527149D02*
X148045238Y-93765244D01*
X148045238Y-93765244D02*
X148069047Y-93741435D01*
X148069047Y-93741435D02*
X148116666Y-93717625D01*
X148116666Y-93717625D02*
X148235714Y-93717625D01*
X148235714Y-93717625D02*
X148283333Y-93741435D01*
X148283333Y-93741435D02*
X148307142Y-93765244D01*
X148307142Y-93765244D02*
X148330952Y-93812863D01*
X148330952Y-93812863D02*
X148330952Y-93931911D01*
X148330952Y-93931911D02*
X148307142Y-93979530D01*
X148307142Y-93979530D02*
X148283333Y-94003340D01*
X148283333Y-94003340D02*
X148235714Y-94027149D01*
X148235714Y-94027149D02*
X148116666Y-94027149D01*
X148116666Y-94027149D02*
X148069047Y-94003340D01*
X148069047Y-94003340D02*
X148045238Y-93979530D01*
D12*
X157693832Y-78307142D02*
X157712880Y-78326190D01*
X157712880Y-78326190D02*
X157731927Y-78383332D01*
X157731927Y-78383332D02*
X157731927Y-78421428D01*
X157731927Y-78421428D02*
X157712880Y-78478571D01*
X157712880Y-78478571D02*
X157674784Y-78516666D01*
X157674784Y-78516666D02*
X157636689Y-78535713D01*
X157636689Y-78535713D02*
X157560499Y-78554761D01*
X157560499Y-78554761D02*
X157503356Y-78554761D01*
X157503356Y-78554761D02*
X157427165Y-78535713D01*
X157427165Y-78535713D02*
X157389070Y-78516666D01*
X157389070Y-78516666D02*
X157350975Y-78478571D01*
X157350975Y-78478571D02*
X157331927Y-78421428D01*
X157331927Y-78421428D02*
X157331927Y-78383332D01*
X157331927Y-78383332D02*
X157350975Y-78326190D01*
X157350975Y-78326190D02*
X157370022Y-78307142D01*
X157731927Y-77926190D02*
X157731927Y-78154761D01*
X157731927Y-78040475D02*
X157331927Y-78040475D01*
X157331927Y-78040475D02*
X157389070Y-78078571D01*
X157389070Y-78078571D02*
X157427165Y-78116666D01*
X157427165Y-78116666D02*
X157446213Y-78154761D01*
X157331927Y-77792857D02*
X157331927Y-77526190D01*
X157331927Y-77526190D02*
X157731927Y-77697619D01*
D10*
X138516672Y-79307200D02*
X138659529Y-79354819D01*
X138659529Y-79354819D02*
X138897624Y-79354819D01*
X138897624Y-79354819D02*
X138992862Y-79307200D01*
X138992862Y-79307200D02*
X139040481Y-79259580D01*
X139040481Y-79259580D02*
X139088100Y-79164342D01*
X139088100Y-79164342D02*
X139088100Y-79069104D01*
X139088100Y-79069104D02*
X139040481Y-78973866D01*
X139040481Y-78973866D02*
X138992862Y-78926247D01*
X138992862Y-78926247D02*
X138897624Y-78878628D01*
X138897624Y-78878628D02*
X138707148Y-78831009D01*
X138707148Y-78831009D02*
X138611910Y-78783390D01*
X138611910Y-78783390D02*
X138564291Y-78735771D01*
X138564291Y-78735771D02*
X138516672Y-78640533D01*
X138516672Y-78640533D02*
X138516672Y-78545295D01*
X138516672Y-78545295D02*
X138564291Y-78450057D01*
X138564291Y-78450057D02*
X138611910Y-78402438D01*
X138611910Y-78402438D02*
X138707148Y-78354819D01*
X138707148Y-78354819D02*
X138945243Y-78354819D01*
X138945243Y-78354819D02*
X139088100Y-78402438D01*
X139421434Y-78354819D02*
X139659529Y-79354819D01*
X139659529Y-79354819D02*
X139850005Y-78640533D01*
X139850005Y-78640533D02*
X140040481Y-79354819D01*
X140040481Y-79354819D02*
X140278577Y-78354819D01*
X140611910Y-78450057D02*
X140659529Y-78402438D01*
X140659529Y-78402438D02*
X140754767Y-78354819D01*
X140754767Y-78354819D02*
X140992862Y-78354819D01*
X140992862Y-78354819D02*
X141088100Y-78402438D01*
X141088100Y-78402438D02*
X141135719Y-78450057D01*
X141135719Y-78450057D02*
X141183338Y-78545295D01*
X141183338Y-78545295D02*
X141183338Y-78640533D01*
X141183338Y-78640533D02*
X141135719Y-78783390D01*
X141135719Y-78783390D02*
X140564291Y-79354819D01*
X140564291Y-79354819D02*
X141183338Y-79354819D01*
D12*
X161143833Y-102216666D02*
X161162881Y-102235714D01*
X161162881Y-102235714D02*
X161181928Y-102292856D01*
X161181928Y-102292856D02*
X161181928Y-102330952D01*
X161181928Y-102330952D02*
X161162881Y-102388095D01*
X161162881Y-102388095D02*
X161124785Y-102426190D01*
X161124785Y-102426190D02*
X161086690Y-102445237D01*
X161086690Y-102445237D02*
X161010500Y-102464285D01*
X161010500Y-102464285D02*
X160953357Y-102464285D01*
X160953357Y-102464285D02*
X160877166Y-102445237D01*
X160877166Y-102445237D02*
X160839071Y-102426190D01*
X160839071Y-102426190D02*
X160800976Y-102388095D01*
X160800976Y-102388095D02*
X160781928Y-102330952D01*
X160781928Y-102330952D02*
X160781928Y-102292856D01*
X160781928Y-102292856D02*
X160800976Y-102235714D01*
X160800976Y-102235714D02*
X160820023Y-102216666D01*
X161181928Y-101835714D02*
X161181928Y-102064285D01*
X161181928Y-101949999D02*
X160781928Y-101949999D01*
X160781928Y-101949999D02*
X160839071Y-101988095D01*
X160839071Y-101988095D02*
X160877166Y-102026190D01*
X160877166Y-102026190D02*
X160896214Y-102064285D01*
D11*
X167716663Y-95477147D02*
X167549997Y-95239052D01*
X167430949Y-95477147D02*
X167430949Y-94977147D01*
X167430949Y-94977147D02*
X167621425Y-94977147D01*
X167621425Y-94977147D02*
X167669044Y-95000957D01*
X167669044Y-95000957D02*
X167692854Y-95024766D01*
X167692854Y-95024766D02*
X167716663Y-95072385D01*
X167716663Y-95072385D02*
X167716663Y-95143814D01*
X167716663Y-95143814D02*
X167692854Y-95191433D01*
X167692854Y-95191433D02*
X167669044Y-95215242D01*
X167669044Y-95215242D02*
X167621425Y-95239052D01*
X167621425Y-95239052D02*
X167430949Y-95239052D01*
X168192854Y-95477147D02*
X167907140Y-95477147D01*
X168049997Y-95477147D02*
X168049997Y-94977147D01*
X168049997Y-94977147D02*
X168002378Y-95048576D01*
X168002378Y-95048576D02*
X167954759Y-95096195D01*
X167954759Y-95096195D02*
X167907140Y-95120004D01*
D10*
X151938095Y-82354819D02*
X151938095Y-83164342D01*
X151938095Y-83164342D02*
X151985714Y-83259580D01*
X151985714Y-83259580D02*
X152033333Y-83307200D01*
X152033333Y-83307200D02*
X152128571Y-83354819D01*
X152128571Y-83354819D02*
X152319047Y-83354819D01*
X152319047Y-83354819D02*
X152414285Y-83307200D01*
X152414285Y-83307200D02*
X152461904Y-83259580D01*
X152461904Y-83259580D02*
X152509523Y-83164342D01*
X152509523Y-83164342D02*
X152509523Y-82354819D01*
X153414285Y-82688152D02*
X153414285Y-83354819D01*
X153176190Y-82307200D02*
X152938095Y-83021485D01*
X152938095Y-83021485D02*
X153557142Y-83021485D01*
D13*
X163790476Y-78763855D02*
X163790476Y-79411474D01*
X163790476Y-79411474D02*
X163828571Y-79487664D01*
X163828571Y-79487664D02*
X163866666Y-79525760D01*
X163866666Y-79525760D02*
X163942857Y-79563855D01*
X163942857Y-79563855D02*
X164095238Y-79563855D01*
X164095238Y-79563855D02*
X164171428Y-79525760D01*
X164171428Y-79525760D02*
X164209523Y-79487664D01*
X164209523Y-79487664D02*
X164247619Y-79411474D01*
X164247619Y-79411474D02*
X164247619Y-78763855D01*
X164971428Y-78763855D02*
X164819047Y-78763855D01*
X164819047Y-78763855D02*
X164742856Y-78801950D01*
X164742856Y-78801950D02*
X164704761Y-78840045D01*
X164704761Y-78840045D02*
X164628571Y-78954331D01*
X164628571Y-78954331D02*
X164590475Y-79106712D01*
X164590475Y-79106712D02*
X164590475Y-79411474D01*
X164590475Y-79411474D02*
X164628571Y-79487664D01*
X164628571Y-79487664D02*
X164666666Y-79525760D01*
X164666666Y-79525760D02*
X164742856Y-79563855D01*
X164742856Y-79563855D02*
X164895237Y-79563855D01*
X164895237Y-79563855D02*
X164971428Y-79525760D01*
X164971428Y-79525760D02*
X165009523Y-79487664D01*
X165009523Y-79487664D02*
X165047618Y-79411474D01*
X165047618Y-79411474D02*
X165047618Y-79220998D01*
X165047618Y-79220998D02*
X165009523Y-79144807D01*
X165009523Y-79144807D02*
X164971428Y-79106712D01*
X164971428Y-79106712D02*
X164895237Y-79068617D01*
X164895237Y-79068617D02*
X164742856Y-79068617D01*
X164742856Y-79068617D02*
X164666666Y-79106712D01*
X164666666Y-79106712D02*
X164628571Y-79144807D01*
X164628571Y-79144807D02*
X164590475Y-79220998D01*
D12*
X153793833Y-78294643D02*
X153812881Y-78313691D01*
X153812881Y-78313691D02*
X153831928Y-78370833D01*
X153831928Y-78370833D02*
X153831928Y-78408929D01*
X153831928Y-78408929D02*
X153812881Y-78466072D01*
X153812881Y-78466072D02*
X153774785Y-78504167D01*
X153774785Y-78504167D02*
X153736690Y-78523214D01*
X153736690Y-78523214D02*
X153660500Y-78542262D01*
X153660500Y-78542262D02*
X153603357Y-78542262D01*
X153603357Y-78542262D02*
X153527166Y-78523214D01*
X153527166Y-78523214D02*
X153489071Y-78504167D01*
X153489071Y-78504167D02*
X153450976Y-78466072D01*
X153450976Y-78466072D02*
X153431928Y-78408929D01*
X153431928Y-78408929D02*
X153431928Y-78370833D01*
X153431928Y-78370833D02*
X153450976Y-78313691D01*
X153450976Y-78313691D02*
X153470023Y-78294643D01*
X153831928Y-77913691D02*
X153831928Y-78142262D01*
X153831928Y-78027976D02*
X153431928Y-78027976D01*
X153431928Y-78027976D02*
X153489071Y-78066072D01*
X153489071Y-78066072D02*
X153527166Y-78104167D01*
X153527166Y-78104167D02*
X153546214Y-78142262D01*
X153431928Y-77570834D02*
X153431928Y-77647024D01*
X153431928Y-77647024D02*
X153450976Y-77685120D01*
X153450976Y-77685120D02*
X153470023Y-77704167D01*
X153470023Y-77704167D02*
X153527166Y-77742262D01*
X153527166Y-77742262D02*
X153603357Y-77761310D01*
X153603357Y-77761310D02*
X153755738Y-77761310D01*
X153755738Y-77761310D02*
X153793833Y-77742262D01*
X153793833Y-77742262D02*
X153812881Y-77723215D01*
X153812881Y-77723215D02*
X153831928Y-77685120D01*
X153831928Y-77685120D02*
X153831928Y-77608929D01*
X153831928Y-77608929D02*
X153812881Y-77570834D01*
X153812881Y-77570834D02*
X153793833Y-77551786D01*
X153793833Y-77551786D02*
X153755738Y-77532739D01*
X153755738Y-77532739D02*
X153660500Y-77532739D01*
X153660500Y-77532739D02*
X153622404Y-77551786D01*
X153622404Y-77551786D02*
X153603357Y-77570834D01*
X153603357Y-77570834D02*
X153584309Y-77608929D01*
X153584309Y-77608929D02*
X153584309Y-77685120D01*
X153584309Y-77685120D02*
X153603357Y-77723215D01*
X153603357Y-77723215D02*
X153622404Y-77742262D01*
X153622404Y-77742262D02*
X153660500Y-77761310D01*
D11*
X140378571Y-101227149D02*
X140211905Y-100989054D01*
X140092857Y-101227149D02*
X140092857Y-100727149D01*
X140092857Y-100727149D02*
X140283333Y-100727149D01*
X140283333Y-100727149D02*
X140330952Y-100750959D01*
X140330952Y-100750959D02*
X140354762Y-100774768D01*
X140354762Y-100774768D02*
X140378571Y-100822387D01*
X140378571Y-100822387D02*
X140378571Y-100893816D01*
X140378571Y-100893816D02*
X140354762Y-100941435D01*
X140354762Y-100941435D02*
X140330952Y-100965244D01*
X140330952Y-100965244D02*
X140283333Y-100989054D01*
X140283333Y-100989054D02*
X140092857Y-100989054D01*
X140854762Y-101227149D02*
X140569048Y-101227149D01*
X140711905Y-101227149D02*
X140711905Y-100727149D01*
X140711905Y-100727149D02*
X140664286Y-100798578D01*
X140664286Y-100798578D02*
X140616667Y-100846197D01*
X140616667Y-100846197D02*
X140569048Y-100870006D01*
X141021428Y-100727149D02*
X141354761Y-100727149D01*
X141354761Y-100727149D02*
X141140476Y-101227149D01*
X155777149Y-78171428D02*
X155539054Y-78338094D01*
X155777149Y-78457142D02*
X155277149Y-78457142D01*
X155277149Y-78457142D02*
X155277149Y-78266666D01*
X155277149Y-78266666D02*
X155300959Y-78219047D01*
X155300959Y-78219047D02*
X155324768Y-78195237D01*
X155324768Y-78195237D02*
X155372387Y-78171428D01*
X155372387Y-78171428D02*
X155443816Y-78171428D01*
X155443816Y-78171428D02*
X155491435Y-78195237D01*
X155491435Y-78195237D02*
X155515244Y-78219047D01*
X155515244Y-78219047D02*
X155539054Y-78266666D01*
X155539054Y-78266666D02*
X155539054Y-78457142D01*
X155324768Y-77980951D02*
X155300959Y-77957142D01*
X155300959Y-77957142D02*
X155277149Y-77909523D01*
X155277149Y-77909523D02*
X155277149Y-77790475D01*
X155277149Y-77790475D02*
X155300959Y-77742856D01*
X155300959Y-77742856D02*
X155324768Y-77719047D01*
X155324768Y-77719047D02*
X155372387Y-77695237D01*
X155372387Y-77695237D02*
X155420006Y-77695237D01*
X155420006Y-77695237D02*
X155491435Y-77719047D01*
X155491435Y-77719047D02*
X155777149Y-78004761D01*
X155777149Y-78004761D02*
X155777149Y-77695237D01*
X155324768Y-77504761D02*
X155300959Y-77480952D01*
X155300959Y-77480952D02*
X155277149Y-77433333D01*
X155277149Y-77433333D02*
X155277149Y-77314285D01*
X155277149Y-77314285D02*
X155300959Y-77266666D01*
X155300959Y-77266666D02*
X155324768Y-77242857D01*
X155324768Y-77242857D02*
X155372387Y-77219047D01*
X155372387Y-77219047D02*
X155420006Y-77219047D01*
X155420006Y-77219047D02*
X155491435Y-77242857D01*
X155491435Y-77242857D02*
X155777149Y-77528571D01*
X155777149Y-77528571D02*
X155777149Y-77219047D01*
D10*
X129338095Y-79654819D02*
X129338095Y-78654819D01*
X129338095Y-79131009D02*
X129909523Y-79131009D01*
X129909523Y-79654819D02*
X129909523Y-78654819D01*
X130814285Y-78654819D02*
X130623809Y-78654819D01*
X130623809Y-78654819D02*
X130528571Y-78702438D01*
X130528571Y-78702438D02*
X130480952Y-78750057D01*
X130480952Y-78750057D02*
X130385714Y-78892914D01*
X130385714Y-78892914D02*
X130338095Y-79083390D01*
X130338095Y-79083390D02*
X130338095Y-79464342D01*
X130338095Y-79464342D02*
X130385714Y-79559580D01*
X130385714Y-79559580D02*
X130433333Y-79607200D01*
X130433333Y-79607200D02*
X130528571Y-79654819D01*
X130528571Y-79654819D02*
X130719047Y-79654819D01*
X130719047Y-79654819D02*
X130814285Y-79607200D01*
X130814285Y-79607200D02*
X130861904Y-79559580D01*
X130861904Y-79559580D02*
X130909523Y-79464342D01*
X130909523Y-79464342D02*
X130909523Y-79226247D01*
X130909523Y-79226247D02*
X130861904Y-79131009D01*
X130861904Y-79131009D02*
X130814285Y-79083390D01*
X130814285Y-79083390D02*
X130719047Y-79035771D01*
X130719047Y-79035771D02*
X130528571Y-79035771D01*
X130528571Y-79035771D02*
X130433333Y-79083390D01*
X130433333Y-79083390D02*
X130385714Y-79131009D01*
X130385714Y-79131009D02*
X130338095Y-79226247D01*
D11*
X147378571Y-96127149D02*
X147211905Y-95889054D01*
X147092857Y-96127149D02*
X147092857Y-95627149D01*
X147092857Y-95627149D02*
X147283333Y-95627149D01*
X147283333Y-95627149D02*
X147330952Y-95650959D01*
X147330952Y-95650959D02*
X147354762Y-95674768D01*
X147354762Y-95674768D02*
X147378571Y-95722387D01*
X147378571Y-95722387D02*
X147378571Y-95793816D01*
X147378571Y-95793816D02*
X147354762Y-95841435D01*
X147354762Y-95841435D02*
X147330952Y-95865244D01*
X147330952Y-95865244D02*
X147283333Y-95889054D01*
X147283333Y-95889054D02*
X147092857Y-95889054D01*
X147569048Y-95674768D02*
X147592857Y-95650959D01*
X147592857Y-95650959D02*
X147640476Y-95627149D01*
X147640476Y-95627149D02*
X147759524Y-95627149D01*
X147759524Y-95627149D02*
X147807143Y-95650959D01*
X147807143Y-95650959D02*
X147830952Y-95674768D01*
X147830952Y-95674768D02*
X147854762Y-95722387D01*
X147854762Y-95722387D02*
X147854762Y-95770006D01*
X147854762Y-95770006D02*
X147830952Y-95841435D01*
X147830952Y-95841435D02*
X147545238Y-96127149D01*
X147545238Y-96127149D02*
X147854762Y-96127149D01*
X148283333Y-95627149D02*
X148188095Y-95627149D01*
X148188095Y-95627149D02*
X148140476Y-95650959D01*
X148140476Y-95650959D02*
X148116666Y-95674768D01*
X148116666Y-95674768D02*
X148069047Y-95746197D01*
X148069047Y-95746197D02*
X148045238Y-95841435D01*
X148045238Y-95841435D02*
X148045238Y-96031911D01*
X148045238Y-96031911D02*
X148069047Y-96079530D01*
X148069047Y-96079530D02*
X148092857Y-96103340D01*
X148092857Y-96103340D02*
X148140476Y-96127149D01*
X148140476Y-96127149D02*
X148235714Y-96127149D01*
X148235714Y-96127149D02*
X148283333Y-96103340D01*
X148283333Y-96103340D02*
X148307142Y-96079530D01*
X148307142Y-96079530D02*
X148330952Y-96031911D01*
X148330952Y-96031911D02*
X148330952Y-95912863D01*
X148330952Y-95912863D02*
X148307142Y-95865244D01*
X148307142Y-95865244D02*
X148283333Y-95841435D01*
X148283333Y-95841435D02*
X148235714Y-95817625D01*
X148235714Y-95817625D02*
X148140476Y-95817625D01*
X148140476Y-95817625D02*
X148092857Y-95841435D01*
X148092857Y-95841435D02*
X148069047Y-95865244D01*
X148069047Y-95865244D02*
X148045238Y-95912863D01*
D12*
X136421429Y-76272403D02*
X136288096Y-76272403D01*
X136288096Y-76481927D02*
X136288096Y-76081927D01*
X136288096Y-76081927D02*
X136478572Y-76081927D01*
X136630953Y-76481927D02*
X136630953Y-76081927D01*
X136821429Y-76481927D02*
X136821429Y-76081927D01*
X136821429Y-76081927D02*
X136916667Y-76081927D01*
X136916667Y-76081927D02*
X136973810Y-76100975D01*
X136973810Y-76100975D02*
X137011905Y-76139070D01*
X137011905Y-76139070D02*
X137030952Y-76177165D01*
X137030952Y-76177165D02*
X137050000Y-76253356D01*
X137050000Y-76253356D02*
X137050000Y-76310499D01*
X137050000Y-76310499D02*
X137030952Y-76386689D01*
X137030952Y-76386689D02*
X137011905Y-76424784D01*
X137011905Y-76424784D02*
X136973810Y-76462880D01*
X136973810Y-76462880D02*
X136916667Y-76481927D01*
X136916667Y-76481927D02*
X136821429Y-76481927D01*
X137183333Y-76081927D02*
X137430952Y-76081927D01*
X137430952Y-76081927D02*
X137297619Y-76234308D01*
X137297619Y-76234308D02*
X137354762Y-76234308D01*
X137354762Y-76234308D02*
X137392857Y-76253356D01*
X137392857Y-76253356D02*
X137411905Y-76272403D01*
X137411905Y-76272403D02*
X137430952Y-76310499D01*
X137430952Y-76310499D02*
X137430952Y-76405737D01*
X137430952Y-76405737D02*
X137411905Y-76443832D01*
X137411905Y-76443832D02*
X137392857Y-76462880D01*
X137392857Y-76462880D02*
X137354762Y-76481927D01*
X137354762Y-76481927D02*
X137240476Y-76481927D01*
X137240476Y-76481927D02*
X137202381Y-76462880D01*
X137202381Y-76462880D02*
X137183333Y-76443832D01*
D11*
X140378571Y-103277149D02*
X140211905Y-103039054D01*
X140092857Y-103277149D02*
X140092857Y-102777149D01*
X140092857Y-102777149D02*
X140283333Y-102777149D01*
X140283333Y-102777149D02*
X140330952Y-102800959D01*
X140330952Y-102800959D02*
X140354762Y-102824768D01*
X140354762Y-102824768D02*
X140378571Y-102872387D01*
X140378571Y-102872387D02*
X140378571Y-102943816D01*
X140378571Y-102943816D02*
X140354762Y-102991435D01*
X140354762Y-102991435D02*
X140330952Y-103015244D01*
X140330952Y-103015244D02*
X140283333Y-103039054D01*
X140283333Y-103039054D02*
X140092857Y-103039054D01*
X140854762Y-103277149D02*
X140569048Y-103277149D01*
X140711905Y-103277149D02*
X140711905Y-102777149D01*
X140711905Y-102777149D02*
X140664286Y-102848578D01*
X140664286Y-102848578D02*
X140616667Y-102896197D01*
X140616667Y-102896197D02*
X140569048Y-102920006D01*
X141092857Y-103277149D02*
X141188095Y-103277149D01*
X141188095Y-103277149D02*
X141235714Y-103253340D01*
X141235714Y-103253340D02*
X141259523Y-103229530D01*
X141259523Y-103229530D02*
X141307142Y-103158101D01*
X141307142Y-103158101D02*
X141330952Y-103062863D01*
X141330952Y-103062863D02*
X141330952Y-102872387D01*
X141330952Y-102872387D02*
X141307142Y-102824768D01*
X141307142Y-102824768D02*
X141283333Y-102800959D01*
X141283333Y-102800959D02*
X141235714Y-102777149D01*
X141235714Y-102777149D02*
X141140476Y-102777149D01*
X141140476Y-102777149D02*
X141092857Y-102800959D01*
X141092857Y-102800959D02*
X141069047Y-102824768D01*
X141069047Y-102824768D02*
X141045238Y-102872387D01*
X141045238Y-102872387D02*
X141045238Y-102991435D01*
X141045238Y-102991435D02*
X141069047Y-103039054D01*
X141069047Y-103039054D02*
X141092857Y-103062863D01*
X141092857Y-103062863D02*
X141140476Y-103086673D01*
X141140476Y-103086673D02*
X141235714Y-103086673D01*
X141235714Y-103086673D02*
X141283333Y-103062863D01*
X141283333Y-103062863D02*
X141307142Y-103039054D01*
X141307142Y-103039054D02*
X141330952Y-102991435D01*
X167666662Y-89127146D02*
X167499996Y-88889051D01*
X167380948Y-89127146D02*
X167380948Y-88627146D01*
X167380948Y-88627146D02*
X167571424Y-88627146D01*
X167571424Y-88627146D02*
X167619043Y-88650956D01*
X167619043Y-88650956D02*
X167642853Y-88674765D01*
X167642853Y-88674765D02*
X167666662Y-88722384D01*
X167666662Y-88722384D02*
X167666662Y-88793813D01*
X167666662Y-88793813D02*
X167642853Y-88841432D01*
X167642853Y-88841432D02*
X167619043Y-88865241D01*
X167619043Y-88865241D02*
X167571424Y-88889051D01*
X167571424Y-88889051D02*
X167380948Y-88889051D01*
X168095234Y-88627146D02*
X167999996Y-88627146D01*
X167999996Y-88627146D02*
X167952377Y-88650956D01*
X167952377Y-88650956D02*
X167928567Y-88674765D01*
X167928567Y-88674765D02*
X167880948Y-88746194D01*
X167880948Y-88746194D02*
X167857139Y-88841432D01*
X167857139Y-88841432D02*
X167857139Y-89031908D01*
X167857139Y-89031908D02*
X167880948Y-89079527D01*
X167880948Y-89079527D02*
X167904758Y-89103337D01*
X167904758Y-89103337D02*
X167952377Y-89127146D01*
X167952377Y-89127146D02*
X168047615Y-89127146D01*
X168047615Y-89127146D02*
X168095234Y-89103337D01*
X168095234Y-89103337D02*
X168119043Y-89079527D01*
X168119043Y-89079527D02*
X168142853Y-89031908D01*
X168142853Y-89031908D02*
X168142853Y-88912860D01*
X168142853Y-88912860D02*
X168119043Y-88865241D01*
X168119043Y-88865241D02*
X168095234Y-88841432D01*
X168095234Y-88841432D02*
X168047615Y-88817622D01*
X168047615Y-88817622D02*
X167952377Y-88817622D01*
X167952377Y-88817622D02*
X167904758Y-88841432D01*
X167904758Y-88841432D02*
X167880948Y-88865241D01*
X167880948Y-88865241D02*
X167857139Y-88912860D01*
D10*
X175588095Y-79604819D02*
X175588095Y-78604819D01*
X175588095Y-79081009D02*
X176159523Y-79081009D01*
X176159523Y-79604819D02*
X176159523Y-78604819D01*
X177111904Y-78604819D02*
X176635714Y-78604819D01*
X176635714Y-78604819D02*
X176588095Y-79081009D01*
X176588095Y-79081009D02*
X176635714Y-79033390D01*
X176635714Y-79033390D02*
X176730952Y-78985771D01*
X176730952Y-78985771D02*
X176969047Y-78985771D01*
X176969047Y-78985771D02*
X177064285Y-79033390D01*
X177064285Y-79033390D02*
X177111904Y-79081009D01*
X177111904Y-79081009D02*
X177159523Y-79176247D01*
X177159523Y-79176247D02*
X177159523Y-79414342D01*
X177159523Y-79414342D02*
X177111904Y-79509580D01*
X177111904Y-79509580D02*
X177064285Y-79557200D01*
X177064285Y-79557200D02*
X176969047Y-79604819D01*
X176969047Y-79604819D02*
X176730952Y-79604819D01*
X176730952Y-79604819D02*
X176635714Y-79557200D01*
X176635714Y-79557200D02*
X176588095Y-79509580D01*
X175954819Y-94333333D02*
X176669104Y-94333333D01*
X176669104Y-94333333D02*
X176811961Y-94380952D01*
X176811961Y-94380952D02*
X176907200Y-94476190D01*
X176907200Y-94476190D02*
X176954819Y-94619047D01*
X176954819Y-94619047D02*
X176954819Y-94714285D01*
X176050057Y-93904761D02*
X176002438Y-93857142D01*
X176002438Y-93857142D02*
X175954819Y-93761904D01*
X175954819Y-93761904D02*
X175954819Y-93523809D01*
X175954819Y-93523809D02*
X176002438Y-93428571D01*
X176002438Y-93428571D02*
X176050057Y-93380952D01*
X176050057Y-93380952D02*
X176145295Y-93333333D01*
X176145295Y-93333333D02*
X176240533Y-93333333D01*
X176240533Y-93333333D02*
X176383390Y-93380952D01*
X176383390Y-93380952D02*
X176954819Y-93952380D01*
X176954819Y-93952380D02*
X176954819Y-93333333D01*
D11*
X167428568Y-91177147D02*
X167261902Y-90939052D01*
X167142854Y-91177147D02*
X167142854Y-90677147D01*
X167142854Y-90677147D02*
X167333330Y-90677147D01*
X167333330Y-90677147D02*
X167380949Y-90700957D01*
X167380949Y-90700957D02*
X167404759Y-90724766D01*
X167404759Y-90724766D02*
X167428568Y-90772385D01*
X167428568Y-90772385D02*
X167428568Y-90843814D01*
X167428568Y-90843814D02*
X167404759Y-90891433D01*
X167404759Y-90891433D02*
X167380949Y-90915242D01*
X167380949Y-90915242D02*
X167333330Y-90939052D01*
X167333330Y-90939052D02*
X167142854Y-90939052D01*
X167904759Y-91177147D02*
X167619045Y-91177147D01*
X167761902Y-91177147D02*
X167761902Y-90677147D01*
X167761902Y-90677147D02*
X167714283Y-90748576D01*
X167714283Y-90748576D02*
X167666664Y-90796195D01*
X167666664Y-90796195D02*
X167619045Y-90820004D01*
X168071425Y-90677147D02*
X168380949Y-90677147D01*
X168380949Y-90677147D02*
X168214282Y-90867623D01*
X168214282Y-90867623D02*
X168285711Y-90867623D01*
X168285711Y-90867623D02*
X168333330Y-90891433D01*
X168333330Y-90891433D02*
X168357139Y-90915242D01*
X168357139Y-90915242D02*
X168380949Y-90962861D01*
X168380949Y-90962861D02*
X168380949Y-91081909D01*
X168380949Y-91081909D02*
X168357139Y-91129528D01*
X168357139Y-91129528D02*
X168333330Y-91153338D01*
X168333330Y-91153338D02*
X168285711Y-91177147D01*
X168285711Y-91177147D02*
X168142854Y-91177147D01*
X168142854Y-91177147D02*
X168095235Y-91153338D01*
X168095235Y-91153338D02*
X168071425Y-91129528D01*
D10*
X175338095Y-108154819D02*
X175338095Y-107154819D01*
X175338095Y-107631009D02*
X175909523Y-107631009D01*
X175909523Y-108154819D02*
X175909523Y-107154819D01*
X176290476Y-107154819D02*
X176909523Y-107154819D01*
X176909523Y-107154819D02*
X176576190Y-107535771D01*
X176576190Y-107535771D02*
X176719047Y-107535771D01*
X176719047Y-107535771D02*
X176814285Y-107583390D01*
X176814285Y-107583390D02*
X176861904Y-107631009D01*
X176861904Y-107631009D02*
X176909523Y-107726247D01*
X176909523Y-107726247D02*
X176909523Y-107964342D01*
X176909523Y-107964342D02*
X176861904Y-108059580D01*
X176861904Y-108059580D02*
X176814285Y-108107200D01*
X176814285Y-108107200D02*
X176719047Y-108154819D01*
X176719047Y-108154819D02*
X176433333Y-108154819D01*
X176433333Y-108154819D02*
X176338095Y-108107200D01*
X176338095Y-108107200D02*
X176290476Y-108059580D01*
D12*
X168671429Y-109072403D02*
X168538096Y-109072403D01*
X168538096Y-109281927D02*
X168538096Y-108881927D01*
X168538096Y-108881927D02*
X168728572Y-108881927D01*
X168880953Y-109281927D02*
X168880953Y-108881927D01*
X169071429Y-109281927D02*
X169071429Y-108881927D01*
X169071429Y-108881927D02*
X169166667Y-108881927D01*
X169166667Y-108881927D02*
X169223810Y-108900975D01*
X169223810Y-108900975D02*
X169261905Y-108939070D01*
X169261905Y-108939070D02*
X169280952Y-108977165D01*
X169280952Y-108977165D02*
X169300000Y-109053356D01*
X169300000Y-109053356D02*
X169300000Y-109110499D01*
X169300000Y-109110499D02*
X169280952Y-109186689D01*
X169280952Y-109186689D02*
X169261905Y-109224784D01*
X169261905Y-109224784D02*
X169223810Y-109262880D01*
X169223810Y-109262880D02*
X169166667Y-109281927D01*
X169166667Y-109281927D02*
X169071429Y-109281927D01*
X169680952Y-109281927D02*
X169452381Y-109281927D01*
X169566667Y-109281927D02*
X169566667Y-108881927D01*
X169566667Y-108881927D02*
X169528571Y-108939070D01*
X169528571Y-108939070D02*
X169490476Y-108977165D01*
X169490476Y-108977165D02*
X169452381Y-108996213D01*
D11*
X167428568Y-93327147D02*
X167261902Y-93089052D01*
X167142854Y-93327147D02*
X167142854Y-92827147D01*
X167142854Y-92827147D02*
X167333330Y-92827147D01*
X167333330Y-92827147D02*
X167380949Y-92850957D01*
X167380949Y-92850957D02*
X167404759Y-92874766D01*
X167404759Y-92874766D02*
X167428568Y-92922385D01*
X167428568Y-92922385D02*
X167428568Y-92993814D01*
X167428568Y-92993814D02*
X167404759Y-93041433D01*
X167404759Y-93041433D02*
X167380949Y-93065242D01*
X167380949Y-93065242D02*
X167333330Y-93089052D01*
X167333330Y-93089052D02*
X167142854Y-93089052D01*
X167904759Y-93327147D02*
X167619045Y-93327147D01*
X167761902Y-93327147D02*
X167761902Y-92827147D01*
X167761902Y-92827147D02*
X167714283Y-92898576D01*
X167714283Y-92898576D02*
X167666664Y-92946195D01*
X167666664Y-92946195D02*
X167619045Y-92970004D01*
X168095235Y-92874766D02*
X168119044Y-92850957D01*
X168119044Y-92850957D02*
X168166663Y-92827147D01*
X168166663Y-92827147D02*
X168285711Y-92827147D01*
X168285711Y-92827147D02*
X168333330Y-92850957D01*
X168333330Y-92850957D02*
X168357139Y-92874766D01*
X168357139Y-92874766D02*
X168380949Y-92922385D01*
X168380949Y-92922385D02*
X168380949Y-92970004D01*
X168380949Y-92970004D02*
X168357139Y-93041433D01*
X168357139Y-93041433D02*
X168071425Y-93327147D01*
X168071425Y-93327147D02*
X168380949Y-93327147D01*
D12*
X175571429Y-83422403D02*
X175438096Y-83422403D01*
X175438096Y-83631927D02*
X175438096Y-83231927D01*
X175438096Y-83231927D02*
X175628572Y-83231927D01*
X175780953Y-83631927D02*
X175780953Y-83231927D01*
X175971429Y-83631927D02*
X175971429Y-83231927D01*
X175971429Y-83231927D02*
X176066667Y-83231927D01*
X176066667Y-83231927D02*
X176123810Y-83250975D01*
X176123810Y-83250975D02*
X176161905Y-83289070D01*
X176161905Y-83289070D02*
X176180952Y-83327165D01*
X176180952Y-83327165D02*
X176200000Y-83403356D01*
X176200000Y-83403356D02*
X176200000Y-83460499D01*
X176200000Y-83460499D02*
X176180952Y-83536689D01*
X176180952Y-83536689D02*
X176161905Y-83574784D01*
X176161905Y-83574784D02*
X176123810Y-83612880D01*
X176123810Y-83612880D02*
X176066667Y-83631927D01*
X176066667Y-83631927D02*
X175971429Y-83631927D01*
X176352381Y-83270022D02*
X176371429Y-83250975D01*
X176371429Y-83250975D02*
X176409524Y-83231927D01*
X176409524Y-83231927D02*
X176504762Y-83231927D01*
X176504762Y-83231927D02*
X176542857Y-83250975D01*
X176542857Y-83250975D02*
X176561905Y-83270022D01*
X176561905Y-83270022D02*
X176580952Y-83308118D01*
X176580952Y-83308118D02*
X176580952Y-83346213D01*
X176580952Y-83346213D02*
X176561905Y-83403356D01*
X176561905Y-83403356D02*
X176333333Y-83631927D01*
X176333333Y-83631927D02*
X176580952Y-83631927D01*
D11*
X146677149Y-79221428D02*
X146439054Y-79388094D01*
X146677149Y-79507142D02*
X146177149Y-79507142D01*
X146177149Y-79507142D02*
X146177149Y-79316666D01*
X146177149Y-79316666D02*
X146200959Y-79269047D01*
X146200959Y-79269047D02*
X146224768Y-79245237D01*
X146224768Y-79245237D02*
X146272387Y-79221428D01*
X146272387Y-79221428D02*
X146343816Y-79221428D01*
X146343816Y-79221428D02*
X146391435Y-79245237D01*
X146391435Y-79245237D02*
X146415244Y-79269047D01*
X146415244Y-79269047D02*
X146439054Y-79316666D01*
X146439054Y-79316666D02*
X146439054Y-79507142D01*
X146224768Y-79030951D02*
X146200959Y-79007142D01*
X146200959Y-79007142D02*
X146177149Y-78959523D01*
X146177149Y-78959523D02*
X146177149Y-78840475D01*
X146177149Y-78840475D02*
X146200959Y-78792856D01*
X146200959Y-78792856D02*
X146224768Y-78769047D01*
X146224768Y-78769047D02*
X146272387Y-78745237D01*
X146272387Y-78745237D02*
X146320006Y-78745237D01*
X146320006Y-78745237D02*
X146391435Y-78769047D01*
X146391435Y-78769047D02*
X146677149Y-79054761D01*
X146677149Y-79054761D02*
X146677149Y-78745237D01*
X146177149Y-78435714D02*
X146177149Y-78388095D01*
X146177149Y-78388095D02*
X146200959Y-78340476D01*
X146200959Y-78340476D02*
X146224768Y-78316666D01*
X146224768Y-78316666D02*
X146272387Y-78292857D01*
X146272387Y-78292857D02*
X146367625Y-78269047D01*
X146367625Y-78269047D02*
X146486673Y-78269047D01*
X146486673Y-78269047D02*
X146581911Y-78292857D01*
X146581911Y-78292857D02*
X146629530Y-78316666D01*
X146629530Y-78316666D02*
X146653340Y-78340476D01*
X146653340Y-78340476D02*
X146677149Y-78388095D01*
X146677149Y-78388095D02*
X146677149Y-78435714D01*
X146677149Y-78435714D02*
X146653340Y-78483333D01*
X146653340Y-78483333D02*
X146629530Y-78507142D01*
X146629530Y-78507142D02*
X146581911Y-78530952D01*
X146581911Y-78530952D02*
X146486673Y-78554761D01*
X146486673Y-78554761D02*
X146367625Y-78554761D01*
X146367625Y-78554761D02*
X146272387Y-78530952D01*
X146272387Y-78530952D02*
X146224768Y-78507142D01*
X146224768Y-78507142D02*
X146200959Y-78483333D01*
X146200959Y-78483333D02*
X146177149Y-78435714D01*
D10*
X129738095Y-108354819D02*
X129738095Y-107354819D01*
X129738095Y-107831009D02*
X130309523Y-107831009D01*
X130309523Y-108354819D02*
X130309523Y-107354819D01*
X131214285Y-107688152D02*
X131214285Y-108354819D01*
X130976190Y-107307200D02*
X130738095Y-108021485D01*
X130738095Y-108021485D02*
X131357142Y-108021485D01*
D11*
X147328571Y-91977149D02*
X147161905Y-91739054D01*
X147042857Y-91977149D02*
X147042857Y-91477149D01*
X147042857Y-91477149D02*
X147233333Y-91477149D01*
X147233333Y-91477149D02*
X147280952Y-91500959D01*
X147280952Y-91500959D02*
X147304762Y-91524768D01*
X147304762Y-91524768D02*
X147328571Y-91572387D01*
X147328571Y-91572387D02*
X147328571Y-91643816D01*
X147328571Y-91643816D02*
X147304762Y-91691435D01*
X147304762Y-91691435D02*
X147280952Y-91715244D01*
X147280952Y-91715244D02*
X147233333Y-91739054D01*
X147233333Y-91739054D02*
X147042857Y-91739054D01*
X147519048Y-91524768D02*
X147542857Y-91500959D01*
X147542857Y-91500959D02*
X147590476Y-91477149D01*
X147590476Y-91477149D02*
X147709524Y-91477149D01*
X147709524Y-91477149D02*
X147757143Y-91500959D01*
X147757143Y-91500959D02*
X147780952Y-91524768D01*
X147780952Y-91524768D02*
X147804762Y-91572387D01*
X147804762Y-91572387D02*
X147804762Y-91620006D01*
X147804762Y-91620006D02*
X147780952Y-91691435D01*
X147780952Y-91691435D02*
X147495238Y-91977149D01*
X147495238Y-91977149D02*
X147804762Y-91977149D01*
X148233333Y-91643816D02*
X148233333Y-91977149D01*
X148114285Y-91453340D02*
X147995238Y-91810482D01*
X147995238Y-91810482D02*
X148304761Y-91810482D01*
X140378571Y-99127149D02*
X140211905Y-98889054D01*
X140092857Y-99127149D02*
X140092857Y-98627149D01*
X140092857Y-98627149D02*
X140283333Y-98627149D01*
X140283333Y-98627149D02*
X140330952Y-98650959D01*
X140330952Y-98650959D02*
X140354762Y-98674768D01*
X140354762Y-98674768D02*
X140378571Y-98722387D01*
X140378571Y-98722387D02*
X140378571Y-98793816D01*
X140378571Y-98793816D02*
X140354762Y-98841435D01*
X140354762Y-98841435D02*
X140330952Y-98865244D01*
X140330952Y-98865244D02*
X140283333Y-98889054D01*
X140283333Y-98889054D02*
X140092857Y-98889054D01*
X140854762Y-99127149D02*
X140569048Y-99127149D01*
X140711905Y-99127149D02*
X140711905Y-98627149D01*
X140711905Y-98627149D02*
X140664286Y-98698578D01*
X140664286Y-98698578D02*
X140616667Y-98746197D01*
X140616667Y-98746197D02*
X140569048Y-98770006D01*
X141283333Y-98793816D02*
X141283333Y-99127149D01*
X141164285Y-98603340D02*
X141045238Y-98960482D01*
X141045238Y-98960482D02*
X141354761Y-98960482D01*
D14*
%TO.C,Y1*%
X147150000Y-100150000D02*
X147150000Y-104850000D01*
X147150000Y-104850000D02*
X158550000Y-104850000D01*
X149835000Y-100385000D02*
X155865000Y-100385000D01*
X149835000Y-104615000D02*
X155865000Y-104615000D01*
X158550000Y-100150000D02*
X147150000Y-100150000D01*
X158550000Y-104850000D02*
X158550000Y-100150000D01*
X149835000Y-104615000D02*
G75*
G02*
X149835000Y-100385000I0J2115000D01*
G01*
X155865000Y-100385000D02*
G75*
G02*
X155865000Y-104615000I0J-2115000D01*
G01*
%TO.C,U1*%
X159200000Y-96150000D02*
X152200000Y-96150000D01*
X159200000Y-89150000D02*
X159200000Y-96150000D01*
X153200000Y-89150000D02*
X159200000Y-89150000D01*
X152200000Y-96150000D02*
X152200000Y-90150000D01*
X152200000Y-90150000D02*
X153200000Y-89150000D01*
%TO.C,R3*%
X168850000Y-100325000D02*
X166850000Y-100325000D01*
X168850000Y-99075000D02*
X168850000Y-100325000D01*
X166850000Y-100325000D02*
X166850000Y-99075000D01*
X166850000Y-99075000D02*
X168850000Y-99075000D01*
%TO.C,D1*%
X168800002Y-97800000D02*
X168800000Y-96900000D01*
X168800000Y-96900000D02*
X166800002Y-96900002D01*
X168500000Y-98100000D02*
X168800002Y-97800000D01*
X166800000Y-98100000D02*
X168500000Y-98100000D01*
X166800002Y-96900002D02*
X166800000Y-98100000D01*
%TO.C,C13*%
X163100000Y-101349998D02*
X163100000Y-102950002D01*
X162300000Y-101349998D02*
X163100000Y-101349998D01*
X163100000Y-102950002D02*
X162300000Y-102950002D01*
X162300000Y-102950002D02*
X162300000Y-101349998D01*
%TO.C,C12*%
X167950000Y-84799998D02*
X167950000Y-86400002D01*
X167150000Y-84799998D02*
X167950000Y-84799998D01*
X167950000Y-86400002D02*
X167150000Y-86400002D01*
X167150000Y-86400002D02*
X167150000Y-84799998D01*
%TO.C,C11*%
X169650000Y-84799998D02*
X169650000Y-86400002D01*
X168850000Y-84799998D02*
X169650000Y-84799998D01*
X169650000Y-86400002D02*
X168850000Y-86400002D01*
X168850000Y-86400002D02*
X168850000Y-84799998D01*
%TO.C,C10*%
X171300000Y-84799998D02*
X171300000Y-86400002D01*
X170500000Y-84799998D02*
X171300000Y-84799998D01*
X171300000Y-86400002D02*
X170500000Y-86400002D01*
X170500000Y-86400002D02*
X170500000Y-84799998D01*
%TO.C,C9*%
X164550000Y-84799998D02*
X164550000Y-86400002D01*
X163750000Y-84799998D02*
X164550000Y-84799998D01*
X164550000Y-86400002D02*
X163750000Y-86400002D01*
X163750000Y-86400002D02*
X163750000Y-84799998D01*
%TO.C,C8*%
X166250000Y-84799998D02*
X166250000Y-86400002D01*
X165450000Y-84799998D02*
X166250000Y-84799998D01*
X166250000Y-86400002D02*
X165450000Y-86400002D01*
X165450000Y-86400002D02*
X165450000Y-84799998D01*
%TO.C,C7*%
X170100000Y-102499998D02*
X170100000Y-104100002D01*
X169300000Y-102499998D02*
X170100000Y-102499998D01*
X170100000Y-104100002D02*
X169300000Y-104100002D01*
X169300000Y-104100002D02*
X169300000Y-102499998D01*
%TO.C,C6*%
X168400000Y-102499998D02*
X168400000Y-104100002D01*
X167600000Y-102499998D02*
X168400000Y-102499998D01*
X168400000Y-104100002D02*
X167600000Y-104100002D01*
X167600000Y-104100002D02*
X167600000Y-102499998D01*
%TO.C,C5*%
X166722500Y-102499998D02*
X166722500Y-104100002D01*
X165922500Y-102499998D02*
X166722500Y-102499998D01*
X166722500Y-104100002D02*
X165922500Y-104100002D01*
X165922500Y-104100002D02*
X165922500Y-102499998D01*
%TO.C,C4*%
X161150000Y-84799998D02*
X161150000Y-86400002D01*
X160350000Y-84799998D02*
X161150000Y-84799998D01*
X161150000Y-86400002D02*
X160350000Y-86400002D01*
X160350000Y-86400002D02*
X160350000Y-84799998D01*
%TO.C,C3*%
X162900000Y-84799998D02*
X162900000Y-86400002D01*
X162100000Y-84799998D02*
X162900000Y-84799998D01*
X162900000Y-86400002D02*
X162100000Y-86400002D01*
X162100000Y-86400002D02*
X162100000Y-84799998D01*
%TO.C,C2*%
X158650000Y-86400002D02*
X158650000Y-84799998D01*
X159450000Y-86400002D02*
X158650000Y-86400002D01*
X158650000Y-84799998D02*
X159450000Y-84799998D01*
X159450000Y-84799998D02*
X159450000Y-86400002D01*
%TO.C,R2*%
X163925001Y-103100000D02*
X163925001Y-101100000D01*
X165175001Y-103100000D02*
X163925001Y-103100000D01*
X163925001Y-101100000D02*
X165175001Y-101100000D01*
X165175001Y-101100000D02*
X165175001Y-103100000D01*
%TO.C,D3*%
X158950000Y-76850000D02*
X158950002Y-78849998D01*
X158950002Y-78849998D02*
X160150000Y-78850000D01*
X159850000Y-76849998D02*
X158950000Y-76850000D01*
X160150000Y-77150000D02*
X159850000Y-76849998D01*
X160150000Y-78850000D02*
X160150000Y-77150000D01*
%TO.C,C18*%
X168550000Y-81700002D02*
X168550001Y-80099999D01*
X168550001Y-80099999D02*
X169350000Y-80099998D01*
X169349999Y-81700001D02*
X168550000Y-81700002D01*
X169350000Y-80099998D02*
X169349999Y-81700001D01*
%TO.C,R23*%
X146650000Y-89075000D02*
X148650000Y-89075000D01*
X146650000Y-90325000D02*
X146650000Y-89075000D01*
X148650000Y-89075000D02*
X148650000Y-90325000D01*
X148650000Y-90325000D02*
X146650000Y-90325000D01*
%TO.C,R25*%
X146700000Y-93175000D02*
X148700000Y-93175000D01*
X146700000Y-94425000D02*
X146700000Y-93175000D01*
X148700000Y-93175000D02*
X148700000Y-94425000D01*
X148700000Y-94425000D02*
X146700000Y-94425000D01*
%TO.C,C17*%
X157150000Y-77249998D02*
X157950000Y-77249998D01*
X157150000Y-78850002D02*
X157150000Y-77249998D01*
X157950000Y-77249998D02*
X157950000Y-78850002D01*
X157950000Y-78850002D02*
X157150000Y-78850002D01*
%TO.C,SW2*%
X136849998Y-79950002D02*
X136850002Y-85950002D01*
X136850002Y-85950002D02*
X142850002Y-85949998D01*
X142849998Y-79949998D02*
X136849998Y-79950002D01*
X142850002Y-85949998D02*
X142849998Y-79949998D01*
X141600717Y-82950000D02*
G75*
G02*
X138099283Y-82950000I-1750717J0D01*
G01*
X138099283Y-82950000D02*
G75*
G02*
X141600717Y-82950000I1750717J0D01*
G01*
%TO.C,C1*%
X160600002Y-102950001D02*
X160600000Y-101349999D01*
X161400002Y-102950001D02*
X160600002Y-102950001D01*
X160600000Y-101349999D02*
X161400000Y-101349999D01*
X161400000Y-101349999D02*
X161400002Y-102950001D01*
%TO.C,R1*%
X166799997Y-94624998D02*
X168799997Y-94624998D01*
X166799997Y-95874998D02*
X166799997Y-94624998D01*
X168799997Y-94624998D02*
X168799997Y-95874998D01*
X168799997Y-95874998D02*
X166799997Y-95874998D01*
%TO.C,U4*%
X150084999Y-81284998D02*
X151084999Y-80285000D01*
X150084999Y-85515000D02*
X150084999Y-81284998D01*
X151084999Y-80285000D02*
X155315001Y-80285000D01*
X155315000Y-85515001D02*
X150084999Y-85515000D01*
X155315001Y-80285000D02*
X155315000Y-85515001D01*
%TO.C,U6*%
X161050000Y-77350000D02*
X167750000Y-77350000D01*
X161050000Y-80050001D02*
X161050000Y-77350000D01*
X162050002Y-81050000D02*
X161050000Y-80050001D01*
X162050002Y-81050000D02*
X167750000Y-81050000D01*
X167750000Y-81050000D02*
X167750000Y-77350000D01*
%TO.C,C16*%
X153250000Y-77237500D02*
X154050000Y-77237500D01*
X153250002Y-78837502D02*
X153250000Y-77237500D01*
X154050000Y-77237500D02*
X154050002Y-78837502D01*
X154050002Y-78837502D02*
X153250002Y-78837502D01*
%TO.C,R17*%
X139700000Y-100375000D02*
X141700000Y-100375000D01*
X139700000Y-101625000D02*
X139700000Y-100375000D01*
X141700000Y-100375000D02*
X141700000Y-101625000D01*
X141700000Y-101625000D02*
X139700000Y-101625000D01*
%TO.C,R22*%
X154925000Y-76850000D02*
X156175000Y-76850000D01*
X154925000Y-78850000D02*
X154925000Y-76850000D01*
X156175000Y-76850000D02*
X156175000Y-78850000D01*
X156175000Y-78850000D02*
X154925000Y-78850000D01*
%TO.C,R26*%
X148700000Y-96525000D02*
X146700000Y-96525000D01*
X148700000Y-95275000D02*
X148700000Y-96525000D01*
X146700000Y-96525000D02*
X146700000Y-95275000D01*
X146700000Y-95275000D02*
X148700000Y-95275000D01*
%TO.C,FID3*%
X137850000Y-76300000D02*
G75*
G02*
X135850000Y-76300000I-1000000J0D01*
G01*
X135850000Y-76300000D02*
G75*
G02*
X137850000Y-76300000I1000000J0D01*
G01*
%TO.C,R19*%
X139700000Y-102425000D02*
X141700000Y-102425000D01*
X139700000Y-103675000D02*
X139700000Y-102425000D01*
X141700000Y-102425000D02*
X141700000Y-103675000D01*
X141700000Y-103675000D02*
X139700000Y-103675000D01*
%TO.C,R6*%
X166749996Y-88274997D02*
X168749996Y-88274997D01*
X166749996Y-89524997D02*
X166749996Y-88274997D01*
X168749996Y-88274997D02*
X168749996Y-89524997D01*
X168749996Y-89524997D02*
X166749996Y-89524997D01*
%TO.C,J2*%
X172825000Y-97699999D02*
X173404999Y-97200000D01*
X173404999Y-97200000D02*
X172825000Y-96700000D01*
X180174999Y-89530001D02*
X180175002Y-98470000D01*
X172825001Y-98469999D01*
X172824998Y-89530000D01*
X180174999Y-89530001D01*
%TO.C,R13*%
X166749997Y-90324998D02*
X168749997Y-90324998D01*
X166749997Y-91574998D02*
X166749997Y-90324998D01*
X168749997Y-90324998D02*
X168749997Y-91574998D01*
X168749997Y-91574998D02*
X166749997Y-91574998D01*
%TO.C,FID1*%
X170100000Y-109100000D02*
G75*
G02*
X168100000Y-109100000I-1000000J0D01*
G01*
X168100000Y-109100000D02*
G75*
G02*
X170100000Y-109100000I1000000J0D01*
G01*
%TO.C,R12*%
X166749997Y-92474998D02*
X168749997Y-92474998D01*
X166749997Y-93724998D02*
X166749997Y-92474998D01*
X168749997Y-92474998D02*
X168749997Y-93724998D01*
X168749997Y-93724998D02*
X166749997Y-93724998D01*
%TO.C,FID2*%
X177000000Y-83450000D02*
G75*
G02*
X175000000Y-83450000I-1000000J0D01*
G01*
X175000000Y-83450000D02*
G75*
G02*
X177000000Y-83450000I1000000J0D01*
G01*
%TO.C,R20*%
X145825000Y-77900000D02*
X147075000Y-77900000D01*
X145825000Y-79900000D02*
X145825000Y-77900000D01*
X147075000Y-77900000D02*
X147075000Y-79900000D01*
X147075000Y-79900000D02*
X145825000Y-79900000D01*
%TO.C,R24*%
X146650000Y-91125000D02*
X148650000Y-91125000D01*
X146650000Y-92375000D02*
X146650000Y-91125000D01*
X148650000Y-91125000D02*
X148650000Y-92375000D01*
X148650000Y-92375000D02*
X146650000Y-92375000D01*
%TO.C,R14*%
X139700000Y-98275000D02*
X141700000Y-98275000D01*
X139700000Y-99525000D02*
X139700000Y-98275000D01*
X141700000Y-98275000D02*
X141700000Y-99525000D01*
X141700000Y-99525000D02*
X139700000Y-99525000D01*
%TD*%
M02*
