%TF.GenerationSoftware,KiCad,Pcbnew,8.0.2*%
%TF.CreationDate,2025-07-19T08:03:09+07:00*%
%TF.ProjectId,PicoLink,5069636f-4c69-46e6-9b2e-6b696361645f,rev?*%
%TF.SameCoordinates,Original*%
%TF.FileFunction,Legend,Top*%
%TF.FilePolarity,Positive*%
%FSLAX46Y46*%
G04 Gerber Fmt 4.6, Leading zero omitted, Abs format (unit mm)*
G04 Created by KiCad (PCBNEW 8.0.2) date 2025-07-19 08:03:09*
%MOMM*%
%LPD*%
G01*
G04 APERTURE LIST*
%ADD10C,1.000000*%
%ADD11C,0.750000*%
%ADD12C,0.150000*%
%ADD13C,0.125000*%
%ADD14C,0.120000*%
G04 APERTURE END LIST*
D10*
X124950000Y-112050000D02*
X183750000Y-112100000D01*
X125450000Y-73450000D02*
X125450000Y-112300000D01*
D11*
X135207706Y-109593857D02*
X135207706Y-106593857D01*
X135207706Y-106593857D02*
X136350563Y-106593857D01*
X136350563Y-106593857D02*
X136636278Y-106736714D01*
X136636278Y-106736714D02*
X136779135Y-106879571D01*
X136779135Y-106879571D02*
X136921992Y-107165285D01*
X136921992Y-107165285D02*
X136921992Y-107593857D01*
X136921992Y-107593857D02*
X136779135Y-107879571D01*
X136779135Y-107879571D02*
X136636278Y-108022428D01*
X136636278Y-108022428D02*
X136350563Y-108165285D01*
X136350563Y-108165285D02*
X135207706Y-108165285D01*
X138207706Y-109593857D02*
X138207706Y-106593857D01*
X139636277Y-109593857D02*
X139636277Y-106593857D01*
X141350563Y-109593857D02*
X140064849Y-107879571D01*
X141350563Y-106593857D02*
X139636277Y-108308142D01*
X143207706Y-106593857D02*
X143779134Y-106593857D01*
X143779134Y-106593857D02*
X144064849Y-106736714D01*
X144064849Y-106736714D02*
X144350563Y-107022428D01*
X144350563Y-107022428D02*
X144493420Y-107593857D01*
X144493420Y-107593857D02*
X144493420Y-108593857D01*
X144493420Y-108593857D02*
X144350563Y-109165285D01*
X144350563Y-109165285D02*
X144064849Y-109451000D01*
X144064849Y-109451000D02*
X143779134Y-109593857D01*
X143779134Y-109593857D02*
X143207706Y-109593857D01*
X143207706Y-109593857D02*
X142921992Y-109451000D01*
X142921992Y-109451000D02*
X142636277Y-109165285D01*
X142636277Y-109165285D02*
X142493420Y-108593857D01*
X142493420Y-108593857D02*
X142493420Y-107593857D01*
X142493420Y-107593857D02*
X142636277Y-107022428D01*
X142636277Y-107022428D02*
X142921992Y-106736714D01*
X142921992Y-106736714D02*
X143207706Y-106593857D01*
D12*
X152373809Y-98928628D02*
X152373809Y-99404819D01*
X152040476Y-98404819D02*
X152373809Y-98928628D01*
X152373809Y-98928628D02*
X152707142Y-98404819D01*
X153564285Y-99404819D02*
X152992857Y-99404819D01*
X153278571Y-99404819D02*
X153278571Y-98404819D01*
X153278571Y-98404819D02*
X153183333Y-98547676D01*
X153183333Y-98547676D02*
X153088095Y-98642914D01*
X153088095Y-98642914D02*
X152992857Y-98690533D01*
X154938095Y-87274819D02*
X154938095Y-88084342D01*
X154938095Y-88084342D02*
X154985714Y-88179580D01*
X154985714Y-88179580D02*
X155033333Y-88227200D01*
X155033333Y-88227200D02*
X155128571Y-88274819D01*
X155128571Y-88274819D02*
X155319047Y-88274819D01*
X155319047Y-88274819D02*
X155414285Y-88227200D01*
X155414285Y-88227200D02*
X155461904Y-88179580D01*
X155461904Y-88179580D02*
X155509523Y-88084342D01*
X155509523Y-88084342D02*
X155509523Y-87274819D01*
X156509523Y-88274819D02*
X155938095Y-88274819D01*
X156223809Y-88274819D02*
X156223809Y-87274819D01*
X156223809Y-87274819D02*
X156128571Y-87417676D01*
X156128571Y-87417676D02*
X156033333Y-87512914D01*
X156033333Y-87512914D02*
X155938095Y-87560533D01*
X167683333Y-101804817D02*
X167350000Y-101328626D01*
X167111905Y-101804817D02*
X167111905Y-100804817D01*
X167111905Y-100804817D02*
X167492857Y-100804817D01*
X167492857Y-100804817D02*
X167588095Y-100852436D01*
X167588095Y-100852436D02*
X167635714Y-100900055D01*
X167635714Y-100900055D02*
X167683333Y-100995293D01*
X167683333Y-100995293D02*
X167683333Y-101138150D01*
X167683333Y-101138150D02*
X167635714Y-101233388D01*
X167635714Y-101233388D02*
X167588095Y-101281007D01*
X167588095Y-101281007D02*
X167492857Y-101328626D01*
X167492857Y-101328626D02*
X167111905Y-101328626D01*
X168016667Y-100804817D02*
X168635714Y-100804817D01*
X168635714Y-100804817D02*
X168302381Y-101185769D01*
X168302381Y-101185769D02*
X168445238Y-101185769D01*
X168445238Y-101185769D02*
X168540476Y-101233388D01*
X168540476Y-101233388D02*
X168588095Y-101281007D01*
X168588095Y-101281007D02*
X168635714Y-101376245D01*
X168635714Y-101376245D02*
X168635714Y-101614340D01*
X168635714Y-101614340D02*
X168588095Y-101709578D01*
X168588095Y-101709578D02*
X168540476Y-101757198D01*
X168540476Y-101757198D02*
X168445238Y-101804817D01*
X168445238Y-101804817D02*
X168159524Y-101804817D01*
X168159524Y-101804817D02*
X168064286Y-101757198D01*
X168064286Y-101757198D02*
X168016667Y-101709578D01*
X167061905Y-99604817D02*
X167061905Y-98604817D01*
X167061905Y-98604817D02*
X167300000Y-98604817D01*
X167300000Y-98604817D02*
X167442857Y-98652436D01*
X167442857Y-98652436D02*
X167538095Y-98747674D01*
X167538095Y-98747674D02*
X167585714Y-98842912D01*
X167585714Y-98842912D02*
X167633333Y-99033388D01*
X167633333Y-99033388D02*
X167633333Y-99176245D01*
X167633333Y-99176245D02*
X167585714Y-99366721D01*
X167585714Y-99366721D02*
X167538095Y-99461959D01*
X167538095Y-99461959D02*
X167442857Y-99557198D01*
X167442857Y-99557198D02*
X167300000Y-99604817D01*
X167300000Y-99604817D02*
X167061905Y-99604817D01*
X168585714Y-99604817D02*
X168014286Y-99604817D01*
X168300000Y-99604817D02*
X168300000Y-98604817D01*
X168300000Y-98604817D02*
X168204762Y-98747674D01*
X168204762Y-98747674D02*
X168109524Y-98842912D01*
X168109524Y-98842912D02*
X168014286Y-98890531D01*
X164489579Y-102792858D02*
X164537199Y-102840477D01*
X164537199Y-102840477D02*
X164584818Y-102983334D01*
X164584818Y-102983334D02*
X164584818Y-103078572D01*
X164584818Y-103078572D02*
X164537199Y-103221429D01*
X164537199Y-103221429D02*
X164441960Y-103316667D01*
X164441960Y-103316667D02*
X164346722Y-103364286D01*
X164346722Y-103364286D02*
X164156246Y-103411905D01*
X164156246Y-103411905D02*
X164013389Y-103411905D01*
X164013389Y-103411905D02*
X163822913Y-103364286D01*
X163822913Y-103364286D02*
X163727675Y-103316667D01*
X163727675Y-103316667D02*
X163632437Y-103221429D01*
X163632437Y-103221429D02*
X163584818Y-103078572D01*
X163584818Y-103078572D02*
X163584818Y-102983334D01*
X163584818Y-102983334D02*
X163632437Y-102840477D01*
X163632437Y-102840477D02*
X163680056Y-102792858D01*
X164584818Y-101840477D02*
X164584818Y-102411905D01*
X164584818Y-102126191D02*
X163584818Y-102126191D01*
X163584818Y-102126191D02*
X163727675Y-102221429D01*
X163727675Y-102221429D02*
X163822913Y-102316667D01*
X163822913Y-102316667D02*
X163870532Y-102411905D01*
X163584818Y-101507143D02*
X163584818Y-100888096D01*
X163584818Y-100888096D02*
X163965770Y-101221429D01*
X163965770Y-101221429D02*
X163965770Y-101078572D01*
X163965770Y-101078572D02*
X164013389Y-100983334D01*
X164013389Y-100983334D02*
X164061008Y-100935715D01*
X164061008Y-100935715D02*
X164156246Y-100888096D01*
X164156246Y-100888096D02*
X164394341Y-100888096D01*
X164394341Y-100888096D02*
X164489579Y-100935715D01*
X164489579Y-100935715D02*
X164537199Y-100983334D01*
X164537199Y-100983334D02*
X164584818Y-101078572D01*
X164584818Y-101078572D02*
X164584818Y-101364286D01*
X164584818Y-101364286D02*
X164537199Y-101459524D01*
X164537199Y-101459524D02*
X164489579Y-101507143D01*
X169339579Y-86242858D02*
X169387199Y-86290477D01*
X169387199Y-86290477D02*
X169434818Y-86433334D01*
X169434818Y-86433334D02*
X169434818Y-86528572D01*
X169434818Y-86528572D02*
X169387199Y-86671429D01*
X169387199Y-86671429D02*
X169291960Y-86766667D01*
X169291960Y-86766667D02*
X169196722Y-86814286D01*
X169196722Y-86814286D02*
X169006246Y-86861905D01*
X169006246Y-86861905D02*
X168863389Y-86861905D01*
X168863389Y-86861905D02*
X168672913Y-86814286D01*
X168672913Y-86814286D02*
X168577675Y-86766667D01*
X168577675Y-86766667D02*
X168482437Y-86671429D01*
X168482437Y-86671429D02*
X168434818Y-86528572D01*
X168434818Y-86528572D02*
X168434818Y-86433334D01*
X168434818Y-86433334D02*
X168482437Y-86290477D01*
X168482437Y-86290477D02*
X168530056Y-86242858D01*
X169434818Y-85290477D02*
X169434818Y-85861905D01*
X169434818Y-85576191D02*
X168434818Y-85576191D01*
X168434818Y-85576191D02*
X168577675Y-85671429D01*
X168577675Y-85671429D02*
X168672913Y-85766667D01*
X168672913Y-85766667D02*
X168720532Y-85861905D01*
X168530056Y-84909524D02*
X168482437Y-84861905D01*
X168482437Y-84861905D02*
X168434818Y-84766667D01*
X168434818Y-84766667D02*
X168434818Y-84528572D01*
X168434818Y-84528572D02*
X168482437Y-84433334D01*
X168482437Y-84433334D02*
X168530056Y-84385715D01*
X168530056Y-84385715D02*
X168625294Y-84338096D01*
X168625294Y-84338096D02*
X168720532Y-84338096D01*
X168720532Y-84338096D02*
X168863389Y-84385715D01*
X168863389Y-84385715D02*
X169434818Y-84957143D01*
X169434818Y-84957143D02*
X169434818Y-84338096D01*
X171039579Y-86242858D02*
X171087199Y-86290477D01*
X171087199Y-86290477D02*
X171134818Y-86433334D01*
X171134818Y-86433334D02*
X171134818Y-86528572D01*
X171134818Y-86528572D02*
X171087199Y-86671429D01*
X171087199Y-86671429D02*
X170991960Y-86766667D01*
X170991960Y-86766667D02*
X170896722Y-86814286D01*
X170896722Y-86814286D02*
X170706246Y-86861905D01*
X170706246Y-86861905D02*
X170563389Y-86861905D01*
X170563389Y-86861905D02*
X170372913Y-86814286D01*
X170372913Y-86814286D02*
X170277675Y-86766667D01*
X170277675Y-86766667D02*
X170182437Y-86671429D01*
X170182437Y-86671429D02*
X170134818Y-86528572D01*
X170134818Y-86528572D02*
X170134818Y-86433334D01*
X170134818Y-86433334D02*
X170182437Y-86290477D01*
X170182437Y-86290477D02*
X170230056Y-86242858D01*
X171134818Y-85290477D02*
X171134818Y-85861905D01*
X171134818Y-85576191D02*
X170134818Y-85576191D01*
X170134818Y-85576191D02*
X170277675Y-85671429D01*
X170277675Y-85671429D02*
X170372913Y-85766667D01*
X170372913Y-85766667D02*
X170420532Y-85861905D01*
X171134818Y-84338096D02*
X171134818Y-84909524D01*
X171134818Y-84623810D02*
X170134818Y-84623810D01*
X170134818Y-84623810D02*
X170277675Y-84719048D01*
X170277675Y-84719048D02*
X170372913Y-84814286D01*
X170372913Y-84814286D02*
X170420532Y-84909524D01*
X172689579Y-86242858D02*
X172737199Y-86290477D01*
X172737199Y-86290477D02*
X172784818Y-86433334D01*
X172784818Y-86433334D02*
X172784818Y-86528572D01*
X172784818Y-86528572D02*
X172737199Y-86671429D01*
X172737199Y-86671429D02*
X172641960Y-86766667D01*
X172641960Y-86766667D02*
X172546722Y-86814286D01*
X172546722Y-86814286D02*
X172356246Y-86861905D01*
X172356246Y-86861905D02*
X172213389Y-86861905D01*
X172213389Y-86861905D02*
X172022913Y-86814286D01*
X172022913Y-86814286D02*
X171927675Y-86766667D01*
X171927675Y-86766667D02*
X171832437Y-86671429D01*
X171832437Y-86671429D02*
X171784818Y-86528572D01*
X171784818Y-86528572D02*
X171784818Y-86433334D01*
X171784818Y-86433334D02*
X171832437Y-86290477D01*
X171832437Y-86290477D02*
X171880056Y-86242858D01*
X172784818Y-85290477D02*
X172784818Y-85861905D01*
X172784818Y-85576191D02*
X171784818Y-85576191D01*
X171784818Y-85576191D02*
X171927675Y-85671429D01*
X171927675Y-85671429D02*
X172022913Y-85766667D01*
X172022913Y-85766667D02*
X172070532Y-85861905D01*
X171784818Y-84671429D02*
X171784818Y-84576191D01*
X171784818Y-84576191D02*
X171832437Y-84480953D01*
X171832437Y-84480953D02*
X171880056Y-84433334D01*
X171880056Y-84433334D02*
X171975294Y-84385715D01*
X171975294Y-84385715D02*
X172165770Y-84338096D01*
X172165770Y-84338096D02*
X172403865Y-84338096D01*
X172403865Y-84338096D02*
X172594341Y-84385715D01*
X172594341Y-84385715D02*
X172689579Y-84433334D01*
X172689579Y-84433334D02*
X172737199Y-84480953D01*
X172737199Y-84480953D02*
X172784818Y-84576191D01*
X172784818Y-84576191D02*
X172784818Y-84671429D01*
X172784818Y-84671429D02*
X172737199Y-84766667D01*
X172737199Y-84766667D02*
X172689579Y-84814286D01*
X172689579Y-84814286D02*
X172594341Y-84861905D01*
X172594341Y-84861905D02*
X172403865Y-84909524D01*
X172403865Y-84909524D02*
X172165770Y-84909524D01*
X172165770Y-84909524D02*
X171975294Y-84861905D01*
X171975294Y-84861905D02*
X171880056Y-84814286D01*
X171880056Y-84814286D02*
X171832437Y-84766667D01*
X171832437Y-84766667D02*
X171784818Y-84671429D01*
X165939579Y-85766667D02*
X165987199Y-85814286D01*
X165987199Y-85814286D02*
X166034818Y-85957143D01*
X166034818Y-85957143D02*
X166034818Y-86052381D01*
X166034818Y-86052381D02*
X165987199Y-86195238D01*
X165987199Y-86195238D02*
X165891960Y-86290476D01*
X165891960Y-86290476D02*
X165796722Y-86338095D01*
X165796722Y-86338095D02*
X165606246Y-86385714D01*
X165606246Y-86385714D02*
X165463389Y-86385714D01*
X165463389Y-86385714D02*
X165272913Y-86338095D01*
X165272913Y-86338095D02*
X165177675Y-86290476D01*
X165177675Y-86290476D02*
X165082437Y-86195238D01*
X165082437Y-86195238D02*
X165034818Y-86052381D01*
X165034818Y-86052381D02*
X165034818Y-85957143D01*
X165034818Y-85957143D02*
X165082437Y-85814286D01*
X165082437Y-85814286D02*
X165130056Y-85766667D01*
X166034818Y-85290476D02*
X166034818Y-85100000D01*
X166034818Y-85100000D02*
X165987199Y-85004762D01*
X165987199Y-85004762D02*
X165939579Y-84957143D01*
X165939579Y-84957143D02*
X165796722Y-84861905D01*
X165796722Y-84861905D02*
X165606246Y-84814286D01*
X165606246Y-84814286D02*
X165225294Y-84814286D01*
X165225294Y-84814286D02*
X165130056Y-84861905D01*
X165130056Y-84861905D02*
X165082437Y-84909524D01*
X165082437Y-84909524D02*
X165034818Y-85004762D01*
X165034818Y-85004762D02*
X165034818Y-85195238D01*
X165034818Y-85195238D02*
X165082437Y-85290476D01*
X165082437Y-85290476D02*
X165130056Y-85338095D01*
X165130056Y-85338095D02*
X165225294Y-85385714D01*
X165225294Y-85385714D02*
X165463389Y-85385714D01*
X165463389Y-85385714D02*
X165558627Y-85338095D01*
X165558627Y-85338095D02*
X165606246Y-85290476D01*
X165606246Y-85290476D02*
X165653865Y-85195238D01*
X165653865Y-85195238D02*
X165653865Y-85004762D01*
X165653865Y-85004762D02*
X165606246Y-84909524D01*
X165606246Y-84909524D02*
X165558627Y-84861905D01*
X165558627Y-84861905D02*
X165463389Y-84814286D01*
X167639579Y-85766667D02*
X167687199Y-85814286D01*
X167687199Y-85814286D02*
X167734818Y-85957143D01*
X167734818Y-85957143D02*
X167734818Y-86052381D01*
X167734818Y-86052381D02*
X167687199Y-86195238D01*
X167687199Y-86195238D02*
X167591960Y-86290476D01*
X167591960Y-86290476D02*
X167496722Y-86338095D01*
X167496722Y-86338095D02*
X167306246Y-86385714D01*
X167306246Y-86385714D02*
X167163389Y-86385714D01*
X167163389Y-86385714D02*
X166972913Y-86338095D01*
X166972913Y-86338095D02*
X166877675Y-86290476D01*
X166877675Y-86290476D02*
X166782437Y-86195238D01*
X166782437Y-86195238D02*
X166734818Y-86052381D01*
X166734818Y-86052381D02*
X166734818Y-85957143D01*
X166734818Y-85957143D02*
X166782437Y-85814286D01*
X166782437Y-85814286D02*
X166830056Y-85766667D01*
X167163389Y-85195238D02*
X167115770Y-85290476D01*
X167115770Y-85290476D02*
X167068151Y-85338095D01*
X167068151Y-85338095D02*
X166972913Y-85385714D01*
X166972913Y-85385714D02*
X166925294Y-85385714D01*
X166925294Y-85385714D02*
X166830056Y-85338095D01*
X166830056Y-85338095D02*
X166782437Y-85290476D01*
X166782437Y-85290476D02*
X166734818Y-85195238D01*
X166734818Y-85195238D02*
X166734818Y-85004762D01*
X166734818Y-85004762D02*
X166782437Y-84909524D01*
X166782437Y-84909524D02*
X166830056Y-84861905D01*
X166830056Y-84861905D02*
X166925294Y-84814286D01*
X166925294Y-84814286D02*
X166972913Y-84814286D01*
X166972913Y-84814286D02*
X167068151Y-84861905D01*
X167068151Y-84861905D02*
X167115770Y-84909524D01*
X167115770Y-84909524D02*
X167163389Y-85004762D01*
X167163389Y-85004762D02*
X167163389Y-85195238D01*
X167163389Y-85195238D02*
X167211008Y-85290476D01*
X167211008Y-85290476D02*
X167258627Y-85338095D01*
X167258627Y-85338095D02*
X167353865Y-85385714D01*
X167353865Y-85385714D02*
X167544341Y-85385714D01*
X167544341Y-85385714D02*
X167639579Y-85338095D01*
X167639579Y-85338095D02*
X167687199Y-85290476D01*
X167687199Y-85290476D02*
X167734818Y-85195238D01*
X167734818Y-85195238D02*
X167734818Y-85004762D01*
X167734818Y-85004762D02*
X167687199Y-84909524D01*
X167687199Y-84909524D02*
X167639579Y-84861905D01*
X167639579Y-84861905D02*
X167544341Y-84814286D01*
X167544341Y-84814286D02*
X167353865Y-84814286D01*
X167353865Y-84814286D02*
X167258627Y-84861905D01*
X167258627Y-84861905D02*
X167211008Y-84909524D01*
X167211008Y-84909524D02*
X167163389Y-85004762D01*
X171489579Y-103466667D02*
X171537199Y-103514286D01*
X171537199Y-103514286D02*
X171584818Y-103657143D01*
X171584818Y-103657143D02*
X171584818Y-103752381D01*
X171584818Y-103752381D02*
X171537199Y-103895238D01*
X171537199Y-103895238D02*
X171441960Y-103990476D01*
X171441960Y-103990476D02*
X171346722Y-104038095D01*
X171346722Y-104038095D02*
X171156246Y-104085714D01*
X171156246Y-104085714D02*
X171013389Y-104085714D01*
X171013389Y-104085714D02*
X170822913Y-104038095D01*
X170822913Y-104038095D02*
X170727675Y-103990476D01*
X170727675Y-103990476D02*
X170632437Y-103895238D01*
X170632437Y-103895238D02*
X170584818Y-103752381D01*
X170584818Y-103752381D02*
X170584818Y-103657143D01*
X170584818Y-103657143D02*
X170632437Y-103514286D01*
X170632437Y-103514286D02*
X170680056Y-103466667D01*
X170584818Y-103133333D02*
X170584818Y-102466667D01*
X170584818Y-102466667D02*
X171584818Y-102895238D01*
X169789579Y-103466667D02*
X169837199Y-103514286D01*
X169837199Y-103514286D02*
X169884818Y-103657143D01*
X169884818Y-103657143D02*
X169884818Y-103752381D01*
X169884818Y-103752381D02*
X169837199Y-103895238D01*
X169837199Y-103895238D02*
X169741960Y-103990476D01*
X169741960Y-103990476D02*
X169646722Y-104038095D01*
X169646722Y-104038095D02*
X169456246Y-104085714D01*
X169456246Y-104085714D02*
X169313389Y-104085714D01*
X169313389Y-104085714D02*
X169122913Y-104038095D01*
X169122913Y-104038095D02*
X169027675Y-103990476D01*
X169027675Y-103990476D02*
X168932437Y-103895238D01*
X168932437Y-103895238D02*
X168884818Y-103752381D01*
X168884818Y-103752381D02*
X168884818Y-103657143D01*
X168884818Y-103657143D02*
X168932437Y-103514286D01*
X168932437Y-103514286D02*
X168980056Y-103466667D01*
X168884818Y-102609524D02*
X168884818Y-102800000D01*
X168884818Y-102800000D02*
X168932437Y-102895238D01*
X168932437Y-102895238D02*
X168980056Y-102942857D01*
X168980056Y-102942857D02*
X169122913Y-103038095D01*
X169122913Y-103038095D02*
X169313389Y-103085714D01*
X169313389Y-103085714D02*
X169694341Y-103085714D01*
X169694341Y-103085714D02*
X169789579Y-103038095D01*
X169789579Y-103038095D02*
X169837199Y-102990476D01*
X169837199Y-102990476D02*
X169884818Y-102895238D01*
X169884818Y-102895238D02*
X169884818Y-102704762D01*
X169884818Y-102704762D02*
X169837199Y-102609524D01*
X169837199Y-102609524D02*
X169789579Y-102561905D01*
X169789579Y-102561905D02*
X169694341Y-102514286D01*
X169694341Y-102514286D02*
X169456246Y-102514286D01*
X169456246Y-102514286D02*
X169361008Y-102561905D01*
X169361008Y-102561905D02*
X169313389Y-102609524D01*
X169313389Y-102609524D02*
X169265770Y-102704762D01*
X169265770Y-102704762D02*
X169265770Y-102895238D01*
X169265770Y-102895238D02*
X169313389Y-102990476D01*
X169313389Y-102990476D02*
X169361008Y-103038095D01*
X169361008Y-103038095D02*
X169456246Y-103085714D01*
X168112079Y-103466667D02*
X168159699Y-103514286D01*
X168159699Y-103514286D02*
X168207318Y-103657143D01*
X168207318Y-103657143D02*
X168207318Y-103752381D01*
X168207318Y-103752381D02*
X168159699Y-103895238D01*
X168159699Y-103895238D02*
X168064460Y-103990476D01*
X168064460Y-103990476D02*
X167969222Y-104038095D01*
X167969222Y-104038095D02*
X167778746Y-104085714D01*
X167778746Y-104085714D02*
X167635889Y-104085714D01*
X167635889Y-104085714D02*
X167445413Y-104038095D01*
X167445413Y-104038095D02*
X167350175Y-103990476D01*
X167350175Y-103990476D02*
X167254937Y-103895238D01*
X167254937Y-103895238D02*
X167207318Y-103752381D01*
X167207318Y-103752381D02*
X167207318Y-103657143D01*
X167207318Y-103657143D02*
X167254937Y-103514286D01*
X167254937Y-103514286D02*
X167302556Y-103466667D01*
X167207318Y-102561905D02*
X167207318Y-103038095D01*
X167207318Y-103038095D02*
X167683508Y-103085714D01*
X167683508Y-103085714D02*
X167635889Y-103038095D01*
X167635889Y-103038095D02*
X167588270Y-102942857D01*
X167588270Y-102942857D02*
X167588270Y-102704762D01*
X167588270Y-102704762D02*
X167635889Y-102609524D01*
X167635889Y-102609524D02*
X167683508Y-102561905D01*
X167683508Y-102561905D02*
X167778746Y-102514286D01*
X167778746Y-102514286D02*
X168016841Y-102514286D01*
X168016841Y-102514286D02*
X168112079Y-102561905D01*
X168112079Y-102561905D02*
X168159699Y-102609524D01*
X168159699Y-102609524D02*
X168207318Y-102704762D01*
X168207318Y-102704762D02*
X168207318Y-102942857D01*
X168207318Y-102942857D02*
X168159699Y-103038095D01*
X168159699Y-103038095D02*
X168112079Y-103085714D01*
X162539579Y-85766667D02*
X162587199Y-85814286D01*
X162587199Y-85814286D02*
X162634818Y-85957143D01*
X162634818Y-85957143D02*
X162634818Y-86052381D01*
X162634818Y-86052381D02*
X162587199Y-86195238D01*
X162587199Y-86195238D02*
X162491960Y-86290476D01*
X162491960Y-86290476D02*
X162396722Y-86338095D01*
X162396722Y-86338095D02*
X162206246Y-86385714D01*
X162206246Y-86385714D02*
X162063389Y-86385714D01*
X162063389Y-86385714D02*
X161872913Y-86338095D01*
X161872913Y-86338095D02*
X161777675Y-86290476D01*
X161777675Y-86290476D02*
X161682437Y-86195238D01*
X161682437Y-86195238D02*
X161634818Y-86052381D01*
X161634818Y-86052381D02*
X161634818Y-85957143D01*
X161634818Y-85957143D02*
X161682437Y-85814286D01*
X161682437Y-85814286D02*
X161730056Y-85766667D01*
X161968151Y-84909524D02*
X162634818Y-84909524D01*
X161587199Y-85147619D02*
X162301484Y-85385714D01*
X162301484Y-85385714D02*
X162301484Y-84766667D01*
X164289579Y-85766667D02*
X164337199Y-85814286D01*
X164337199Y-85814286D02*
X164384818Y-85957143D01*
X164384818Y-85957143D02*
X164384818Y-86052381D01*
X164384818Y-86052381D02*
X164337199Y-86195238D01*
X164337199Y-86195238D02*
X164241960Y-86290476D01*
X164241960Y-86290476D02*
X164146722Y-86338095D01*
X164146722Y-86338095D02*
X163956246Y-86385714D01*
X163956246Y-86385714D02*
X163813389Y-86385714D01*
X163813389Y-86385714D02*
X163622913Y-86338095D01*
X163622913Y-86338095D02*
X163527675Y-86290476D01*
X163527675Y-86290476D02*
X163432437Y-86195238D01*
X163432437Y-86195238D02*
X163384818Y-86052381D01*
X163384818Y-86052381D02*
X163384818Y-85957143D01*
X163384818Y-85957143D02*
X163432437Y-85814286D01*
X163432437Y-85814286D02*
X163480056Y-85766667D01*
X163384818Y-85433333D02*
X163384818Y-84814286D01*
X163384818Y-84814286D02*
X163765770Y-85147619D01*
X163765770Y-85147619D02*
X163765770Y-85004762D01*
X163765770Y-85004762D02*
X163813389Y-84909524D01*
X163813389Y-84909524D02*
X163861008Y-84861905D01*
X163861008Y-84861905D02*
X163956246Y-84814286D01*
X163956246Y-84814286D02*
X164194341Y-84814286D01*
X164194341Y-84814286D02*
X164289579Y-84861905D01*
X164289579Y-84861905D02*
X164337199Y-84909524D01*
X164337199Y-84909524D02*
X164384818Y-85004762D01*
X164384818Y-85004762D02*
X164384818Y-85290476D01*
X164384818Y-85290476D02*
X164337199Y-85385714D01*
X164337199Y-85385714D02*
X164289579Y-85433333D01*
X160839579Y-85766667D02*
X160887199Y-85814286D01*
X160887199Y-85814286D02*
X160934818Y-85957143D01*
X160934818Y-85957143D02*
X160934818Y-86052381D01*
X160934818Y-86052381D02*
X160887199Y-86195238D01*
X160887199Y-86195238D02*
X160791960Y-86290476D01*
X160791960Y-86290476D02*
X160696722Y-86338095D01*
X160696722Y-86338095D02*
X160506246Y-86385714D01*
X160506246Y-86385714D02*
X160363389Y-86385714D01*
X160363389Y-86385714D02*
X160172913Y-86338095D01*
X160172913Y-86338095D02*
X160077675Y-86290476D01*
X160077675Y-86290476D02*
X159982437Y-86195238D01*
X159982437Y-86195238D02*
X159934818Y-86052381D01*
X159934818Y-86052381D02*
X159934818Y-85957143D01*
X159934818Y-85957143D02*
X159982437Y-85814286D01*
X159982437Y-85814286D02*
X160030056Y-85766667D01*
X160030056Y-85385714D02*
X159982437Y-85338095D01*
X159982437Y-85338095D02*
X159934818Y-85242857D01*
X159934818Y-85242857D02*
X159934818Y-85004762D01*
X159934818Y-85004762D02*
X159982437Y-84909524D01*
X159982437Y-84909524D02*
X160030056Y-84861905D01*
X160030056Y-84861905D02*
X160125294Y-84814286D01*
X160125294Y-84814286D02*
X160220532Y-84814286D01*
X160220532Y-84814286D02*
X160363389Y-84861905D01*
X160363389Y-84861905D02*
X160934818Y-85433333D01*
X160934818Y-85433333D02*
X160934818Y-84814286D01*
X163354820Y-102266667D02*
X162878629Y-102600000D01*
X163354820Y-102838095D02*
X162354820Y-102838095D01*
X162354820Y-102838095D02*
X162354820Y-102457143D01*
X162354820Y-102457143D02*
X162402439Y-102361905D01*
X162402439Y-102361905D02*
X162450058Y-102314286D01*
X162450058Y-102314286D02*
X162545296Y-102266667D01*
X162545296Y-102266667D02*
X162688153Y-102266667D01*
X162688153Y-102266667D02*
X162783391Y-102314286D01*
X162783391Y-102314286D02*
X162831010Y-102361905D01*
X162831010Y-102361905D02*
X162878629Y-102457143D01*
X162878629Y-102457143D02*
X162878629Y-102838095D01*
X162450058Y-101885714D02*
X162402439Y-101838095D01*
X162402439Y-101838095D02*
X162354820Y-101742857D01*
X162354820Y-101742857D02*
X162354820Y-101504762D01*
X162354820Y-101504762D02*
X162402439Y-101409524D01*
X162402439Y-101409524D02*
X162450058Y-101361905D01*
X162450058Y-101361905D02*
X162545296Y-101314286D01*
X162545296Y-101314286D02*
X162640534Y-101314286D01*
X162640534Y-101314286D02*
X162783391Y-101361905D01*
X162783391Y-101361905D02*
X163354820Y-101933333D01*
X163354820Y-101933333D02*
X163354820Y-101314286D01*
D13*
X159230952Y-75074809D02*
X159230952Y-74574809D01*
X159230952Y-74574809D02*
X159350000Y-74574809D01*
X159350000Y-74574809D02*
X159421428Y-74598619D01*
X159421428Y-74598619D02*
X159469047Y-74646238D01*
X159469047Y-74646238D02*
X159492857Y-74693857D01*
X159492857Y-74693857D02*
X159516666Y-74789095D01*
X159516666Y-74789095D02*
X159516666Y-74860523D01*
X159516666Y-74860523D02*
X159492857Y-74955761D01*
X159492857Y-74955761D02*
X159469047Y-75003380D01*
X159469047Y-75003380D02*
X159421428Y-75051000D01*
X159421428Y-75051000D02*
X159350000Y-75074809D01*
X159350000Y-75074809D02*
X159230952Y-75074809D01*
X159683333Y-74574809D02*
X159992857Y-74574809D01*
X159992857Y-74574809D02*
X159826190Y-74765285D01*
X159826190Y-74765285D02*
X159897619Y-74765285D01*
X159897619Y-74765285D02*
X159945238Y-74789095D01*
X159945238Y-74789095D02*
X159969047Y-74812904D01*
X159969047Y-74812904D02*
X159992857Y-74860523D01*
X159992857Y-74860523D02*
X159992857Y-74979571D01*
X159992857Y-74979571D02*
X159969047Y-75027190D01*
X159969047Y-75027190D02*
X159945238Y-75051000D01*
X159945238Y-75051000D02*
X159897619Y-75074809D01*
X159897619Y-75074809D02*
X159754762Y-75074809D01*
X159754762Y-75074809D02*
X159707143Y-75051000D01*
X159707143Y-75051000D02*
X159683333Y-75027190D01*
X159123809Y-75724809D02*
X159123809Y-75391476D01*
X159123809Y-75486714D02*
X159147619Y-75439095D01*
X159147619Y-75439095D02*
X159171428Y-75415285D01*
X159171428Y-75415285D02*
X159219047Y-75391476D01*
X159219047Y-75391476D02*
X159266666Y-75391476D01*
X159623809Y-75701000D02*
X159576190Y-75724809D01*
X159576190Y-75724809D02*
X159480952Y-75724809D01*
X159480952Y-75724809D02*
X159433333Y-75701000D01*
X159433333Y-75701000D02*
X159409524Y-75653380D01*
X159409524Y-75653380D02*
X159409524Y-75462904D01*
X159409524Y-75462904D02*
X159433333Y-75415285D01*
X159433333Y-75415285D02*
X159480952Y-75391476D01*
X159480952Y-75391476D02*
X159576190Y-75391476D01*
X159576190Y-75391476D02*
X159623809Y-75415285D01*
X159623809Y-75415285D02*
X159647619Y-75462904D01*
X159647619Y-75462904D02*
X159647619Y-75510523D01*
X159647619Y-75510523D02*
X159409524Y-75558142D01*
X160076190Y-75724809D02*
X160076190Y-75224809D01*
X160076190Y-75701000D02*
X160028571Y-75724809D01*
X160028571Y-75724809D02*
X159933333Y-75724809D01*
X159933333Y-75724809D02*
X159885714Y-75701000D01*
X159885714Y-75701000D02*
X159861904Y-75677190D01*
X159861904Y-75677190D02*
X159838095Y-75629571D01*
X159838095Y-75629571D02*
X159838095Y-75486714D01*
X159838095Y-75486714D02*
X159861904Y-75439095D01*
X159861904Y-75439095D02*
X159885714Y-75415285D01*
X159885714Y-75415285D02*
X159933333Y-75391476D01*
X159933333Y-75391476D02*
X160028571Y-75391476D01*
X160028571Y-75391476D02*
X160076190Y-75415285D01*
X168578571Y-83177190D02*
X168554762Y-83201000D01*
X168554762Y-83201000D02*
X168483333Y-83224809D01*
X168483333Y-83224809D02*
X168435714Y-83224809D01*
X168435714Y-83224809D02*
X168364286Y-83201000D01*
X168364286Y-83201000D02*
X168316667Y-83153380D01*
X168316667Y-83153380D02*
X168292857Y-83105761D01*
X168292857Y-83105761D02*
X168269048Y-83010523D01*
X168269048Y-83010523D02*
X168269048Y-82939095D01*
X168269048Y-82939095D02*
X168292857Y-82843857D01*
X168292857Y-82843857D02*
X168316667Y-82796238D01*
X168316667Y-82796238D02*
X168364286Y-82748619D01*
X168364286Y-82748619D02*
X168435714Y-82724809D01*
X168435714Y-82724809D02*
X168483333Y-82724809D01*
X168483333Y-82724809D02*
X168554762Y-82748619D01*
X168554762Y-82748619D02*
X168578571Y-82772428D01*
X169054762Y-83224809D02*
X168769048Y-83224809D01*
X168911905Y-83224809D02*
X168911905Y-82724809D01*
X168911905Y-82724809D02*
X168864286Y-82796238D01*
X168864286Y-82796238D02*
X168816667Y-82843857D01*
X168816667Y-82843857D02*
X168769048Y-82867666D01*
X169340476Y-82939095D02*
X169292857Y-82915285D01*
X169292857Y-82915285D02*
X169269047Y-82891476D01*
X169269047Y-82891476D02*
X169245238Y-82843857D01*
X169245238Y-82843857D02*
X169245238Y-82820047D01*
X169245238Y-82820047D02*
X169269047Y-82772428D01*
X169269047Y-82772428D02*
X169292857Y-82748619D01*
X169292857Y-82748619D02*
X169340476Y-82724809D01*
X169340476Y-82724809D02*
X169435714Y-82724809D01*
X169435714Y-82724809D02*
X169483333Y-82748619D01*
X169483333Y-82748619D02*
X169507142Y-82772428D01*
X169507142Y-82772428D02*
X169530952Y-82820047D01*
X169530952Y-82820047D02*
X169530952Y-82843857D01*
X169530952Y-82843857D02*
X169507142Y-82891476D01*
X169507142Y-82891476D02*
X169483333Y-82915285D01*
X169483333Y-82915285D02*
X169435714Y-82939095D01*
X169435714Y-82939095D02*
X169340476Y-82939095D01*
X169340476Y-82939095D02*
X169292857Y-82962904D01*
X169292857Y-82962904D02*
X169269047Y-82986714D01*
X169269047Y-82986714D02*
X169245238Y-83034333D01*
X169245238Y-83034333D02*
X169245238Y-83129571D01*
X169245238Y-83129571D02*
X169269047Y-83177190D01*
X169269047Y-83177190D02*
X169292857Y-83201000D01*
X169292857Y-83201000D02*
X169340476Y-83224809D01*
X169340476Y-83224809D02*
X169435714Y-83224809D01*
X169435714Y-83224809D02*
X169483333Y-83201000D01*
X169483333Y-83201000D02*
X169507142Y-83177190D01*
X169507142Y-83177190D02*
X169530952Y-83129571D01*
X169530952Y-83129571D02*
X169530952Y-83034333D01*
X169530952Y-83034333D02*
X169507142Y-82986714D01*
X169507142Y-82986714D02*
X169483333Y-82962904D01*
X169483333Y-82962904D02*
X169435714Y-82939095D01*
X168328572Y-78472428D02*
X168352381Y-78448619D01*
X168352381Y-78448619D02*
X168400000Y-78424809D01*
X168400000Y-78424809D02*
X168519048Y-78424809D01*
X168519048Y-78424809D02*
X168566667Y-78448619D01*
X168566667Y-78448619D02*
X168590476Y-78472428D01*
X168590476Y-78472428D02*
X168614286Y-78520047D01*
X168614286Y-78520047D02*
X168614286Y-78567666D01*
X168614286Y-78567666D02*
X168590476Y-78639095D01*
X168590476Y-78639095D02*
X168304762Y-78924809D01*
X168304762Y-78924809D02*
X168614286Y-78924809D01*
X168804762Y-78472428D02*
X168828571Y-78448619D01*
X168828571Y-78448619D02*
X168876190Y-78424809D01*
X168876190Y-78424809D02*
X168995238Y-78424809D01*
X168995238Y-78424809D02*
X169042857Y-78448619D01*
X169042857Y-78448619D02*
X169066666Y-78472428D01*
X169066666Y-78472428D02*
X169090476Y-78520047D01*
X169090476Y-78520047D02*
X169090476Y-78567666D01*
X169090476Y-78567666D02*
X169066666Y-78639095D01*
X169066666Y-78639095D02*
X168780952Y-78924809D01*
X168780952Y-78924809D02*
X169090476Y-78924809D01*
X169519047Y-78591476D02*
X169519047Y-78924809D01*
X169304761Y-78591476D02*
X169304761Y-78853380D01*
X169304761Y-78853380D02*
X169328571Y-78901000D01*
X169328571Y-78901000D02*
X169376190Y-78924809D01*
X169376190Y-78924809D02*
X169447618Y-78924809D01*
X169447618Y-78924809D02*
X169495237Y-78901000D01*
X169495237Y-78901000D02*
X169519047Y-78877190D01*
X169923809Y-78662904D02*
X169757142Y-78662904D01*
X169757142Y-78924809D02*
X169757142Y-78424809D01*
X169757142Y-78424809D02*
X169995237Y-78424809D01*
X150128571Y-89424809D02*
X149961905Y-89186714D01*
X149842857Y-89424809D02*
X149842857Y-88924809D01*
X149842857Y-88924809D02*
X150033333Y-88924809D01*
X150033333Y-88924809D02*
X150080952Y-88948619D01*
X150080952Y-88948619D02*
X150104762Y-88972428D01*
X150104762Y-88972428D02*
X150128571Y-89020047D01*
X150128571Y-89020047D02*
X150128571Y-89091476D01*
X150128571Y-89091476D02*
X150104762Y-89139095D01*
X150104762Y-89139095D02*
X150080952Y-89162904D01*
X150080952Y-89162904D02*
X150033333Y-89186714D01*
X150033333Y-89186714D02*
X149842857Y-89186714D01*
X150319048Y-88972428D02*
X150342857Y-88948619D01*
X150342857Y-88948619D02*
X150390476Y-88924809D01*
X150390476Y-88924809D02*
X150509524Y-88924809D01*
X150509524Y-88924809D02*
X150557143Y-88948619D01*
X150557143Y-88948619D02*
X150580952Y-88972428D01*
X150580952Y-88972428D02*
X150604762Y-89020047D01*
X150604762Y-89020047D02*
X150604762Y-89067666D01*
X150604762Y-89067666D02*
X150580952Y-89139095D01*
X150580952Y-89139095D02*
X150295238Y-89424809D01*
X150295238Y-89424809D02*
X150604762Y-89424809D01*
X150771428Y-88924809D02*
X151080952Y-88924809D01*
X151080952Y-88924809D02*
X150914285Y-89115285D01*
X150914285Y-89115285D02*
X150985714Y-89115285D01*
X150985714Y-89115285D02*
X151033333Y-89139095D01*
X151033333Y-89139095D02*
X151057142Y-89162904D01*
X151057142Y-89162904D02*
X151080952Y-89210523D01*
X151080952Y-89210523D02*
X151080952Y-89329571D01*
X151080952Y-89329571D02*
X151057142Y-89377190D01*
X151057142Y-89377190D02*
X151033333Y-89401000D01*
X151033333Y-89401000D02*
X150985714Y-89424809D01*
X150985714Y-89424809D02*
X150842857Y-89424809D01*
X150842857Y-89424809D02*
X150795238Y-89401000D01*
X150795238Y-89401000D02*
X150771428Y-89377190D01*
X150066667Y-90224809D02*
X149780953Y-90224809D01*
X149923810Y-90224809D02*
X149923810Y-89724809D01*
X149923810Y-89724809D02*
X149876191Y-89796238D01*
X149876191Y-89796238D02*
X149828572Y-89843857D01*
X149828572Y-89843857D02*
X149780953Y-89867666D01*
X150376190Y-89724809D02*
X150423809Y-89724809D01*
X150423809Y-89724809D02*
X150471428Y-89748619D01*
X150471428Y-89748619D02*
X150495238Y-89772428D01*
X150495238Y-89772428D02*
X150519047Y-89820047D01*
X150519047Y-89820047D02*
X150542857Y-89915285D01*
X150542857Y-89915285D02*
X150542857Y-90034333D01*
X150542857Y-90034333D02*
X150519047Y-90129571D01*
X150519047Y-90129571D02*
X150495238Y-90177190D01*
X150495238Y-90177190D02*
X150471428Y-90201000D01*
X150471428Y-90201000D02*
X150423809Y-90224809D01*
X150423809Y-90224809D02*
X150376190Y-90224809D01*
X150376190Y-90224809D02*
X150328571Y-90201000D01*
X150328571Y-90201000D02*
X150304762Y-90177190D01*
X150304762Y-90177190D02*
X150280952Y-90129571D01*
X150280952Y-90129571D02*
X150257143Y-90034333D01*
X150257143Y-90034333D02*
X150257143Y-89915285D01*
X150257143Y-89915285D02*
X150280952Y-89820047D01*
X150280952Y-89820047D02*
X150304762Y-89772428D01*
X150304762Y-89772428D02*
X150328571Y-89748619D01*
X150328571Y-89748619D02*
X150376190Y-89724809D01*
X150852380Y-89724809D02*
X150899999Y-89724809D01*
X150899999Y-89724809D02*
X150947618Y-89748619D01*
X150947618Y-89748619D02*
X150971428Y-89772428D01*
X150971428Y-89772428D02*
X150995237Y-89820047D01*
X150995237Y-89820047D02*
X151019047Y-89915285D01*
X151019047Y-89915285D02*
X151019047Y-90034333D01*
X151019047Y-90034333D02*
X150995237Y-90129571D01*
X150995237Y-90129571D02*
X150971428Y-90177190D01*
X150971428Y-90177190D02*
X150947618Y-90201000D01*
X150947618Y-90201000D02*
X150899999Y-90224809D01*
X150899999Y-90224809D02*
X150852380Y-90224809D01*
X150852380Y-90224809D02*
X150804761Y-90201000D01*
X150804761Y-90201000D02*
X150780952Y-90177190D01*
X150780952Y-90177190D02*
X150757142Y-90129571D01*
X150757142Y-90129571D02*
X150733333Y-90034333D01*
X150733333Y-90034333D02*
X150733333Y-89915285D01*
X150733333Y-89915285D02*
X150757142Y-89820047D01*
X150757142Y-89820047D02*
X150780952Y-89772428D01*
X150780952Y-89772428D02*
X150804761Y-89748619D01*
X150804761Y-89748619D02*
X150852380Y-89724809D01*
X150128571Y-93624809D02*
X149961905Y-93386714D01*
X149842857Y-93624809D02*
X149842857Y-93124809D01*
X149842857Y-93124809D02*
X150033333Y-93124809D01*
X150033333Y-93124809D02*
X150080952Y-93148619D01*
X150080952Y-93148619D02*
X150104762Y-93172428D01*
X150104762Y-93172428D02*
X150128571Y-93220047D01*
X150128571Y-93220047D02*
X150128571Y-93291476D01*
X150128571Y-93291476D02*
X150104762Y-93339095D01*
X150104762Y-93339095D02*
X150080952Y-93362904D01*
X150080952Y-93362904D02*
X150033333Y-93386714D01*
X150033333Y-93386714D02*
X149842857Y-93386714D01*
X150319048Y-93172428D02*
X150342857Y-93148619D01*
X150342857Y-93148619D02*
X150390476Y-93124809D01*
X150390476Y-93124809D02*
X150509524Y-93124809D01*
X150509524Y-93124809D02*
X150557143Y-93148619D01*
X150557143Y-93148619D02*
X150580952Y-93172428D01*
X150580952Y-93172428D02*
X150604762Y-93220047D01*
X150604762Y-93220047D02*
X150604762Y-93267666D01*
X150604762Y-93267666D02*
X150580952Y-93339095D01*
X150580952Y-93339095D02*
X150295238Y-93624809D01*
X150295238Y-93624809D02*
X150604762Y-93624809D01*
X151057142Y-93124809D02*
X150819047Y-93124809D01*
X150819047Y-93124809D02*
X150795238Y-93362904D01*
X150795238Y-93362904D02*
X150819047Y-93339095D01*
X150819047Y-93339095D02*
X150866666Y-93315285D01*
X150866666Y-93315285D02*
X150985714Y-93315285D01*
X150985714Y-93315285D02*
X151033333Y-93339095D01*
X151033333Y-93339095D02*
X151057142Y-93362904D01*
X151057142Y-93362904D02*
X151080952Y-93410523D01*
X151080952Y-93410523D02*
X151080952Y-93529571D01*
X151080952Y-93529571D02*
X151057142Y-93577190D01*
X151057142Y-93577190D02*
X151033333Y-93601000D01*
X151033333Y-93601000D02*
X150985714Y-93624809D01*
X150985714Y-93624809D02*
X150866666Y-93624809D01*
X150866666Y-93624809D02*
X150819047Y-93601000D01*
X150819047Y-93601000D02*
X150795238Y-93577190D01*
X150166667Y-94374809D02*
X149880953Y-94374809D01*
X150023810Y-94374809D02*
X150023810Y-93874809D01*
X150023810Y-93874809D02*
X149976191Y-93946238D01*
X149976191Y-93946238D02*
X149928572Y-93993857D01*
X149928572Y-93993857D02*
X149880953Y-94017666D01*
X150476190Y-93874809D02*
X150523809Y-93874809D01*
X150523809Y-93874809D02*
X150571428Y-93898619D01*
X150571428Y-93898619D02*
X150595238Y-93922428D01*
X150595238Y-93922428D02*
X150619047Y-93970047D01*
X150619047Y-93970047D02*
X150642857Y-94065285D01*
X150642857Y-94065285D02*
X150642857Y-94184333D01*
X150642857Y-94184333D02*
X150619047Y-94279571D01*
X150619047Y-94279571D02*
X150595238Y-94327190D01*
X150595238Y-94327190D02*
X150571428Y-94351000D01*
X150571428Y-94351000D02*
X150523809Y-94374809D01*
X150523809Y-94374809D02*
X150476190Y-94374809D01*
X150476190Y-94374809D02*
X150428571Y-94351000D01*
X150428571Y-94351000D02*
X150404762Y-94327190D01*
X150404762Y-94327190D02*
X150380952Y-94279571D01*
X150380952Y-94279571D02*
X150357143Y-94184333D01*
X150357143Y-94184333D02*
X150357143Y-94065285D01*
X150357143Y-94065285D02*
X150380952Y-93970047D01*
X150380952Y-93970047D02*
X150404762Y-93922428D01*
X150404762Y-93922428D02*
X150428571Y-93898619D01*
X150428571Y-93898619D02*
X150476190Y-93874809D01*
X150952380Y-93874809D02*
X150999999Y-93874809D01*
X150999999Y-93874809D02*
X151047618Y-93898619D01*
X151047618Y-93898619D02*
X151071428Y-93922428D01*
X151071428Y-93922428D02*
X151095237Y-93970047D01*
X151095237Y-93970047D02*
X151119047Y-94065285D01*
X151119047Y-94065285D02*
X151119047Y-94184333D01*
X151119047Y-94184333D02*
X151095237Y-94279571D01*
X151095237Y-94279571D02*
X151071428Y-94327190D01*
X151071428Y-94327190D02*
X151047618Y-94351000D01*
X151047618Y-94351000D02*
X150999999Y-94374809D01*
X150999999Y-94374809D02*
X150952380Y-94374809D01*
X150952380Y-94374809D02*
X150904761Y-94351000D01*
X150904761Y-94351000D02*
X150880952Y-94327190D01*
X150880952Y-94327190D02*
X150857142Y-94279571D01*
X150857142Y-94279571D02*
X150833333Y-94184333D01*
X150833333Y-94184333D02*
X150833333Y-94065285D01*
X150833333Y-94065285D02*
X150857142Y-93970047D01*
X150857142Y-93970047D02*
X150880952Y-93922428D01*
X150880952Y-93922428D02*
X150904761Y-93898619D01*
X150904761Y-93898619D02*
X150952380Y-93874809D01*
X157378571Y-75427190D02*
X157354762Y-75451000D01*
X157354762Y-75451000D02*
X157283333Y-75474809D01*
X157283333Y-75474809D02*
X157235714Y-75474809D01*
X157235714Y-75474809D02*
X157164286Y-75451000D01*
X157164286Y-75451000D02*
X157116667Y-75403380D01*
X157116667Y-75403380D02*
X157092857Y-75355761D01*
X157092857Y-75355761D02*
X157069048Y-75260523D01*
X157069048Y-75260523D02*
X157069048Y-75189095D01*
X157069048Y-75189095D02*
X157092857Y-75093857D01*
X157092857Y-75093857D02*
X157116667Y-75046238D01*
X157116667Y-75046238D02*
X157164286Y-74998619D01*
X157164286Y-74998619D02*
X157235714Y-74974809D01*
X157235714Y-74974809D02*
X157283333Y-74974809D01*
X157283333Y-74974809D02*
X157354762Y-74998619D01*
X157354762Y-74998619D02*
X157378571Y-75022428D01*
X157854762Y-75474809D02*
X157569048Y-75474809D01*
X157711905Y-75474809D02*
X157711905Y-74974809D01*
X157711905Y-74974809D02*
X157664286Y-75046238D01*
X157664286Y-75046238D02*
X157616667Y-75093857D01*
X157616667Y-75093857D02*
X157569048Y-75117666D01*
X158021428Y-74974809D02*
X158354761Y-74974809D01*
X158354761Y-74974809D02*
X158140476Y-75474809D01*
X156778572Y-75772428D02*
X156802381Y-75748619D01*
X156802381Y-75748619D02*
X156850000Y-75724809D01*
X156850000Y-75724809D02*
X156969048Y-75724809D01*
X156969048Y-75724809D02*
X157016667Y-75748619D01*
X157016667Y-75748619D02*
X157040476Y-75772428D01*
X157040476Y-75772428D02*
X157064286Y-75820047D01*
X157064286Y-75820047D02*
X157064286Y-75867666D01*
X157064286Y-75867666D02*
X157040476Y-75939095D01*
X157040476Y-75939095D02*
X156754762Y-76224809D01*
X156754762Y-76224809D02*
X157064286Y-76224809D01*
X157254762Y-75772428D02*
X157278571Y-75748619D01*
X157278571Y-75748619D02*
X157326190Y-75724809D01*
X157326190Y-75724809D02*
X157445238Y-75724809D01*
X157445238Y-75724809D02*
X157492857Y-75748619D01*
X157492857Y-75748619D02*
X157516666Y-75772428D01*
X157516666Y-75772428D02*
X157540476Y-75820047D01*
X157540476Y-75820047D02*
X157540476Y-75867666D01*
X157540476Y-75867666D02*
X157516666Y-75939095D01*
X157516666Y-75939095D02*
X157230952Y-76224809D01*
X157230952Y-76224809D02*
X157540476Y-76224809D01*
X157969047Y-75891476D02*
X157969047Y-76224809D01*
X157754761Y-75891476D02*
X157754761Y-76153380D01*
X157754761Y-76153380D02*
X157778571Y-76201000D01*
X157778571Y-76201000D02*
X157826190Y-76224809D01*
X157826190Y-76224809D02*
X157897618Y-76224809D01*
X157897618Y-76224809D02*
X157945237Y-76201000D01*
X157945237Y-76201000D02*
X157969047Y-76177190D01*
X158373809Y-75962904D02*
X158207142Y-75962904D01*
X158207142Y-76224809D02*
X158207142Y-75724809D01*
X158207142Y-75724809D02*
X158445237Y-75724809D01*
X142533334Y-79351000D02*
X142604762Y-79374809D01*
X142604762Y-79374809D02*
X142723810Y-79374809D01*
X142723810Y-79374809D02*
X142771429Y-79351000D01*
X142771429Y-79351000D02*
X142795238Y-79327190D01*
X142795238Y-79327190D02*
X142819048Y-79279571D01*
X142819048Y-79279571D02*
X142819048Y-79231952D01*
X142819048Y-79231952D02*
X142795238Y-79184333D01*
X142795238Y-79184333D02*
X142771429Y-79160523D01*
X142771429Y-79160523D02*
X142723810Y-79136714D01*
X142723810Y-79136714D02*
X142628572Y-79112904D01*
X142628572Y-79112904D02*
X142580953Y-79089095D01*
X142580953Y-79089095D02*
X142557143Y-79065285D01*
X142557143Y-79065285D02*
X142533334Y-79017666D01*
X142533334Y-79017666D02*
X142533334Y-78970047D01*
X142533334Y-78970047D02*
X142557143Y-78922428D01*
X142557143Y-78922428D02*
X142580953Y-78898619D01*
X142580953Y-78898619D02*
X142628572Y-78874809D01*
X142628572Y-78874809D02*
X142747619Y-78874809D01*
X142747619Y-78874809D02*
X142819048Y-78898619D01*
X142985714Y-78874809D02*
X143104762Y-79374809D01*
X143104762Y-79374809D02*
X143200000Y-79017666D01*
X143200000Y-79017666D02*
X143295238Y-79374809D01*
X143295238Y-79374809D02*
X143414286Y-78874809D01*
X143580953Y-78922428D02*
X143604762Y-78898619D01*
X143604762Y-78898619D02*
X143652381Y-78874809D01*
X143652381Y-78874809D02*
X143771429Y-78874809D01*
X143771429Y-78874809D02*
X143819048Y-78898619D01*
X143819048Y-78898619D02*
X143842857Y-78922428D01*
X143842857Y-78922428D02*
X143866667Y-78970047D01*
X143866667Y-78970047D02*
X143866667Y-79017666D01*
X143866667Y-79017666D02*
X143842857Y-79089095D01*
X143842857Y-79089095D02*
X143557143Y-79374809D01*
X143557143Y-79374809D02*
X143866667Y-79374809D01*
X135135714Y-79062904D02*
X135207142Y-79086714D01*
X135207142Y-79086714D02*
X135230952Y-79110523D01*
X135230952Y-79110523D02*
X135254761Y-79158142D01*
X135254761Y-79158142D02*
X135254761Y-79229571D01*
X135254761Y-79229571D02*
X135230952Y-79277190D01*
X135230952Y-79277190D02*
X135207142Y-79301000D01*
X135207142Y-79301000D02*
X135159523Y-79324809D01*
X135159523Y-79324809D02*
X134969047Y-79324809D01*
X134969047Y-79324809D02*
X134969047Y-78824809D01*
X134969047Y-78824809D02*
X135135714Y-78824809D01*
X135135714Y-78824809D02*
X135183333Y-78848619D01*
X135183333Y-78848619D02*
X135207142Y-78872428D01*
X135207142Y-78872428D02*
X135230952Y-78920047D01*
X135230952Y-78920047D02*
X135230952Y-78967666D01*
X135230952Y-78967666D02*
X135207142Y-79015285D01*
X135207142Y-79015285D02*
X135183333Y-79039095D01*
X135183333Y-79039095D02*
X135135714Y-79062904D01*
X135135714Y-79062904D02*
X134969047Y-79062904D01*
X135564285Y-78824809D02*
X135659523Y-78824809D01*
X135659523Y-78824809D02*
X135707142Y-78848619D01*
X135707142Y-78848619D02*
X135754761Y-78896238D01*
X135754761Y-78896238D02*
X135778571Y-78991476D01*
X135778571Y-78991476D02*
X135778571Y-79158142D01*
X135778571Y-79158142D02*
X135754761Y-79253380D01*
X135754761Y-79253380D02*
X135707142Y-79301000D01*
X135707142Y-79301000D02*
X135659523Y-79324809D01*
X135659523Y-79324809D02*
X135564285Y-79324809D01*
X135564285Y-79324809D02*
X135516666Y-79301000D01*
X135516666Y-79301000D02*
X135469047Y-79253380D01*
X135469047Y-79253380D02*
X135445238Y-79158142D01*
X135445238Y-79158142D02*
X135445238Y-78991476D01*
X135445238Y-78991476D02*
X135469047Y-78896238D01*
X135469047Y-78896238D02*
X135516666Y-78848619D01*
X135516666Y-78848619D02*
X135564285Y-78824809D01*
X136088095Y-78824809D02*
X136183333Y-78824809D01*
X136183333Y-78824809D02*
X136230952Y-78848619D01*
X136230952Y-78848619D02*
X136278571Y-78896238D01*
X136278571Y-78896238D02*
X136302381Y-78991476D01*
X136302381Y-78991476D02*
X136302381Y-79158142D01*
X136302381Y-79158142D02*
X136278571Y-79253380D01*
X136278571Y-79253380D02*
X136230952Y-79301000D01*
X136230952Y-79301000D02*
X136183333Y-79324809D01*
X136183333Y-79324809D02*
X136088095Y-79324809D01*
X136088095Y-79324809D02*
X136040476Y-79301000D01*
X136040476Y-79301000D02*
X135992857Y-79253380D01*
X135992857Y-79253380D02*
X135969048Y-79158142D01*
X135969048Y-79158142D02*
X135969048Y-78991476D01*
X135969048Y-78991476D02*
X135992857Y-78896238D01*
X135992857Y-78896238D02*
X136040476Y-78848619D01*
X136040476Y-78848619D02*
X136088095Y-78824809D01*
X136445239Y-78824809D02*
X136730953Y-78824809D01*
X136588096Y-79324809D02*
X136588096Y-78824809D01*
X137254762Y-79301000D02*
X137326190Y-79324809D01*
X137326190Y-79324809D02*
X137445238Y-79324809D01*
X137445238Y-79324809D02*
X137492857Y-79301000D01*
X137492857Y-79301000D02*
X137516666Y-79277190D01*
X137516666Y-79277190D02*
X137540476Y-79229571D01*
X137540476Y-79229571D02*
X137540476Y-79181952D01*
X137540476Y-79181952D02*
X137516666Y-79134333D01*
X137516666Y-79134333D02*
X137492857Y-79110523D01*
X137492857Y-79110523D02*
X137445238Y-79086714D01*
X137445238Y-79086714D02*
X137350000Y-79062904D01*
X137350000Y-79062904D02*
X137302381Y-79039095D01*
X137302381Y-79039095D02*
X137278571Y-79015285D01*
X137278571Y-79015285D02*
X137254762Y-78967666D01*
X137254762Y-78967666D02*
X137254762Y-78920047D01*
X137254762Y-78920047D02*
X137278571Y-78872428D01*
X137278571Y-78872428D02*
X137302381Y-78848619D01*
X137302381Y-78848619D02*
X137350000Y-78824809D01*
X137350000Y-78824809D02*
X137469047Y-78824809D01*
X137469047Y-78824809D02*
X137540476Y-78848619D01*
X137754761Y-79062904D02*
X137921428Y-79062904D01*
X137992856Y-79324809D02*
X137754761Y-79324809D01*
X137754761Y-79324809D02*
X137754761Y-78824809D01*
X137754761Y-78824809D02*
X137992856Y-78824809D01*
X138445237Y-79324809D02*
X138207142Y-79324809D01*
X138207142Y-79324809D02*
X138207142Y-78824809D01*
X138611904Y-79062904D02*
X138778571Y-79062904D01*
X138849999Y-79324809D02*
X138611904Y-79324809D01*
X138611904Y-79324809D02*
X138611904Y-78824809D01*
X138611904Y-78824809D02*
X138849999Y-78824809D01*
X139349999Y-79277190D02*
X139326190Y-79301000D01*
X139326190Y-79301000D02*
X139254761Y-79324809D01*
X139254761Y-79324809D02*
X139207142Y-79324809D01*
X139207142Y-79324809D02*
X139135714Y-79301000D01*
X139135714Y-79301000D02*
X139088095Y-79253380D01*
X139088095Y-79253380D02*
X139064285Y-79205761D01*
X139064285Y-79205761D02*
X139040476Y-79110523D01*
X139040476Y-79110523D02*
X139040476Y-79039095D01*
X139040476Y-79039095D02*
X139064285Y-78943857D01*
X139064285Y-78943857D02*
X139088095Y-78896238D01*
X139088095Y-78896238D02*
X139135714Y-78848619D01*
X139135714Y-78848619D02*
X139207142Y-78824809D01*
X139207142Y-78824809D02*
X139254761Y-78824809D01*
X139254761Y-78824809D02*
X139326190Y-78848619D01*
X139326190Y-78848619D02*
X139349999Y-78872428D01*
X139492857Y-78824809D02*
X139778571Y-78824809D01*
X139635714Y-79324809D02*
X139635714Y-78824809D01*
X140040475Y-78824809D02*
X140135713Y-78824809D01*
X140135713Y-78824809D02*
X140183332Y-78848619D01*
X140183332Y-78848619D02*
X140230951Y-78896238D01*
X140230951Y-78896238D02*
X140254761Y-78991476D01*
X140254761Y-78991476D02*
X140254761Y-79158142D01*
X140254761Y-79158142D02*
X140230951Y-79253380D01*
X140230951Y-79253380D02*
X140183332Y-79301000D01*
X140183332Y-79301000D02*
X140135713Y-79324809D01*
X140135713Y-79324809D02*
X140040475Y-79324809D01*
X140040475Y-79324809D02*
X139992856Y-79301000D01*
X139992856Y-79301000D02*
X139945237Y-79253380D01*
X139945237Y-79253380D02*
X139921428Y-79158142D01*
X139921428Y-79158142D02*
X139921428Y-78991476D01*
X139921428Y-78991476D02*
X139945237Y-78896238D01*
X139945237Y-78896238D02*
X139992856Y-78848619D01*
X139992856Y-78848619D02*
X140040475Y-78824809D01*
X140754761Y-79324809D02*
X140588095Y-79086714D01*
X140469047Y-79324809D02*
X140469047Y-78824809D01*
X140469047Y-78824809D02*
X140659523Y-78824809D01*
X140659523Y-78824809D02*
X140707142Y-78848619D01*
X140707142Y-78848619D02*
X140730952Y-78872428D01*
X140730952Y-78872428D02*
X140754761Y-78920047D01*
X140754761Y-78920047D02*
X140754761Y-78991476D01*
X140754761Y-78991476D02*
X140730952Y-79039095D01*
X140730952Y-79039095D02*
X140707142Y-79062904D01*
X140707142Y-79062904D02*
X140659523Y-79086714D01*
X140659523Y-79086714D02*
X140469047Y-79086714D01*
X161027191Y-104433333D02*
X161051001Y-104457142D01*
X161051001Y-104457142D02*
X161074810Y-104528571D01*
X161074810Y-104528571D02*
X161074810Y-104576190D01*
X161074810Y-104576190D02*
X161051001Y-104647618D01*
X161051001Y-104647618D02*
X161003381Y-104695237D01*
X161003381Y-104695237D02*
X160955762Y-104719047D01*
X160955762Y-104719047D02*
X160860524Y-104742856D01*
X160860524Y-104742856D02*
X160789096Y-104742856D01*
X160789096Y-104742856D02*
X160693858Y-104719047D01*
X160693858Y-104719047D02*
X160646239Y-104695237D01*
X160646239Y-104695237D02*
X160598620Y-104647618D01*
X160598620Y-104647618D02*
X160574810Y-104576190D01*
X160574810Y-104576190D02*
X160574810Y-104528571D01*
X160574810Y-104528571D02*
X160598620Y-104457142D01*
X160598620Y-104457142D02*
X160622429Y-104433333D01*
X161074810Y-103957142D02*
X161074810Y-104242856D01*
X161074810Y-104099999D02*
X160574810Y-104099999D01*
X160574810Y-104099999D02*
X160646239Y-104147618D01*
X160646239Y-104147618D02*
X160693858Y-104195237D01*
X160693858Y-104195237D02*
X160717667Y-104242856D01*
X161024810Y-99935713D02*
X161024810Y-100221427D01*
X161024810Y-100078570D02*
X160524810Y-100078570D01*
X160524810Y-100078570D02*
X160596239Y-100126189D01*
X160596239Y-100126189D02*
X160643858Y-100173808D01*
X160643858Y-100173808D02*
X160667667Y-100221427D01*
X160572429Y-99745237D02*
X160548620Y-99721428D01*
X160548620Y-99721428D02*
X160524810Y-99673809D01*
X160524810Y-99673809D02*
X160524810Y-99554761D01*
X160524810Y-99554761D02*
X160548620Y-99507142D01*
X160548620Y-99507142D02*
X160572429Y-99483333D01*
X160572429Y-99483333D02*
X160620048Y-99459523D01*
X160620048Y-99459523D02*
X160667667Y-99459523D01*
X160667667Y-99459523D02*
X160739096Y-99483333D01*
X160739096Y-99483333D02*
X161024810Y-99769047D01*
X161024810Y-99769047D02*
X161024810Y-99459523D01*
X160691477Y-99245238D02*
X161191477Y-99245238D01*
X160715286Y-99245238D02*
X160691477Y-99197619D01*
X160691477Y-99197619D02*
X160691477Y-99102381D01*
X160691477Y-99102381D02*
X160715286Y-99054762D01*
X160715286Y-99054762D02*
X160739096Y-99030952D01*
X160739096Y-99030952D02*
X160786715Y-99007143D01*
X160786715Y-99007143D02*
X160929572Y-99007143D01*
X160929572Y-99007143D02*
X160977191Y-99030952D01*
X160977191Y-99030952D02*
X161001001Y-99054762D01*
X161001001Y-99054762D02*
X161024810Y-99102381D01*
X161024810Y-99102381D02*
X161024810Y-99197619D01*
X161024810Y-99197619D02*
X161001001Y-99245238D01*
X160762905Y-98626190D02*
X160762905Y-98792857D01*
X161024810Y-98792857D02*
X160524810Y-98792857D01*
X160524810Y-98792857D02*
X160524810Y-98554762D01*
X170416666Y-94874809D02*
X170250000Y-94636714D01*
X170130952Y-94874809D02*
X170130952Y-94374809D01*
X170130952Y-94374809D02*
X170321428Y-94374809D01*
X170321428Y-94374809D02*
X170369047Y-94398619D01*
X170369047Y-94398619D02*
X170392857Y-94422428D01*
X170392857Y-94422428D02*
X170416666Y-94470047D01*
X170416666Y-94470047D02*
X170416666Y-94541476D01*
X170416666Y-94541476D02*
X170392857Y-94589095D01*
X170392857Y-94589095D02*
X170369047Y-94612904D01*
X170369047Y-94612904D02*
X170321428Y-94636714D01*
X170321428Y-94636714D02*
X170130952Y-94636714D01*
X170892857Y-94874809D02*
X170607143Y-94874809D01*
X170750000Y-94874809D02*
X170750000Y-94374809D01*
X170750000Y-94374809D02*
X170702381Y-94446238D01*
X170702381Y-94446238D02*
X170654762Y-94493857D01*
X170654762Y-94493857D02*
X170607143Y-94517666D01*
X170330952Y-95274809D02*
X170092857Y-95274809D01*
X170092857Y-95274809D02*
X170069048Y-95512904D01*
X170069048Y-95512904D02*
X170092857Y-95489095D01*
X170092857Y-95489095D02*
X170140476Y-95465285D01*
X170140476Y-95465285D02*
X170259524Y-95465285D01*
X170259524Y-95465285D02*
X170307143Y-95489095D01*
X170307143Y-95489095D02*
X170330952Y-95512904D01*
X170330952Y-95512904D02*
X170354762Y-95560523D01*
X170354762Y-95560523D02*
X170354762Y-95679571D01*
X170354762Y-95679571D02*
X170330952Y-95727190D01*
X170330952Y-95727190D02*
X170307143Y-95751000D01*
X170307143Y-95751000D02*
X170259524Y-95774809D01*
X170259524Y-95774809D02*
X170140476Y-95774809D01*
X170140476Y-95774809D02*
X170092857Y-95751000D01*
X170092857Y-95751000D02*
X170069048Y-95727190D01*
X170569047Y-95774809D02*
X170569047Y-95274809D01*
X170854761Y-95774809D02*
X170640476Y-95489095D01*
X170854761Y-95274809D02*
X170569047Y-95560523D01*
X171330952Y-95774809D02*
X171045238Y-95774809D01*
X171188095Y-95774809D02*
X171188095Y-95274809D01*
X171188095Y-95274809D02*
X171140476Y-95346238D01*
X171140476Y-95346238D02*
X171092857Y-95393857D01*
X171092857Y-95393857D02*
X171045238Y-95417666D01*
X148219047Y-86224809D02*
X148219047Y-86629571D01*
X148219047Y-86629571D02*
X148242857Y-86677190D01*
X148242857Y-86677190D02*
X148266666Y-86701000D01*
X148266666Y-86701000D02*
X148314285Y-86724809D01*
X148314285Y-86724809D02*
X148409523Y-86724809D01*
X148409523Y-86724809D02*
X148457142Y-86701000D01*
X148457142Y-86701000D02*
X148480952Y-86677190D01*
X148480952Y-86677190D02*
X148504761Y-86629571D01*
X148504761Y-86629571D02*
X148504761Y-86224809D01*
X148957143Y-86391476D02*
X148957143Y-86724809D01*
X148838095Y-86201000D02*
X148719048Y-86558142D01*
X148719048Y-86558142D02*
X149028571Y-86558142D01*
X150390477Y-86184809D02*
X150509525Y-86684809D01*
X150509525Y-86684809D02*
X150604763Y-86327666D01*
X150604763Y-86327666D02*
X150700001Y-86684809D01*
X150700001Y-86684809D02*
X150819049Y-86184809D01*
X150985716Y-86232428D02*
X151009525Y-86208619D01*
X151009525Y-86208619D02*
X151057144Y-86184809D01*
X151057144Y-86184809D02*
X151176192Y-86184809D01*
X151176192Y-86184809D02*
X151223811Y-86208619D01*
X151223811Y-86208619D02*
X151247620Y-86232428D01*
X151247620Y-86232428D02*
X151271430Y-86280047D01*
X151271430Y-86280047D02*
X151271430Y-86327666D01*
X151271430Y-86327666D02*
X151247620Y-86399095D01*
X151247620Y-86399095D02*
X150961906Y-86684809D01*
X150961906Y-86684809D02*
X151271430Y-86684809D01*
X151723810Y-86184809D02*
X151485715Y-86184809D01*
X151485715Y-86184809D02*
X151461906Y-86422904D01*
X151461906Y-86422904D02*
X151485715Y-86399095D01*
X151485715Y-86399095D02*
X151533334Y-86375285D01*
X151533334Y-86375285D02*
X151652382Y-86375285D01*
X151652382Y-86375285D02*
X151700001Y-86399095D01*
X151700001Y-86399095D02*
X151723810Y-86422904D01*
X151723810Y-86422904D02*
X151747620Y-86470523D01*
X151747620Y-86470523D02*
X151747620Y-86589571D01*
X151747620Y-86589571D02*
X151723810Y-86637190D01*
X151723810Y-86637190D02*
X151700001Y-86661000D01*
X151700001Y-86661000D02*
X151652382Y-86684809D01*
X151652382Y-86684809D02*
X151533334Y-86684809D01*
X151533334Y-86684809D02*
X151485715Y-86661000D01*
X151485715Y-86661000D02*
X151461906Y-86637190D01*
X152295238Y-86732428D02*
X152247619Y-86708619D01*
X152247619Y-86708619D02*
X152200000Y-86661000D01*
X152200000Y-86661000D02*
X152128572Y-86589571D01*
X152128572Y-86589571D02*
X152080953Y-86565761D01*
X152080953Y-86565761D02*
X152033334Y-86565761D01*
X152057143Y-86684809D02*
X152009524Y-86661000D01*
X152009524Y-86661000D02*
X151961905Y-86613380D01*
X151961905Y-86613380D02*
X151938096Y-86518142D01*
X151938096Y-86518142D02*
X151938096Y-86351476D01*
X151938096Y-86351476D02*
X151961905Y-86256238D01*
X151961905Y-86256238D02*
X152009524Y-86208619D01*
X152009524Y-86208619D02*
X152057143Y-86184809D01*
X152057143Y-86184809D02*
X152152381Y-86184809D01*
X152152381Y-86184809D02*
X152200000Y-86208619D01*
X152200000Y-86208619D02*
X152247619Y-86256238D01*
X152247619Y-86256238D02*
X152271429Y-86351476D01*
X152271429Y-86351476D02*
X152271429Y-86518142D01*
X152271429Y-86518142D02*
X152247619Y-86613380D01*
X152247619Y-86613380D02*
X152200000Y-86661000D01*
X152200000Y-86661000D02*
X152152381Y-86684809D01*
X152152381Y-86684809D02*
X152057143Y-86684809D01*
X152747620Y-86684809D02*
X152461906Y-86684809D01*
X152604763Y-86684809D02*
X152604763Y-86184809D01*
X152604763Y-86184809D02*
X152557144Y-86256238D01*
X152557144Y-86256238D02*
X152509525Y-86303857D01*
X152509525Y-86303857D02*
X152461906Y-86327666D01*
X153176191Y-86184809D02*
X153080953Y-86184809D01*
X153080953Y-86184809D02*
X153033334Y-86208619D01*
X153033334Y-86208619D02*
X153009524Y-86232428D01*
X153009524Y-86232428D02*
X152961905Y-86303857D01*
X152961905Y-86303857D02*
X152938096Y-86399095D01*
X152938096Y-86399095D02*
X152938096Y-86589571D01*
X152938096Y-86589571D02*
X152961905Y-86637190D01*
X152961905Y-86637190D02*
X152985715Y-86661000D01*
X152985715Y-86661000D02*
X153033334Y-86684809D01*
X153033334Y-86684809D02*
X153128572Y-86684809D01*
X153128572Y-86684809D02*
X153176191Y-86661000D01*
X153176191Y-86661000D02*
X153200000Y-86637190D01*
X153200000Y-86637190D02*
X153223810Y-86589571D01*
X153223810Y-86589571D02*
X153223810Y-86470523D01*
X153223810Y-86470523D02*
X153200000Y-86422904D01*
X153200000Y-86422904D02*
X153176191Y-86399095D01*
X153176191Y-86399095D02*
X153128572Y-86375285D01*
X153128572Y-86375285D02*
X153033334Y-86375285D01*
X153033334Y-86375285D02*
X152985715Y-86399095D01*
X152985715Y-86399095D02*
X152961905Y-86422904D01*
X152961905Y-86422904D02*
X152938096Y-86470523D01*
X153580952Y-86184809D02*
X153580952Y-86541952D01*
X153580952Y-86541952D02*
X153557143Y-86613380D01*
X153557143Y-86613380D02*
X153509524Y-86661000D01*
X153509524Y-86661000D02*
X153438095Y-86684809D01*
X153438095Y-86684809D02*
X153390476Y-86684809D01*
X153747619Y-86184809D02*
X153914285Y-86684809D01*
X153914285Y-86684809D02*
X154080952Y-86184809D01*
X154223809Y-86661000D02*
X154295237Y-86684809D01*
X154295237Y-86684809D02*
X154414285Y-86684809D01*
X154414285Y-86684809D02*
X154461904Y-86661000D01*
X154461904Y-86661000D02*
X154485713Y-86637190D01*
X154485713Y-86637190D02*
X154509523Y-86589571D01*
X154509523Y-86589571D02*
X154509523Y-86541952D01*
X154509523Y-86541952D02*
X154485713Y-86494333D01*
X154485713Y-86494333D02*
X154461904Y-86470523D01*
X154461904Y-86470523D02*
X154414285Y-86446714D01*
X154414285Y-86446714D02*
X154319047Y-86422904D01*
X154319047Y-86422904D02*
X154271428Y-86399095D01*
X154271428Y-86399095D02*
X154247618Y-86375285D01*
X154247618Y-86375285D02*
X154223809Y-86327666D01*
X154223809Y-86327666D02*
X154223809Y-86280047D01*
X154223809Y-86280047D02*
X154247618Y-86232428D01*
X154247618Y-86232428D02*
X154271428Y-86208619D01*
X154271428Y-86208619D02*
X154319047Y-86184809D01*
X154319047Y-86184809D02*
X154438094Y-86184809D01*
X154438094Y-86184809D02*
X154509523Y-86208619D01*
X154699999Y-86661000D02*
X154771427Y-86684809D01*
X154771427Y-86684809D02*
X154890475Y-86684809D01*
X154890475Y-86684809D02*
X154938094Y-86661000D01*
X154938094Y-86661000D02*
X154961903Y-86637190D01*
X154961903Y-86637190D02*
X154985713Y-86589571D01*
X154985713Y-86589571D02*
X154985713Y-86541952D01*
X154985713Y-86541952D02*
X154961903Y-86494333D01*
X154961903Y-86494333D02*
X154938094Y-86470523D01*
X154938094Y-86470523D02*
X154890475Y-86446714D01*
X154890475Y-86446714D02*
X154795237Y-86422904D01*
X154795237Y-86422904D02*
X154747618Y-86399095D01*
X154747618Y-86399095D02*
X154723808Y-86375285D01*
X154723808Y-86375285D02*
X154699999Y-86327666D01*
X154699999Y-86327666D02*
X154699999Y-86280047D01*
X154699999Y-86280047D02*
X154723808Y-86232428D01*
X154723808Y-86232428D02*
X154747618Y-86208619D01*
X154747618Y-86208619D02*
X154795237Y-86184809D01*
X154795237Y-86184809D02*
X154914284Y-86184809D01*
X154914284Y-86184809D02*
X154985713Y-86208619D01*
X168469047Y-74974809D02*
X168469047Y-75379571D01*
X168469047Y-75379571D02*
X168492857Y-75427190D01*
X168492857Y-75427190D02*
X168516666Y-75451000D01*
X168516666Y-75451000D02*
X168564285Y-75474809D01*
X168564285Y-75474809D02*
X168659523Y-75474809D01*
X168659523Y-75474809D02*
X168707142Y-75451000D01*
X168707142Y-75451000D02*
X168730952Y-75427190D01*
X168730952Y-75427190D02*
X168754761Y-75379571D01*
X168754761Y-75379571D02*
X168754761Y-74974809D01*
X169207143Y-74974809D02*
X169111905Y-74974809D01*
X169111905Y-74974809D02*
X169064286Y-74998619D01*
X169064286Y-74998619D02*
X169040476Y-75022428D01*
X169040476Y-75022428D02*
X168992857Y-75093857D01*
X168992857Y-75093857D02*
X168969048Y-75189095D01*
X168969048Y-75189095D02*
X168969048Y-75379571D01*
X168969048Y-75379571D02*
X168992857Y-75427190D01*
X168992857Y-75427190D02*
X169016667Y-75451000D01*
X169016667Y-75451000D02*
X169064286Y-75474809D01*
X169064286Y-75474809D02*
X169159524Y-75474809D01*
X169159524Y-75474809D02*
X169207143Y-75451000D01*
X169207143Y-75451000D02*
X169230952Y-75427190D01*
X169230952Y-75427190D02*
X169254762Y-75379571D01*
X169254762Y-75379571D02*
X169254762Y-75260523D01*
X169254762Y-75260523D02*
X169230952Y-75212904D01*
X169230952Y-75212904D02*
X169207143Y-75189095D01*
X169207143Y-75189095D02*
X169159524Y-75165285D01*
X169159524Y-75165285D02*
X169064286Y-75165285D01*
X169064286Y-75165285D02*
X169016667Y-75189095D01*
X169016667Y-75189095D02*
X168992857Y-75212904D01*
X168992857Y-75212904D02*
X168969048Y-75260523D01*
X168300002Y-76281952D02*
X168538097Y-76281952D01*
X168252383Y-76424809D02*
X168419049Y-75924809D01*
X168419049Y-75924809D02*
X168585716Y-76424809D01*
X168752382Y-76424809D02*
X168752382Y-75924809D01*
X168752382Y-75924809D02*
X168919049Y-76281952D01*
X168919049Y-76281952D02*
X169085715Y-75924809D01*
X169085715Y-75924809D02*
X169085715Y-76424809D01*
X169300002Y-76401000D02*
X169371430Y-76424809D01*
X169371430Y-76424809D02*
X169490478Y-76424809D01*
X169490478Y-76424809D02*
X169538097Y-76401000D01*
X169538097Y-76401000D02*
X169561906Y-76377190D01*
X169561906Y-76377190D02*
X169585716Y-76329571D01*
X169585716Y-76329571D02*
X169585716Y-76281952D01*
X169585716Y-76281952D02*
X169561906Y-76234333D01*
X169561906Y-76234333D02*
X169538097Y-76210523D01*
X169538097Y-76210523D02*
X169490478Y-76186714D01*
X169490478Y-76186714D02*
X169395240Y-76162904D01*
X169395240Y-76162904D02*
X169347621Y-76139095D01*
X169347621Y-76139095D02*
X169323811Y-76115285D01*
X169323811Y-76115285D02*
X169300002Y-76067666D01*
X169300002Y-76067666D02*
X169300002Y-76020047D01*
X169300002Y-76020047D02*
X169323811Y-75972428D01*
X169323811Y-75972428D02*
X169347621Y-75948619D01*
X169347621Y-75948619D02*
X169395240Y-75924809D01*
X169395240Y-75924809D02*
X169514287Y-75924809D01*
X169514287Y-75924809D02*
X169585716Y-75948619D01*
X170061906Y-76424809D02*
X169776192Y-76424809D01*
X169919049Y-76424809D02*
X169919049Y-75924809D01*
X169919049Y-75924809D02*
X169871430Y-75996238D01*
X169871430Y-75996238D02*
X169823811Y-76043857D01*
X169823811Y-76043857D02*
X169776192Y-76067666D01*
X170538096Y-76424809D02*
X170252382Y-76424809D01*
X170395239Y-76424809D02*
X170395239Y-75924809D01*
X170395239Y-75924809D02*
X170347620Y-75996238D01*
X170347620Y-75996238D02*
X170300001Y-76043857D01*
X170300001Y-76043857D02*
X170252382Y-76067666D01*
X171014286Y-76424809D02*
X170728572Y-76424809D01*
X170871429Y-76424809D02*
X170871429Y-75924809D01*
X170871429Y-75924809D02*
X170823810Y-75996238D01*
X170823810Y-75996238D02*
X170776191Y-76043857D01*
X170776191Y-76043857D02*
X170728572Y-76067666D01*
X171180952Y-75924809D02*
X171514285Y-75924809D01*
X171514285Y-75924809D02*
X171300000Y-76424809D01*
X171704761Y-76234333D02*
X172085714Y-76234333D01*
X172276190Y-75924809D02*
X172585714Y-75924809D01*
X172585714Y-75924809D02*
X172419047Y-76115285D01*
X172419047Y-76115285D02*
X172490476Y-76115285D01*
X172490476Y-76115285D02*
X172538095Y-76139095D01*
X172538095Y-76139095D02*
X172561904Y-76162904D01*
X172561904Y-76162904D02*
X172585714Y-76210523D01*
X172585714Y-76210523D02*
X172585714Y-76329571D01*
X172585714Y-76329571D02*
X172561904Y-76377190D01*
X172561904Y-76377190D02*
X172538095Y-76401000D01*
X172538095Y-76401000D02*
X172490476Y-76424809D01*
X172490476Y-76424809D02*
X172347619Y-76424809D01*
X172347619Y-76424809D02*
X172300000Y-76401000D01*
X172300000Y-76401000D02*
X172276190Y-76377190D01*
X172799999Y-76377190D02*
X172823809Y-76401000D01*
X172823809Y-76401000D02*
X172799999Y-76424809D01*
X172799999Y-76424809D02*
X172776190Y-76401000D01*
X172776190Y-76401000D02*
X172799999Y-76377190D01*
X172799999Y-76377190D02*
X172799999Y-76424809D01*
X172990475Y-75924809D02*
X173299999Y-75924809D01*
X173299999Y-75924809D02*
X173133332Y-76115285D01*
X173133332Y-76115285D02*
X173204761Y-76115285D01*
X173204761Y-76115285D02*
X173252380Y-76139095D01*
X173252380Y-76139095D02*
X173276189Y-76162904D01*
X173276189Y-76162904D02*
X173299999Y-76210523D01*
X173299999Y-76210523D02*
X173299999Y-76329571D01*
X173299999Y-76329571D02*
X173276189Y-76377190D01*
X173276189Y-76377190D02*
X173252380Y-76401000D01*
X173252380Y-76401000D02*
X173204761Y-76424809D01*
X173204761Y-76424809D02*
X173061904Y-76424809D01*
X173061904Y-76424809D02*
X173014285Y-76401000D01*
X173014285Y-76401000D02*
X172990475Y-76377190D01*
X151278571Y-78227190D02*
X151254762Y-78251000D01*
X151254762Y-78251000D02*
X151183333Y-78274809D01*
X151183333Y-78274809D02*
X151135714Y-78274809D01*
X151135714Y-78274809D02*
X151064286Y-78251000D01*
X151064286Y-78251000D02*
X151016667Y-78203380D01*
X151016667Y-78203380D02*
X150992857Y-78155761D01*
X150992857Y-78155761D02*
X150969048Y-78060523D01*
X150969048Y-78060523D02*
X150969048Y-77989095D01*
X150969048Y-77989095D02*
X150992857Y-77893857D01*
X150992857Y-77893857D02*
X151016667Y-77846238D01*
X151016667Y-77846238D02*
X151064286Y-77798619D01*
X151064286Y-77798619D02*
X151135714Y-77774809D01*
X151135714Y-77774809D02*
X151183333Y-77774809D01*
X151183333Y-77774809D02*
X151254762Y-77798619D01*
X151254762Y-77798619D02*
X151278571Y-77822428D01*
X151754762Y-78274809D02*
X151469048Y-78274809D01*
X151611905Y-78274809D02*
X151611905Y-77774809D01*
X151611905Y-77774809D02*
X151564286Y-77846238D01*
X151564286Y-77846238D02*
X151516667Y-77893857D01*
X151516667Y-77893857D02*
X151469048Y-77917666D01*
X152183333Y-77774809D02*
X152088095Y-77774809D01*
X152088095Y-77774809D02*
X152040476Y-77798619D01*
X152040476Y-77798619D02*
X152016666Y-77822428D01*
X152016666Y-77822428D02*
X151969047Y-77893857D01*
X151969047Y-77893857D02*
X151945238Y-77989095D01*
X151945238Y-77989095D02*
X151945238Y-78179571D01*
X151945238Y-78179571D02*
X151969047Y-78227190D01*
X151969047Y-78227190D02*
X151992857Y-78251000D01*
X151992857Y-78251000D02*
X152040476Y-78274809D01*
X152040476Y-78274809D02*
X152135714Y-78274809D01*
X152135714Y-78274809D02*
X152183333Y-78251000D01*
X152183333Y-78251000D02*
X152207142Y-78227190D01*
X152207142Y-78227190D02*
X152230952Y-78179571D01*
X152230952Y-78179571D02*
X152230952Y-78060523D01*
X152230952Y-78060523D02*
X152207142Y-78012904D01*
X152207142Y-78012904D02*
X152183333Y-77989095D01*
X152183333Y-77989095D02*
X152135714Y-77965285D01*
X152135714Y-77965285D02*
X152040476Y-77965285D01*
X152040476Y-77965285D02*
X151992857Y-77989095D01*
X151992857Y-77989095D02*
X151969047Y-78012904D01*
X151969047Y-78012904D02*
X151945238Y-78060523D01*
X150826191Y-79324809D02*
X150540477Y-79324809D01*
X150683334Y-79324809D02*
X150683334Y-78824809D01*
X150683334Y-78824809D02*
X150635715Y-78896238D01*
X150635715Y-78896238D02*
X150588096Y-78943857D01*
X150588096Y-78943857D02*
X150540477Y-78967666D01*
X151135714Y-78824809D02*
X151183333Y-78824809D01*
X151183333Y-78824809D02*
X151230952Y-78848619D01*
X151230952Y-78848619D02*
X151254762Y-78872428D01*
X151254762Y-78872428D02*
X151278571Y-78920047D01*
X151278571Y-78920047D02*
X151302381Y-79015285D01*
X151302381Y-79015285D02*
X151302381Y-79134333D01*
X151302381Y-79134333D02*
X151278571Y-79229571D01*
X151278571Y-79229571D02*
X151254762Y-79277190D01*
X151254762Y-79277190D02*
X151230952Y-79301000D01*
X151230952Y-79301000D02*
X151183333Y-79324809D01*
X151183333Y-79324809D02*
X151135714Y-79324809D01*
X151135714Y-79324809D02*
X151088095Y-79301000D01*
X151088095Y-79301000D02*
X151064286Y-79277190D01*
X151064286Y-79277190D02*
X151040476Y-79229571D01*
X151040476Y-79229571D02*
X151016667Y-79134333D01*
X151016667Y-79134333D02*
X151016667Y-79015285D01*
X151016667Y-79015285D02*
X151040476Y-78920047D01*
X151040476Y-78920047D02*
X151064286Y-78872428D01*
X151064286Y-78872428D02*
X151088095Y-78848619D01*
X151088095Y-78848619D02*
X151135714Y-78824809D01*
X151611904Y-78824809D02*
X151659523Y-78824809D01*
X151659523Y-78824809D02*
X151707142Y-78848619D01*
X151707142Y-78848619D02*
X151730952Y-78872428D01*
X151730952Y-78872428D02*
X151754761Y-78920047D01*
X151754761Y-78920047D02*
X151778571Y-79015285D01*
X151778571Y-79015285D02*
X151778571Y-79134333D01*
X151778571Y-79134333D02*
X151754761Y-79229571D01*
X151754761Y-79229571D02*
X151730952Y-79277190D01*
X151730952Y-79277190D02*
X151707142Y-79301000D01*
X151707142Y-79301000D02*
X151659523Y-79324809D01*
X151659523Y-79324809D02*
X151611904Y-79324809D01*
X151611904Y-79324809D02*
X151564285Y-79301000D01*
X151564285Y-79301000D02*
X151540476Y-79277190D01*
X151540476Y-79277190D02*
X151516666Y-79229571D01*
X151516666Y-79229571D02*
X151492857Y-79134333D01*
X151492857Y-79134333D02*
X151492857Y-79015285D01*
X151492857Y-79015285D02*
X151516666Y-78920047D01*
X151516666Y-78920047D02*
X151540476Y-78872428D01*
X151540476Y-78872428D02*
X151564285Y-78848619D01*
X151564285Y-78848619D02*
X151611904Y-78824809D01*
X151992856Y-78991476D02*
X151992856Y-79324809D01*
X151992856Y-79039095D02*
X152016666Y-79015285D01*
X152016666Y-79015285D02*
X152064285Y-78991476D01*
X152064285Y-78991476D02*
X152135713Y-78991476D01*
X152135713Y-78991476D02*
X152183332Y-79015285D01*
X152183332Y-79015285D02*
X152207142Y-79062904D01*
X152207142Y-79062904D02*
X152207142Y-79324809D01*
X152611904Y-79062904D02*
X152445237Y-79062904D01*
X152445237Y-79324809D02*
X152445237Y-78824809D01*
X152445237Y-78824809D02*
X152683332Y-78824809D01*
X143528571Y-100774809D02*
X143361905Y-100536714D01*
X143242857Y-100774809D02*
X143242857Y-100274809D01*
X143242857Y-100274809D02*
X143433333Y-100274809D01*
X143433333Y-100274809D02*
X143480952Y-100298619D01*
X143480952Y-100298619D02*
X143504762Y-100322428D01*
X143504762Y-100322428D02*
X143528571Y-100370047D01*
X143528571Y-100370047D02*
X143528571Y-100441476D01*
X143528571Y-100441476D02*
X143504762Y-100489095D01*
X143504762Y-100489095D02*
X143480952Y-100512904D01*
X143480952Y-100512904D02*
X143433333Y-100536714D01*
X143433333Y-100536714D02*
X143242857Y-100536714D01*
X144004762Y-100774809D02*
X143719048Y-100774809D01*
X143861905Y-100774809D02*
X143861905Y-100274809D01*
X143861905Y-100274809D02*
X143814286Y-100346238D01*
X143814286Y-100346238D02*
X143766667Y-100393857D01*
X143766667Y-100393857D02*
X143719048Y-100417666D01*
X144171428Y-100274809D02*
X144504761Y-100274809D01*
X144504761Y-100274809D02*
X144290476Y-100774809D01*
X143466667Y-101674809D02*
X143180953Y-101674809D01*
X143323810Y-101674809D02*
X143323810Y-101174809D01*
X143323810Y-101174809D02*
X143276191Y-101246238D01*
X143276191Y-101246238D02*
X143228572Y-101293857D01*
X143228572Y-101293857D02*
X143180953Y-101317666D01*
X143776190Y-101174809D02*
X143823809Y-101174809D01*
X143823809Y-101174809D02*
X143871428Y-101198619D01*
X143871428Y-101198619D02*
X143895238Y-101222428D01*
X143895238Y-101222428D02*
X143919047Y-101270047D01*
X143919047Y-101270047D02*
X143942857Y-101365285D01*
X143942857Y-101365285D02*
X143942857Y-101484333D01*
X143942857Y-101484333D02*
X143919047Y-101579571D01*
X143919047Y-101579571D02*
X143895238Y-101627190D01*
X143895238Y-101627190D02*
X143871428Y-101651000D01*
X143871428Y-101651000D02*
X143823809Y-101674809D01*
X143823809Y-101674809D02*
X143776190Y-101674809D01*
X143776190Y-101674809D02*
X143728571Y-101651000D01*
X143728571Y-101651000D02*
X143704762Y-101627190D01*
X143704762Y-101627190D02*
X143680952Y-101579571D01*
X143680952Y-101579571D02*
X143657143Y-101484333D01*
X143657143Y-101484333D02*
X143657143Y-101365285D01*
X143657143Y-101365285D02*
X143680952Y-101270047D01*
X143680952Y-101270047D02*
X143704762Y-101222428D01*
X143704762Y-101222428D02*
X143728571Y-101198619D01*
X143728571Y-101198619D02*
X143776190Y-101174809D01*
X144252380Y-101174809D02*
X144299999Y-101174809D01*
X144299999Y-101174809D02*
X144347618Y-101198619D01*
X144347618Y-101198619D02*
X144371428Y-101222428D01*
X144371428Y-101222428D02*
X144395237Y-101270047D01*
X144395237Y-101270047D02*
X144419047Y-101365285D01*
X144419047Y-101365285D02*
X144419047Y-101484333D01*
X144419047Y-101484333D02*
X144395237Y-101579571D01*
X144395237Y-101579571D02*
X144371428Y-101627190D01*
X144371428Y-101627190D02*
X144347618Y-101651000D01*
X144347618Y-101651000D02*
X144299999Y-101674809D01*
X144299999Y-101674809D02*
X144252380Y-101674809D01*
X144252380Y-101674809D02*
X144204761Y-101651000D01*
X144204761Y-101651000D02*
X144180952Y-101627190D01*
X144180952Y-101627190D02*
X144157142Y-101579571D01*
X144157142Y-101579571D02*
X144133333Y-101484333D01*
X144133333Y-101484333D02*
X144133333Y-101365285D01*
X144133333Y-101365285D02*
X144157142Y-101270047D01*
X144157142Y-101270047D02*
X144180952Y-101222428D01*
X144180952Y-101222428D02*
X144204761Y-101198619D01*
X144204761Y-101198619D02*
X144252380Y-101174809D01*
X155228571Y-74924809D02*
X155061905Y-74686714D01*
X154942857Y-74924809D02*
X154942857Y-74424809D01*
X154942857Y-74424809D02*
X155133333Y-74424809D01*
X155133333Y-74424809D02*
X155180952Y-74448619D01*
X155180952Y-74448619D02*
X155204762Y-74472428D01*
X155204762Y-74472428D02*
X155228571Y-74520047D01*
X155228571Y-74520047D02*
X155228571Y-74591476D01*
X155228571Y-74591476D02*
X155204762Y-74639095D01*
X155204762Y-74639095D02*
X155180952Y-74662904D01*
X155180952Y-74662904D02*
X155133333Y-74686714D01*
X155133333Y-74686714D02*
X154942857Y-74686714D01*
X155419048Y-74472428D02*
X155442857Y-74448619D01*
X155442857Y-74448619D02*
X155490476Y-74424809D01*
X155490476Y-74424809D02*
X155609524Y-74424809D01*
X155609524Y-74424809D02*
X155657143Y-74448619D01*
X155657143Y-74448619D02*
X155680952Y-74472428D01*
X155680952Y-74472428D02*
X155704762Y-74520047D01*
X155704762Y-74520047D02*
X155704762Y-74567666D01*
X155704762Y-74567666D02*
X155680952Y-74639095D01*
X155680952Y-74639095D02*
X155395238Y-74924809D01*
X155395238Y-74924809D02*
X155704762Y-74924809D01*
X155895238Y-74472428D02*
X155919047Y-74448619D01*
X155919047Y-74448619D02*
X155966666Y-74424809D01*
X155966666Y-74424809D02*
X156085714Y-74424809D01*
X156085714Y-74424809D02*
X156133333Y-74448619D01*
X156133333Y-74448619D02*
X156157142Y-74472428D01*
X156157142Y-74472428D02*
X156180952Y-74520047D01*
X156180952Y-74520047D02*
X156180952Y-74567666D01*
X156180952Y-74567666D02*
X156157142Y-74639095D01*
X156157142Y-74639095D02*
X155871428Y-74924809D01*
X155871428Y-74924809D02*
X156180952Y-74924809D01*
X155642857Y-75724809D02*
X155357143Y-75724809D01*
X155500000Y-75724809D02*
X155500000Y-75224809D01*
X155500000Y-75224809D02*
X155452381Y-75296238D01*
X155452381Y-75296238D02*
X155404762Y-75343857D01*
X155404762Y-75343857D02*
X155357143Y-75367666D01*
X155857142Y-75724809D02*
X155857142Y-75224809D01*
X156142856Y-75724809D02*
X155928571Y-75439095D01*
X156142856Y-75224809D02*
X155857142Y-75510523D01*
X150128571Y-95724809D02*
X149961905Y-95486714D01*
X149842857Y-95724809D02*
X149842857Y-95224809D01*
X149842857Y-95224809D02*
X150033333Y-95224809D01*
X150033333Y-95224809D02*
X150080952Y-95248619D01*
X150080952Y-95248619D02*
X150104762Y-95272428D01*
X150104762Y-95272428D02*
X150128571Y-95320047D01*
X150128571Y-95320047D02*
X150128571Y-95391476D01*
X150128571Y-95391476D02*
X150104762Y-95439095D01*
X150104762Y-95439095D02*
X150080952Y-95462904D01*
X150080952Y-95462904D02*
X150033333Y-95486714D01*
X150033333Y-95486714D02*
X149842857Y-95486714D01*
X150319048Y-95272428D02*
X150342857Y-95248619D01*
X150342857Y-95248619D02*
X150390476Y-95224809D01*
X150390476Y-95224809D02*
X150509524Y-95224809D01*
X150509524Y-95224809D02*
X150557143Y-95248619D01*
X150557143Y-95248619D02*
X150580952Y-95272428D01*
X150580952Y-95272428D02*
X150604762Y-95320047D01*
X150604762Y-95320047D02*
X150604762Y-95367666D01*
X150604762Y-95367666D02*
X150580952Y-95439095D01*
X150580952Y-95439095D02*
X150295238Y-95724809D01*
X150295238Y-95724809D02*
X150604762Y-95724809D01*
X151033333Y-95224809D02*
X150938095Y-95224809D01*
X150938095Y-95224809D02*
X150890476Y-95248619D01*
X150890476Y-95248619D02*
X150866666Y-95272428D01*
X150866666Y-95272428D02*
X150819047Y-95343857D01*
X150819047Y-95343857D02*
X150795238Y-95439095D01*
X150795238Y-95439095D02*
X150795238Y-95629571D01*
X150795238Y-95629571D02*
X150819047Y-95677190D01*
X150819047Y-95677190D02*
X150842857Y-95701000D01*
X150842857Y-95701000D02*
X150890476Y-95724809D01*
X150890476Y-95724809D02*
X150985714Y-95724809D01*
X150985714Y-95724809D02*
X151033333Y-95701000D01*
X151033333Y-95701000D02*
X151057142Y-95677190D01*
X151057142Y-95677190D02*
X151080952Y-95629571D01*
X151080952Y-95629571D02*
X151080952Y-95510523D01*
X151080952Y-95510523D02*
X151057142Y-95462904D01*
X151057142Y-95462904D02*
X151033333Y-95439095D01*
X151033333Y-95439095D02*
X150985714Y-95415285D01*
X150985714Y-95415285D02*
X150890476Y-95415285D01*
X150890476Y-95415285D02*
X150842857Y-95439095D01*
X150842857Y-95439095D02*
X150819047Y-95462904D01*
X150819047Y-95462904D02*
X150795238Y-95510523D01*
X150066667Y-96424809D02*
X149780953Y-96424809D01*
X149923810Y-96424809D02*
X149923810Y-95924809D01*
X149923810Y-95924809D02*
X149876191Y-95996238D01*
X149876191Y-95996238D02*
X149828572Y-96043857D01*
X149828572Y-96043857D02*
X149780953Y-96067666D01*
X150376190Y-95924809D02*
X150423809Y-95924809D01*
X150423809Y-95924809D02*
X150471428Y-95948619D01*
X150471428Y-95948619D02*
X150495238Y-95972428D01*
X150495238Y-95972428D02*
X150519047Y-96020047D01*
X150519047Y-96020047D02*
X150542857Y-96115285D01*
X150542857Y-96115285D02*
X150542857Y-96234333D01*
X150542857Y-96234333D02*
X150519047Y-96329571D01*
X150519047Y-96329571D02*
X150495238Y-96377190D01*
X150495238Y-96377190D02*
X150471428Y-96401000D01*
X150471428Y-96401000D02*
X150423809Y-96424809D01*
X150423809Y-96424809D02*
X150376190Y-96424809D01*
X150376190Y-96424809D02*
X150328571Y-96401000D01*
X150328571Y-96401000D02*
X150304762Y-96377190D01*
X150304762Y-96377190D02*
X150280952Y-96329571D01*
X150280952Y-96329571D02*
X150257143Y-96234333D01*
X150257143Y-96234333D02*
X150257143Y-96115285D01*
X150257143Y-96115285D02*
X150280952Y-96020047D01*
X150280952Y-96020047D02*
X150304762Y-95972428D01*
X150304762Y-95972428D02*
X150328571Y-95948619D01*
X150328571Y-95948619D02*
X150376190Y-95924809D01*
X150852380Y-95924809D02*
X150899999Y-95924809D01*
X150899999Y-95924809D02*
X150947618Y-95948619D01*
X150947618Y-95948619D02*
X150971428Y-95972428D01*
X150971428Y-95972428D02*
X150995237Y-96020047D01*
X150995237Y-96020047D02*
X151019047Y-96115285D01*
X151019047Y-96115285D02*
X151019047Y-96234333D01*
X151019047Y-96234333D02*
X150995237Y-96329571D01*
X150995237Y-96329571D02*
X150971428Y-96377190D01*
X150971428Y-96377190D02*
X150947618Y-96401000D01*
X150947618Y-96401000D02*
X150899999Y-96424809D01*
X150899999Y-96424809D02*
X150852380Y-96424809D01*
X150852380Y-96424809D02*
X150804761Y-96401000D01*
X150804761Y-96401000D02*
X150780952Y-96377190D01*
X150780952Y-96377190D02*
X150757142Y-96329571D01*
X150757142Y-96329571D02*
X150733333Y-96234333D01*
X150733333Y-96234333D02*
X150733333Y-96115285D01*
X150733333Y-96115285D02*
X150757142Y-96020047D01*
X150757142Y-96020047D02*
X150780952Y-95972428D01*
X150780952Y-95972428D02*
X150804761Y-95948619D01*
X150804761Y-95948619D02*
X150852380Y-95924809D01*
X143578571Y-102774809D02*
X143411905Y-102536714D01*
X143292857Y-102774809D02*
X143292857Y-102274809D01*
X143292857Y-102274809D02*
X143483333Y-102274809D01*
X143483333Y-102274809D02*
X143530952Y-102298619D01*
X143530952Y-102298619D02*
X143554762Y-102322428D01*
X143554762Y-102322428D02*
X143578571Y-102370047D01*
X143578571Y-102370047D02*
X143578571Y-102441476D01*
X143578571Y-102441476D02*
X143554762Y-102489095D01*
X143554762Y-102489095D02*
X143530952Y-102512904D01*
X143530952Y-102512904D02*
X143483333Y-102536714D01*
X143483333Y-102536714D02*
X143292857Y-102536714D01*
X144054762Y-102774809D02*
X143769048Y-102774809D01*
X143911905Y-102774809D02*
X143911905Y-102274809D01*
X143911905Y-102274809D02*
X143864286Y-102346238D01*
X143864286Y-102346238D02*
X143816667Y-102393857D01*
X143816667Y-102393857D02*
X143769048Y-102417666D01*
X144292857Y-102774809D02*
X144388095Y-102774809D01*
X144388095Y-102774809D02*
X144435714Y-102751000D01*
X144435714Y-102751000D02*
X144459523Y-102727190D01*
X144459523Y-102727190D02*
X144507142Y-102655761D01*
X144507142Y-102655761D02*
X144530952Y-102560523D01*
X144530952Y-102560523D02*
X144530952Y-102370047D01*
X144530952Y-102370047D02*
X144507142Y-102322428D01*
X144507142Y-102322428D02*
X144483333Y-102298619D01*
X144483333Y-102298619D02*
X144435714Y-102274809D01*
X144435714Y-102274809D02*
X144340476Y-102274809D01*
X144340476Y-102274809D02*
X144292857Y-102298619D01*
X144292857Y-102298619D02*
X144269047Y-102322428D01*
X144269047Y-102322428D02*
X144245238Y-102370047D01*
X144245238Y-102370047D02*
X144245238Y-102489095D01*
X144245238Y-102489095D02*
X144269047Y-102536714D01*
X144269047Y-102536714D02*
X144292857Y-102560523D01*
X144292857Y-102560523D02*
X144340476Y-102584333D01*
X144340476Y-102584333D02*
X144435714Y-102584333D01*
X144435714Y-102584333D02*
X144483333Y-102560523D01*
X144483333Y-102560523D02*
X144507142Y-102536714D01*
X144507142Y-102536714D02*
X144530952Y-102489095D01*
X143516667Y-103624809D02*
X143230953Y-103624809D01*
X143373810Y-103624809D02*
X143373810Y-103124809D01*
X143373810Y-103124809D02*
X143326191Y-103196238D01*
X143326191Y-103196238D02*
X143278572Y-103243857D01*
X143278572Y-103243857D02*
X143230953Y-103267666D01*
X143826190Y-103124809D02*
X143873809Y-103124809D01*
X143873809Y-103124809D02*
X143921428Y-103148619D01*
X143921428Y-103148619D02*
X143945238Y-103172428D01*
X143945238Y-103172428D02*
X143969047Y-103220047D01*
X143969047Y-103220047D02*
X143992857Y-103315285D01*
X143992857Y-103315285D02*
X143992857Y-103434333D01*
X143992857Y-103434333D02*
X143969047Y-103529571D01*
X143969047Y-103529571D02*
X143945238Y-103577190D01*
X143945238Y-103577190D02*
X143921428Y-103601000D01*
X143921428Y-103601000D02*
X143873809Y-103624809D01*
X143873809Y-103624809D02*
X143826190Y-103624809D01*
X143826190Y-103624809D02*
X143778571Y-103601000D01*
X143778571Y-103601000D02*
X143754762Y-103577190D01*
X143754762Y-103577190D02*
X143730952Y-103529571D01*
X143730952Y-103529571D02*
X143707143Y-103434333D01*
X143707143Y-103434333D02*
X143707143Y-103315285D01*
X143707143Y-103315285D02*
X143730952Y-103220047D01*
X143730952Y-103220047D02*
X143754762Y-103172428D01*
X143754762Y-103172428D02*
X143778571Y-103148619D01*
X143778571Y-103148619D02*
X143826190Y-103124809D01*
X144302380Y-103124809D02*
X144349999Y-103124809D01*
X144349999Y-103124809D02*
X144397618Y-103148619D01*
X144397618Y-103148619D02*
X144421428Y-103172428D01*
X144421428Y-103172428D02*
X144445237Y-103220047D01*
X144445237Y-103220047D02*
X144469047Y-103315285D01*
X144469047Y-103315285D02*
X144469047Y-103434333D01*
X144469047Y-103434333D02*
X144445237Y-103529571D01*
X144445237Y-103529571D02*
X144421428Y-103577190D01*
X144421428Y-103577190D02*
X144397618Y-103601000D01*
X144397618Y-103601000D02*
X144349999Y-103624809D01*
X144349999Y-103624809D02*
X144302380Y-103624809D01*
X144302380Y-103624809D02*
X144254761Y-103601000D01*
X144254761Y-103601000D02*
X144230952Y-103577190D01*
X144230952Y-103577190D02*
X144207142Y-103529571D01*
X144207142Y-103529571D02*
X144183333Y-103434333D01*
X144183333Y-103434333D02*
X144183333Y-103315285D01*
X144183333Y-103315285D02*
X144207142Y-103220047D01*
X144207142Y-103220047D02*
X144230952Y-103172428D01*
X144230952Y-103172428D02*
X144254761Y-103148619D01*
X144254761Y-103148619D02*
X144302380Y-103124809D01*
X170366666Y-88524809D02*
X170200000Y-88286714D01*
X170080952Y-88524809D02*
X170080952Y-88024809D01*
X170080952Y-88024809D02*
X170271428Y-88024809D01*
X170271428Y-88024809D02*
X170319047Y-88048619D01*
X170319047Y-88048619D02*
X170342857Y-88072428D01*
X170342857Y-88072428D02*
X170366666Y-88120047D01*
X170366666Y-88120047D02*
X170366666Y-88191476D01*
X170366666Y-88191476D02*
X170342857Y-88239095D01*
X170342857Y-88239095D02*
X170319047Y-88262904D01*
X170319047Y-88262904D02*
X170271428Y-88286714D01*
X170271428Y-88286714D02*
X170080952Y-88286714D01*
X170795238Y-88024809D02*
X170700000Y-88024809D01*
X170700000Y-88024809D02*
X170652381Y-88048619D01*
X170652381Y-88048619D02*
X170628571Y-88072428D01*
X170628571Y-88072428D02*
X170580952Y-88143857D01*
X170580952Y-88143857D02*
X170557143Y-88239095D01*
X170557143Y-88239095D02*
X170557143Y-88429571D01*
X170557143Y-88429571D02*
X170580952Y-88477190D01*
X170580952Y-88477190D02*
X170604762Y-88501000D01*
X170604762Y-88501000D02*
X170652381Y-88524809D01*
X170652381Y-88524809D02*
X170747619Y-88524809D01*
X170747619Y-88524809D02*
X170795238Y-88501000D01*
X170795238Y-88501000D02*
X170819047Y-88477190D01*
X170819047Y-88477190D02*
X170842857Y-88429571D01*
X170842857Y-88429571D02*
X170842857Y-88310523D01*
X170842857Y-88310523D02*
X170819047Y-88262904D01*
X170819047Y-88262904D02*
X170795238Y-88239095D01*
X170795238Y-88239095D02*
X170747619Y-88215285D01*
X170747619Y-88215285D02*
X170652381Y-88215285D01*
X170652381Y-88215285D02*
X170604762Y-88239095D01*
X170604762Y-88239095D02*
X170580952Y-88262904D01*
X170580952Y-88262904D02*
X170557143Y-88310523D01*
X170280952Y-88874809D02*
X170042857Y-88874809D01*
X170042857Y-88874809D02*
X170019048Y-89112904D01*
X170019048Y-89112904D02*
X170042857Y-89089095D01*
X170042857Y-89089095D02*
X170090476Y-89065285D01*
X170090476Y-89065285D02*
X170209524Y-89065285D01*
X170209524Y-89065285D02*
X170257143Y-89089095D01*
X170257143Y-89089095D02*
X170280952Y-89112904D01*
X170280952Y-89112904D02*
X170304762Y-89160523D01*
X170304762Y-89160523D02*
X170304762Y-89279571D01*
X170304762Y-89279571D02*
X170280952Y-89327190D01*
X170280952Y-89327190D02*
X170257143Y-89351000D01*
X170257143Y-89351000D02*
X170209524Y-89374809D01*
X170209524Y-89374809D02*
X170090476Y-89374809D01*
X170090476Y-89374809D02*
X170042857Y-89351000D01*
X170042857Y-89351000D02*
X170019048Y-89327190D01*
X170519047Y-89374809D02*
X170519047Y-88874809D01*
X170804761Y-89374809D02*
X170590476Y-89089095D01*
X170804761Y-88874809D02*
X170519047Y-89160523D01*
X171280952Y-89374809D02*
X170995238Y-89374809D01*
X171138095Y-89374809D02*
X171138095Y-88874809D01*
X171138095Y-88874809D02*
X171090476Y-88946238D01*
X171090476Y-88946238D02*
X171042857Y-88993857D01*
X171042857Y-88993857D02*
X170995238Y-89017666D01*
X177883333Y-86374809D02*
X177883333Y-86731952D01*
X177883333Y-86731952D02*
X177859524Y-86803380D01*
X177859524Y-86803380D02*
X177811905Y-86851000D01*
X177811905Y-86851000D02*
X177740476Y-86874809D01*
X177740476Y-86874809D02*
X177692857Y-86874809D01*
X178097619Y-86422428D02*
X178121428Y-86398619D01*
X178121428Y-86398619D02*
X178169047Y-86374809D01*
X178169047Y-86374809D02*
X178288095Y-86374809D01*
X178288095Y-86374809D02*
X178335714Y-86398619D01*
X178335714Y-86398619D02*
X178359523Y-86422428D01*
X178359523Y-86422428D02*
X178383333Y-86470047D01*
X178383333Y-86470047D02*
X178383333Y-86517666D01*
X178383333Y-86517666D02*
X178359523Y-86589095D01*
X178359523Y-86589095D02*
X178073809Y-86874809D01*
X178073809Y-86874809D02*
X178383333Y-86874809D01*
X170328571Y-90624809D02*
X170161905Y-90386714D01*
X170042857Y-90624809D02*
X170042857Y-90124809D01*
X170042857Y-90124809D02*
X170233333Y-90124809D01*
X170233333Y-90124809D02*
X170280952Y-90148619D01*
X170280952Y-90148619D02*
X170304762Y-90172428D01*
X170304762Y-90172428D02*
X170328571Y-90220047D01*
X170328571Y-90220047D02*
X170328571Y-90291476D01*
X170328571Y-90291476D02*
X170304762Y-90339095D01*
X170304762Y-90339095D02*
X170280952Y-90362904D01*
X170280952Y-90362904D02*
X170233333Y-90386714D01*
X170233333Y-90386714D02*
X170042857Y-90386714D01*
X170804762Y-90624809D02*
X170519048Y-90624809D01*
X170661905Y-90624809D02*
X170661905Y-90124809D01*
X170661905Y-90124809D02*
X170614286Y-90196238D01*
X170614286Y-90196238D02*
X170566667Y-90243857D01*
X170566667Y-90243857D02*
X170519048Y-90267666D01*
X170971428Y-90124809D02*
X171280952Y-90124809D01*
X171280952Y-90124809D02*
X171114285Y-90315285D01*
X171114285Y-90315285D02*
X171185714Y-90315285D01*
X171185714Y-90315285D02*
X171233333Y-90339095D01*
X171233333Y-90339095D02*
X171257142Y-90362904D01*
X171257142Y-90362904D02*
X171280952Y-90410523D01*
X171280952Y-90410523D02*
X171280952Y-90529571D01*
X171280952Y-90529571D02*
X171257142Y-90577190D01*
X171257142Y-90577190D02*
X171233333Y-90601000D01*
X171233333Y-90601000D02*
X171185714Y-90624809D01*
X171185714Y-90624809D02*
X171042857Y-90624809D01*
X171042857Y-90624809D02*
X170995238Y-90601000D01*
X170995238Y-90601000D02*
X170971428Y-90577190D01*
X170219048Y-91072428D02*
X170242857Y-91048619D01*
X170242857Y-91048619D02*
X170290476Y-91024809D01*
X170290476Y-91024809D02*
X170409524Y-91024809D01*
X170409524Y-91024809D02*
X170457143Y-91048619D01*
X170457143Y-91048619D02*
X170480952Y-91072428D01*
X170480952Y-91072428D02*
X170504762Y-91120047D01*
X170504762Y-91120047D02*
X170504762Y-91167666D01*
X170504762Y-91167666D02*
X170480952Y-91239095D01*
X170480952Y-91239095D02*
X170195238Y-91524809D01*
X170195238Y-91524809D02*
X170504762Y-91524809D01*
X170671428Y-91024809D02*
X171004761Y-91024809D01*
X171004761Y-91024809D02*
X170790476Y-91524809D01*
X170278571Y-92674809D02*
X170111905Y-92436714D01*
X169992857Y-92674809D02*
X169992857Y-92174809D01*
X169992857Y-92174809D02*
X170183333Y-92174809D01*
X170183333Y-92174809D02*
X170230952Y-92198619D01*
X170230952Y-92198619D02*
X170254762Y-92222428D01*
X170254762Y-92222428D02*
X170278571Y-92270047D01*
X170278571Y-92270047D02*
X170278571Y-92341476D01*
X170278571Y-92341476D02*
X170254762Y-92389095D01*
X170254762Y-92389095D02*
X170230952Y-92412904D01*
X170230952Y-92412904D02*
X170183333Y-92436714D01*
X170183333Y-92436714D02*
X169992857Y-92436714D01*
X170754762Y-92674809D02*
X170469048Y-92674809D01*
X170611905Y-92674809D02*
X170611905Y-92174809D01*
X170611905Y-92174809D02*
X170564286Y-92246238D01*
X170564286Y-92246238D02*
X170516667Y-92293857D01*
X170516667Y-92293857D02*
X170469048Y-92317666D01*
X170945238Y-92222428D02*
X170969047Y-92198619D01*
X170969047Y-92198619D02*
X171016666Y-92174809D01*
X171016666Y-92174809D02*
X171135714Y-92174809D01*
X171135714Y-92174809D02*
X171183333Y-92198619D01*
X171183333Y-92198619D02*
X171207142Y-92222428D01*
X171207142Y-92222428D02*
X171230952Y-92270047D01*
X171230952Y-92270047D02*
X171230952Y-92317666D01*
X171230952Y-92317666D02*
X171207142Y-92389095D01*
X171207142Y-92389095D02*
X170921428Y-92674809D01*
X170921428Y-92674809D02*
X171230952Y-92674809D01*
X170219048Y-93172428D02*
X170242857Y-93148619D01*
X170242857Y-93148619D02*
X170290476Y-93124809D01*
X170290476Y-93124809D02*
X170409524Y-93124809D01*
X170409524Y-93124809D02*
X170457143Y-93148619D01*
X170457143Y-93148619D02*
X170480952Y-93172428D01*
X170480952Y-93172428D02*
X170504762Y-93220047D01*
X170504762Y-93220047D02*
X170504762Y-93267666D01*
X170504762Y-93267666D02*
X170480952Y-93339095D01*
X170480952Y-93339095D02*
X170195238Y-93624809D01*
X170195238Y-93624809D02*
X170504762Y-93624809D01*
X170671428Y-93124809D02*
X171004761Y-93124809D01*
X171004761Y-93124809D02*
X170790476Y-93624809D01*
X146074809Y-76321428D02*
X145836714Y-76488094D01*
X146074809Y-76607142D02*
X145574809Y-76607142D01*
X145574809Y-76607142D02*
X145574809Y-76416666D01*
X145574809Y-76416666D02*
X145598619Y-76369047D01*
X145598619Y-76369047D02*
X145622428Y-76345237D01*
X145622428Y-76345237D02*
X145670047Y-76321428D01*
X145670047Y-76321428D02*
X145741476Y-76321428D01*
X145741476Y-76321428D02*
X145789095Y-76345237D01*
X145789095Y-76345237D02*
X145812904Y-76369047D01*
X145812904Y-76369047D02*
X145836714Y-76416666D01*
X145836714Y-76416666D02*
X145836714Y-76607142D01*
X145622428Y-76130951D02*
X145598619Y-76107142D01*
X145598619Y-76107142D02*
X145574809Y-76059523D01*
X145574809Y-76059523D02*
X145574809Y-75940475D01*
X145574809Y-75940475D02*
X145598619Y-75892856D01*
X145598619Y-75892856D02*
X145622428Y-75869047D01*
X145622428Y-75869047D02*
X145670047Y-75845237D01*
X145670047Y-75845237D02*
X145717666Y-75845237D01*
X145717666Y-75845237D02*
X145789095Y-75869047D01*
X145789095Y-75869047D02*
X146074809Y-76154761D01*
X146074809Y-76154761D02*
X146074809Y-75845237D01*
X145574809Y-75535714D02*
X145574809Y-75488095D01*
X145574809Y-75488095D02*
X145598619Y-75440476D01*
X145598619Y-75440476D02*
X145622428Y-75416666D01*
X145622428Y-75416666D02*
X145670047Y-75392857D01*
X145670047Y-75392857D02*
X145765285Y-75369047D01*
X145765285Y-75369047D02*
X145884333Y-75369047D01*
X145884333Y-75369047D02*
X145979571Y-75392857D01*
X145979571Y-75392857D02*
X146027190Y-75416666D01*
X146027190Y-75416666D02*
X146051000Y-75440476D01*
X146051000Y-75440476D02*
X146074809Y-75488095D01*
X146074809Y-75488095D02*
X146074809Y-75535714D01*
X146074809Y-75535714D02*
X146051000Y-75583333D01*
X146051000Y-75583333D02*
X146027190Y-75607142D01*
X146027190Y-75607142D02*
X145979571Y-75630952D01*
X145979571Y-75630952D02*
X145884333Y-75654761D01*
X145884333Y-75654761D02*
X145765285Y-75654761D01*
X145765285Y-75654761D02*
X145670047Y-75630952D01*
X145670047Y-75630952D02*
X145622428Y-75607142D01*
X145622428Y-75607142D02*
X145598619Y-75583333D01*
X145598619Y-75583333D02*
X145574809Y-75535714D01*
X146622428Y-76680951D02*
X146598619Y-76657142D01*
X146598619Y-76657142D02*
X146574809Y-76609523D01*
X146574809Y-76609523D02*
X146574809Y-76490475D01*
X146574809Y-76490475D02*
X146598619Y-76442856D01*
X146598619Y-76442856D02*
X146622428Y-76419047D01*
X146622428Y-76419047D02*
X146670047Y-76395237D01*
X146670047Y-76395237D02*
X146717666Y-76395237D01*
X146717666Y-76395237D02*
X146789095Y-76419047D01*
X146789095Y-76419047D02*
X147074809Y-76704761D01*
X147074809Y-76704761D02*
X147074809Y-76395237D01*
X147074809Y-76180952D02*
X146574809Y-76180952D01*
X147074809Y-75895238D02*
X146789095Y-76109523D01*
X146574809Y-75895238D02*
X146860523Y-76180952D01*
X146622428Y-75704761D02*
X146598619Y-75680952D01*
X146598619Y-75680952D02*
X146574809Y-75633333D01*
X146574809Y-75633333D02*
X146574809Y-75514285D01*
X146574809Y-75514285D02*
X146598619Y-75466666D01*
X146598619Y-75466666D02*
X146622428Y-75442857D01*
X146622428Y-75442857D02*
X146670047Y-75419047D01*
X146670047Y-75419047D02*
X146717666Y-75419047D01*
X146717666Y-75419047D02*
X146789095Y-75442857D01*
X146789095Y-75442857D02*
X147074809Y-75728571D01*
X147074809Y-75728571D02*
X147074809Y-75419047D01*
X150128571Y-91624809D02*
X149961905Y-91386714D01*
X149842857Y-91624809D02*
X149842857Y-91124809D01*
X149842857Y-91124809D02*
X150033333Y-91124809D01*
X150033333Y-91124809D02*
X150080952Y-91148619D01*
X150080952Y-91148619D02*
X150104762Y-91172428D01*
X150104762Y-91172428D02*
X150128571Y-91220047D01*
X150128571Y-91220047D02*
X150128571Y-91291476D01*
X150128571Y-91291476D02*
X150104762Y-91339095D01*
X150104762Y-91339095D02*
X150080952Y-91362904D01*
X150080952Y-91362904D02*
X150033333Y-91386714D01*
X150033333Y-91386714D02*
X149842857Y-91386714D01*
X150319048Y-91172428D02*
X150342857Y-91148619D01*
X150342857Y-91148619D02*
X150390476Y-91124809D01*
X150390476Y-91124809D02*
X150509524Y-91124809D01*
X150509524Y-91124809D02*
X150557143Y-91148619D01*
X150557143Y-91148619D02*
X150580952Y-91172428D01*
X150580952Y-91172428D02*
X150604762Y-91220047D01*
X150604762Y-91220047D02*
X150604762Y-91267666D01*
X150604762Y-91267666D02*
X150580952Y-91339095D01*
X150580952Y-91339095D02*
X150295238Y-91624809D01*
X150295238Y-91624809D02*
X150604762Y-91624809D01*
X151033333Y-91291476D02*
X151033333Y-91624809D01*
X150914285Y-91101000D02*
X150795238Y-91458142D01*
X150795238Y-91458142D02*
X151104761Y-91458142D01*
X150066667Y-92374809D02*
X149780953Y-92374809D01*
X149923810Y-92374809D02*
X149923810Y-91874809D01*
X149923810Y-91874809D02*
X149876191Y-91946238D01*
X149876191Y-91946238D02*
X149828572Y-91993857D01*
X149828572Y-91993857D02*
X149780953Y-92017666D01*
X150376190Y-91874809D02*
X150423809Y-91874809D01*
X150423809Y-91874809D02*
X150471428Y-91898619D01*
X150471428Y-91898619D02*
X150495238Y-91922428D01*
X150495238Y-91922428D02*
X150519047Y-91970047D01*
X150519047Y-91970047D02*
X150542857Y-92065285D01*
X150542857Y-92065285D02*
X150542857Y-92184333D01*
X150542857Y-92184333D02*
X150519047Y-92279571D01*
X150519047Y-92279571D02*
X150495238Y-92327190D01*
X150495238Y-92327190D02*
X150471428Y-92351000D01*
X150471428Y-92351000D02*
X150423809Y-92374809D01*
X150423809Y-92374809D02*
X150376190Y-92374809D01*
X150376190Y-92374809D02*
X150328571Y-92351000D01*
X150328571Y-92351000D02*
X150304762Y-92327190D01*
X150304762Y-92327190D02*
X150280952Y-92279571D01*
X150280952Y-92279571D02*
X150257143Y-92184333D01*
X150257143Y-92184333D02*
X150257143Y-92065285D01*
X150257143Y-92065285D02*
X150280952Y-91970047D01*
X150280952Y-91970047D02*
X150304762Y-91922428D01*
X150304762Y-91922428D02*
X150328571Y-91898619D01*
X150328571Y-91898619D02*
X150376190Y-91874809D01*
X150852380Y-91874809D02*
X150899999Y-91874809D01*
X150899999Y-91874809D02*
X150947618Y-91898619D01*
X150947618Y-91898619D02*
X150971428Y-91922428D01*
X150971428Y-91922428D02*
X150995237Y-91970047D01*
X150995237Y-91970047D02*
X151019047Y-92065285D01*
X151019047Y-92065285D02*
X151019047Y-92184333D01*
X151019047Y-92184333D02*
X150995237Y-92279571D01*
X150995237Y-92279571D02*
X150971428Y-92327190D01*
X150971428Y-92327190D02*
X150947618Y-92351000D01*
X150947618Y-92351000D02*
X150899999Y-92374809D01*
X150899999Y-92374809D02*
X150852380Y-92374809D01*
X150852380Y-92374809D02*
X150804761Y-92351000D01*
X150804761Y-92351000D02*
X150780952Y-92327190D01*
X150780952Y-92327190D02*
X150757142Y-92279571D01*
X150757142Y-92279571D02*
X150733333Y-92184333D01*
X150733333Y-92184333D02*
X150733333Y-92065285D01*
X150733333Y-92065285D02*
X150757142Y-91970047D01*
X150757142Y-91970047D02*
X150780952Y-91922428D01*
X150780952Y-91922428D02*
X150804761Y-91898619D01*
X150804761Y-91898619D02*
X150852380Y-91874809D01*
X143528571Y-98674809D02*
X143361905Y-98436714D01*
X143242857Y-98674809D02*
X143242857Y-98174809D01*
X143242857Y-98174809D02*
X143433333Y-98174809D01*
X143433333Y-98174809D02*
X143480952Y-98198619D01*
X143480952Y-98198619D02*
X143504762Y-98222428D01*
X143504762Y-98222428D02*
X143528571Y-98270047D01*
X143528571Y-98270047D02*
X143528571Y-98341476D01*
X143528571Y-98341476D02*
X143504762Y-98389095D01*
X143504762Y-98389095D02*
X143480952Y-98412904D01*
X143480952Y-98412904D02*
X143433333Y-98436714D01*
X143433333Y-98436714D02*
X143242857Y-98436714D01*
X144004762Y-98674809D02*
X143719048Y-98674809D01*
X143861905Y-98674809D02*
X143861905Y-98174809D01*
X143861905Y-98174809D02*
X143814286Y-98246238D01*
X143814286Y-98246238D02*
X143766667Y-98293857D01*
X143766667Y-98293857D02*
X143719048Y-98317666D01*
X144433333Y-98341476D02*
X144433333Y-98674809D01*
X144314285Y-98151000D02*
X144195238Y-98508142D01*
X144195238Y-98508142D02*
X144504761Y-98508142D01*
X143516667Y-99524809D02*
X143230953Y-99524809D01*
X143373810Y-99524809D02*
X143373810Y-99024809D01*
X143373810Y-99024809D02*
X143326191Y-99096238D01*
X143326191Y-99096238D02*
X143278572Y-99143857D01*
X143278572Y-99143857D02*
X143230953Y-99167666D01*
X143826190Y-99024809D02*
X143873809Y-99024809D01*
X143873809Y-99024809D02*
X143921428Y-99048619D01*
X143921428Y-99048619D02*
X143945238Y-99072428D01*
X143945238Y-99072428D02*
X143969047Y-99120047D01*
X143969047Y-99120047D02*
X143992857Y-99215285D01*
X143992857Y-99215285D02*
X143992857Y-99334333D01*
X143992857Y-99334333D02*
X143969047Y-99429571D01*
X143969047Y-99429571D02*
X143945238Y-99477190D01*
X143945238Y-99477190D02*
X143921428Y-99501000D01*
X143921428Y-99501000D02*
X143873809Y-99524809D01*
X143873809Y-99524809D02*
X143826190Y-99524809D01*
X143826190Y-99524809D02*
X143778571Y-99501000D01*
X143778571Y-99501000D02*
X143754762Y-99477190D01*
X143754762Y-99477190D02*
X143730952Y-99429571D01*
X143730952Y-99429571D02*
X143707143Y-99334333D01*
X143707143Y-99334333D02*
X143707143Y-99215285D01*
X143707143Y-99215285D02*
X143730952Y-99120047D01*
X143730952Y-99120047D02*
X143754762Y-99072428D01*
X143754762Y-99072428D02*
X143778571Y-99048619D01*
X143778571Y-99048619D02*
X143826190Y-99024809D01*
X144302380Y-99024809D02*
X144349999Y-99024809D01*
X144349999Y-99024809D02*
X144397618Y-99048619D01*
X144397618Y-99048619D02*
X144421428Y-99072428D01*
X144421428Y-99072428D02*
X144445237Y-99120047D01*
X144445237Y-99120047D02*
X144469047Y-99215285D01*
X144469047Y-99215285D02*
X144469047Y-99334333D01*
X144469047Y-99334333D02*
X144445237Y-99429571D01*
X144445237Y-99429571D02*
X144421428Y-99477190D01*
X144421428Y-99477190D02*
X144397618Y-99501000D01*
X144397618Y-99501000D02*
X144349999Y-99524809D01*
X144349999Y-99524809D02*
X144302380Y-99524809D01*
X144302380Y-99524809D02*
X144254761Y-99501000D01*
X144254761Y-99501000D02*
X144230952Y-99477190D01*
X144230952Y-99477190D02*
X144207142Y-99429571D01*
X144207142Y-99429571D02*
X144183333Y-99334333D01*
X144183333Y-99334333D02*
X144183333Y-99215285D01*
X144183333Y-99215285D02*
X144207142Y-99120047D01*
X144207142Y-99120047D02*
X144230952Y-99072428D01*
X144230952Y-99072428D02*
X144254761Y-99048619D01*
X144254761Y-99048619D02*
X144302380Y-99024809D01*
X139683333Y-87169809D02*
X139683333Y-87526952D01*
X139683333Y-87526952D02*
X139659524Y-87598380D01*
X139659524Y-87598380D02*
X139611905Y-87646000D01*
X139611905Y-87646000D02*
X139540476Y-87669809D01*
X139540476Y-87669809D02*
X139492857Y-87669809D01*
X140135714Y-87336476D02*
X140135714Y-87669809D01*
X140016666Y-87146000D02*
X139897619Y-87503142D01*
X139897619Y-87503142D02*
X140207142Y-87503142D01*
X138576191Y-96909809D02*
X138861905Y-96909809D01*
X138719048Y-97409809D02*
X138719048Y-96909809D01*
X139004762Y-97266952D02*
X139242857Y-97266952D01*
X138957143Y-97409809D02*
X139123809Y-96909809D01*
X139123809Y-96909809D02*
X139290476Y-97409809D01*
X139742856Y-97409809D02*
X139576190Y-97171714D01*
X139457142Y-97409809D02*
X139457142Y-96909809D01*
X139457142Y-96909809D02*
X139647618Y-96909809D01*
X139647618Y-96909809D02*
X139695237Y-96933619D01*
X139695237Y-96933619D02*
X139719047Y-96957428D01*
X139719047Y-96957428D02*
X139742856Y-97005047D01*
X139742856Y-97005047D02*
X139742856Y-97076476D01*
X139742856Y-97076476D02*
X139719047Y-97124095D01*
X139719047Y-97124095D02*
X139695237Y-97147904D01*
X139695237Y-97147904D02*
X139647618Y-97171714D01*
X139647618Y-97171714D02*
X139457142Y-97171714D01*
X140219047Y-96933619D02*
X140171428Y-96909809D01*
X140171428Y-96909809D02*
X140099999Y-96909809D01*
X140099999Y-96909809D02*
X140028571Y-96933619D01*
X140028571Y-96933619D02*
X139980952Y-96981238D01*
X139980952Y-96981238D02*
X139957142Y-97028857D01*
X139957142Y-97028857D02*
X139933333Y-97124095D01*
X139933333Y-97124095D02*
X139933333Y-97195523D01*
X139933333Y-97195523D02*
X139957142Y-97290761D01*
X139957142Y-97290761D02*
X139980952Y-97338380D01*
X139980952Y-97338380D02*
X140028571Y-97386000D01*
X140028571Y-97386000D02*
X140099999Y-97409809D01*
X140099999Y-97409809D02*
X140147618Y-97409809D01*
X140147618Y-97409809D02*
X140219047Y-97386000D01*
X140219047Y-97386000D02*
X140242856Y-97362190D01*
X140242856Y-97362190D02*
X140242856Y-97195523D01*
X140242856Y-97195523D02*
X140147618Y-97195523D01*
X140457142Y-97147904D02*
X140623809Y-97147904D01*
X140695237Y-97409809D02*
X140457142Y-97409809D01*
X140457142Y-97409809D02*
X140457142Y-96909809D01*
X140457142Y-96909809D02*
X140695237Y-96909809D01*
X140838095Y-96909809D02*
X141123809Y-96909809D01*
X140980952Y-97409809D02*
X140980952Y-96909809D01*
X133283333Y-82324809D02*
X133283333Y-82681952D01*
X133283333Y-82681952D02*
X133259524Y-82753380D01*
X133259524Y-82753380D02*
X133211905Y-82801000D01*
X133211905Y-82801000D02*
X133140476Y-82824809D01*
X133140476Y-82824809D02*
X133092857Y-82824809D01*
X133473809Y-82324809D02*
X133783333Y-82324809D01*
X133783333Y-82324809D02*
X133616666Y-82515285D01*
X133616666Y-82515285D02*
X133688095Y-82515285D01*
X133688095Y-82515285D02*
X133735714Y-82539095D01*
X133735714Y-82539095D02*
X133759523Y-82562904D01*
X133759523Y-82562904D02*
X133783333Y-82610523D01*
X133783333Y-82610523D02*
X133783333Y-82729571D01*
X133783333Y-82729571D02*
X133759523Y-82777190D01*
X133759523Y-82777190D02*
X133735714Y-82801000D01*
X133735714Y-82801000D02*
X133688095Y-82824809D01*
X133688095Y-82824809D02*
X133545238Y-82824809D01*
X133545238Y-82824809D02*
X133497619Y-82801000D01*
X133497619Y-82801000D02*
X133473809Y-82777190D01*
X126747621Y-82881952D02*
X126985716Y-82881952D01*
X126700002Y-83024809D02*
X126866668Y-82524809D01*
X126866668Y-82524809D02*
X127033335Y-83024809D01*
X127485715Y-83024809D02*
X127319049Y-82786714D01*
X127200001Y-83024809D02*
X127200001Y-82524809D01*
X127200001Y-82524809D02*
X127390477Y-82524809D01*
X127390477Y-82524809D02*
X127438096Y-82548619D01*
X127438096Y-82548619D02*
X127461906Y-82572428D01*
X127461906Y-82572428D02*
X127485715Y-82620047D01*
X127485715Y-82620047D02*
X127485715Y-82691476D01*
X127485715Y-82691476D02*
X127461906Y-82739095D01*
X127461906Y-82739095D02*
X127438096Y-82762904D01*
X127438096Y-82762904D02*
X127390477Y-82786714D01*
X127390477Y-82786714D02*
X127200001Y-82786714D01*
X127700001Y-83024809D02*
X127700001Y-82524809D01*
X127700001Y-82524809D02*
X127866668Y-82881952D01*
X127866668Y-82881952D02*
X128033334Y-82524809D01*
X128033334Y-82524809D02*
X128033334Y-83024809D01*
X128152383Y-83072428D02*
X128533335Y-83072428D01*
X128795239Y-82524809D02*
X128795239Y-82881952D01*
X128795239Y-82881952D02*
X128771430Y-82953380D01*
X128771430Y-82953380D02*
X128723811Y-83001000D01*
X128723811Y-83001000D02*
X128652382Y-83024809D01*
X128652382Y-83024809D02*
X128604763Y-83024809D01*
X128961906Y-82524809D02*
X129247620Y-82524809D01*
X129104763Y-83024809D02*
X129104763Y-82524809D01*
X129390477Y-82881952D02*
X129628572Y-82881952D01*
X129342858Y-83024809D02*
X129509524Y-82524809D01*
X129509524Y-82524809D02*
X129676191Y-83024809D01*
X130104762Y-82548619D02*
X130057143Y-82524809D01*
X130057143Y-82524809D02*
X129985714Y-82524809D01*
X129985714Y-82524809D02*
X129914286Y-82548619D01*
X129914286Y-82548619D02*
X129866667Y-82596238D01*
X129866667Y-82596238D02*
X129842857Y-82643857D01*
X129842857Y-82643857D02*
X129819048Y-82739095D01*
X129819048Y-82739095D02*
X129819048Y-82810523D01*
X129819048Y-82810523D02*
X129842857Y-82905761D01*
X129842857Y-82905761D02*
X129866667Y-82953380D01*
X129866667Y-82953380D02*
X129914286Y-83001000D01*
X129914286Y-83001000D02*
X129985714Y-83024809D01*
X129985714Y-83024809D02*
X130033333Y-83024809D01*
X130033333Y-83024809D02*
X130104762Y-83001000D01*
X130104762Y-83001000D02*
X130128571Y-82977190D01*
X130128571Y-82977190D02*
X130128571Y-82810523D01*
X130128571Y-82810523D02*
X130033333Y-82810523D01*
X130223810Y-83072428D02*
X130604762Y-83072428D01*
X130985714Y-83024809D02*
X130700000Y-83024809D01*
X130842857Y-83024809D02*
X130842857Y-82524809D01*
X130842857Y-82524809D02*
X130795238Y-82596238D01*
X130795238Y-82596238D02*
X130747619Y-82643857D01*
X130747619Y-82643857D02*
X130700000Y-82667666D01*
X131295237Y-82524809D02*
X131342856Y-82524809D01*
X131342856Y-82524809D02*
X131390475Y-82548619D01*
X131390475Y-82548619D02*
X131414285Y-82572428D01*
X131414285Y-82572428D02*
X131438094Y-82620047D01*
X131438094Y-82620047D02*
X131461904Y-82715285D01*
X131461904Y-82715285D02*
X131461904Y-82834333D01*
X131461904Y-82834333D02*
X131438094Y-82929571D01*
X131438094Y-82929571D02*
X131414285Y-82977190D01*
X131414285Y-82977190D02*
X131390475Y-83001000D01*
X131390475Y-83001000D02*
X131342856Y-83024809D01*
X131342856Y-83024809D02*
X131295237Y-83024809D01*
X131295237Y-83024809D02*
X131247618Y-83001000D01*
X131247618Y-83001000D02*
X131223809Y-82977190D01*
X131223809Y-82977190D02*
X131199999Y-82929571D01*
X131199999Y-82929571D02*
X131176190Y-82834333D01*
X131176190Y-82834333D02*
X131176190Y-82715285D01*
X131176190Y-82715285D02*
X131199999Y-82620047D01*
X131199999Y-82620047D02*
X131223809Y-82572428D01*
X131223809Y-82572428D02*
X131247618Y-82548619D01*
X131247618Y-82548619D02*
X131295237Y-82524809D01*
X131676189Y-83024809D02*
X131676189Y-82524809D01*
X131676189Y-82524809D02*
X131866665Y-82524809D01*
X131866665Y-82524809D02*
X131914284Y-82548619D01*
X131914284Y-82548619D02*
X131938094Y-82572428D01*
X131938094Y-82572428D02*
X131961903Y-82620047D01*
X131961903Y-82620047D02*
X131961903Y-82691476D01*
X131961903Y-82691476D02*
X131938094Y-82739095D01*
X131938094Y-82739095D02*
X131914284Y-82762904D01*
X131914284Y-82762904D02*
X131866665Y-82786714D01*
X131866665Y-82786714D02*
X131676189Y-82786714D01*
X132176189Y-83024809D02*
X132176189Y-82691476D01*
X132176189Y-82524809D02*
X132152380Y-82548619D01*
X132152380Y-82548619D02*
X132176189Y-82572428D01*
X132176189Y-82572428D02*
X132199999Y-82548619D01*
X132199999Y-82548619D02*
X132176189Y-82524809D01*
X132176189Y-82524809D02*
X132176189Y-82572428D01*
X132414284Y-82691476D02*
X132414284Y-83024809D01*
X132414284Y-82739095D02*
X132438094Y-82715285D01*
X132438094Y-82715285D02*
X132485713Y-82691476D01*
X132485713Y-82691476D02*
X132557141Y-82691476D01*
X132557141Y-82691476D02*
X132604760Y-82715285D01*
X132604760Y-82715285D02*
X132628570Y-82762904D01*
X132628570Y-82762904D02*
X132628570Y-83024809D01*
X143633333Y-87154809D02*
X143633333Y-87511952D01*
X143633333Y-87511952D02*
X143609524Y-87583380D01*
X143609524Y-87583380D02*
X143561905Y-87631000D01*
X143561905Y-87631000D02*
X143490476Y-87654809D01*
X143490476Y-87654809D02*
X143442857Y-87654809D01*
X143823809Y-87154809D02*
X144157142Y-87154809D01*
X144157142Y-87154809D02*
X143942857Y-87654809D01*
X143002381Y-96894809D02*
X143002381Y-97299571D01*
X143002381Y-97299571D02*
X143026191Y-97347190D01*
X143026191Y-97347190D02*
X143050000Y-97371000D01*
X143050000Y-97371000D02*
X143097619Y-97394809D01*
X143097619Y-97394809D02*
X143192857Y-97394809D01*
X143192857Y-97394809D02*
X143240476Y-97371000D01*
X143240476Y-97371000D02*
X143264286Y-97347190D01*
X143264286Y-97347190D02*
X143288095Y-97299571D01*
X143288095Y-97299571D02*
X143288095Y-96894809D01*
X143502382Y-97251952D02*
X143740477Y-97251952D01*
X143454763Y-97394809D02*
X143621429Y-96894809D01*
X143621429Y-96894809D02*
X143788096Y-97394809D01*
X144240476Y-97394809D02*
X144073810Y-97156714D01*
X143954762Y-97394809D02*
X143954762Y-96894809D01*
X143954762Y-96894809D02*
X144145238Y-96894809D01*
X144145238Y-96894809D02*
X144192857Y-96918619D01*
X144192857Y-96918619D02*
X144216667Y-96942428D01*
X144216667Y-96942428D02*
X144240476Y-96990047D01*
X144240476Y-96990047D02*
X144240476Y-97061476D01*
X144240476Y-97061476D02*
X144216667Y-97109095D01*
X144216667Y-97109095D02*
X144192857Y-97132904D01*
X144192857Y-97132904D02*
X144145238Y-97156714D01*
X144145238Y-97156714D02*
X143954762Y-97156714D01*
X144383334Y-96894809D02*
X144669048Y-96894809D01*
X144526191Y-97394809D02*
X144526191Y-96894809D01*
D14*
%TO.C,Y1*%
X146150000Y-99950000D02*
X146150000Y-105050000D01*
X146150000Y-105050000D02*
X158750000Y-105050000D01*
X158750000Y-99950000D02*
X146150000Y-99950000D01*
%TO.C,U1*%
X152090000Y-89040000D02*
X151850000Y-88710000D01*
X152330000Y-88710000D01*
X152090000Y-89040000D01*
G36*
X152090000Y-89040000D02*
G01*
X151850000Y-88710000D01*
X152330000Y-88710000D01*
X152090000Y-89040000D01*
G37*
X159310000Y-96260000D02*
X159310000Y-95610000D01*
X159310000Y-89040000D02*
X159310000Y-89690000D01*
X158660000Y-96260000D02*
X159310000Y-96260000D01*
X158660000Y-89040000D02*
X159310000Y-89040000D01*
X152740000Y-96260000D02*
X152090000Y-96260000D01*
X152740000Y-89040000D02*
X152390000Y-89040000D01*
X152090000Y-96260000D02*
X152090000Y-95610000D01*
X152090000Y-89690000D02*
X152090000Y-89280000D01*
%TO.C,R3*%
X168077064Y-100435000D02*
X167622936Y-100435000D01*
X168077064Y-98965000D02*
X167622936Y-98965000D01*
%TO.C,D1*%
X169659998Y-98460000D02*
X169659999Y-96540002D01*
X169659999Y-96540002D02*
X166800000Y-96540000D01*
X166799998Y-98460000D02*
X169659998Y-98460000D01*
%TO.C,C13*%
X163210000Y-102003731D02*
X163210000Y-102296267D01*
X162190000Y-102003733D02*
X162190000Y-102296269D01*
%TO.C,C12*%
X168060000Y-85453731D02*
X168060000Y-85746267D01*
X167040000Y-85453733D02*
X167040000Y-85746269D01*
%TO.C,C11*%
X169760000Y-85453731D02*
X169760000Y-85746267D01*
X168740000Y-85453733D02*
X168740000Y-85746269D01*
%TO.C,C10*%
X171410000Y-85453731D02*
X171410000Y-85746267D01*
X170390000Y-85453733D02*
X170390000Y-85746269D01*
%TO.C,C9*%
X164660000Y-85453731D02*
X164660000Y-85746267D01*
X163640000Y-85453733D02*
X163640000Y-85746269D01*
%TO.C,C8*%
X166360000Y-85453731D02*
X166360000Y-85746267D01*
X165340000Y-85453733D02*
X165340000Y-85746269D01*
%TO.C,C7*%
X170210000Y-103153731D02*
X170210000Y-103446267D01*
X169190000Y-103153733D02*
X169190000Y-103446269D01*
%TO.C,C6*%
X168510000Y-103153731D02*
X168510000Y-103446267D01*
X167490000Y-103153733D02*
X167490000Y-103446269D01*
%TO.C,C5*%
X166832500Y-103153731D02*
X166832500Y-103446267D01*
X165812500Y-103153733D02*
X165812500Y-103446269D01*
%TO.C,C4*%
X161260000Y-85453731D02*
X161260000Y-85746267D01*
X160240000Y-85453733D02*
X160240000Y-85746269D01*
%TO.C,C3*%
X163010000Y-85453731D02*
X163010000Y-85746267D01*
X161990000Y-85453733D02*
X161990000Y-85746269D01*
%TO.C,C2*%
X158540000Y-85453733D02*
X158540000Y-85746269D01*
X159560000Y-85453731D02*
X159560000Y-85746267D01*
%TO.C,R2*%
X163815001Y-102327064D02*
X163815001Y-101872936D01*
X165285001Y-102327064D02*
X165285001Y-101872936D01*
%TO.C,D3*%
X158590002Y-75990002D02*
X158590000Y-78850000D01*
X160510000Y-75990003D02*
X158590002Y-75990002D01*
X160510000Y-78850002D02*
X160510000Y-75990003D01*
%TO.C,C18*%
X168440000Y-81046269D02*
X168440000Y-80753733D01*
X169460000Y-81046267D02*
X169460000Y-80753731D01*
%TO.C,R23*%
X147877064Y-88965000D02*
X147422936Y-88965000D01*
X147877064Y-90435000D02*
X147422936Y-90435000D01*
%TO.C,R25*%
X147927064Y-93065000D02*
X147472936Y-93065000D01*
X147927064Y-94535000D02*
X147472936Y-94535000D01*
%TO.C,C17*%
X157040000Y-77903733D02*
X157040000Y-78196269D01*
X158060000Y-77903731D02*
X158060000Y-78196267D01*
%TO.C,SW2*%
X136620000Y-79720000D02*
X143080000Y-79720000D01*
X136620000Y-79750000D02*
X136620000Y-79720000D01*
X136620000Y-81650000D02*
X136620000Y-84250000D01*
X136620000Y-86180000D02*
X136620001Y-86150000D01*
X136620000Y-86180000D02*
X143080000Y-86180000D01*
X143080000Y-79720000D02*
X143079999Y-79750000D01*
X143080000Y-81650000D02*
X143080000Y-84250000D01*
X143080000Y-86180000D02*
X143080000Y-86150000D01*
%TO.C,C1*%
X160490001Y-102003733D02*
X160490001Y-102296269D01*
X161510001Y-102003731D02*
X161510001Y-102296267D01*
%TO.C,R1*%
X168027061Y-94514998D02*
X167572933Y-94514998D01*
X168027061Y-95984998D02*
X167572933Y-95984998D01*
%TO.C,U4*%
X149975000Y-80175000D02*
X149975000Y-80435000D01*
X149975000Y-85625000D02*
X149975001Y-85365005D01*
X152700000Y-80175000D02*
X149975000Y-80175000D01*
X152700000Y-80175000D02*
X155425000Y-80175000D01*
X152700000Y-85625000D02*
X149975000Y-85625000D01*
X152700000Y-85625000D02*
X155425000Y-85625000D01*
X155425000Y-80175000D02*
X155424999Y-80434995D01*
X155425000Y-85625000D02*
X155425000Y-85365000D01*
X149192499Y-80435001D02*
X148952500Y-80105000D01*
X149432500Y-80105000D01*
X149192499Y-80435001D01*
G36*
X149192499Y-80435001D02*
G01*
X148952500Y-80105000D01*
X149432500Y-80105000D01*
X149192499Y-80435001D01*
G37*
%TO.C,U6*%
X160989999Y-81050000D02*
X160990000Y-77290001D01*
X160990000Y-77290001D02*
X162249999Y-77290000D01*
X167809999Y-81050000D02*
X167810001Y-77290000D01*
X167810001Y-77290000D02*
X166549999Y-77290001D01*
X161090000Y-82330000D02*
X160760000Y-82569998D01*
X160760000Y-82090000D01*
X161090000Y-82330000D01*
G36*
X161090000Y-82330000D02*
G01*
X160760000Y-82569998D01*
X160760000Y-82090000D01*
X161090000Y-82330000D01*
G37*
%TO.C,C16*%
X153140001Y-77891233D02*
X153140001Y-78183770D01*
X154160001Y-77891232D02*
X154160001Y-78183769D01*
%TO.C,R17*%
X140472936Y-100265000D02*
X140927064Y-100265000D01*
X140472936Y-101735000D02*
X140927064Y-101735000D01*
%TO.C,R22*%
X154815000Y-77622936D02*
X154815000Y-78077064D01*
X156285000Y-77622936D02*
X156285000Y-78077064D01*
%TO.C,R26*%
X147927064Y-96635000D02*
X147472936Y-96635000D01*
X147927064Y-95165000D02*
X147472936Y-95165000D01*
%TO.C,R19*%
X140472936Y-102315000D02*
X140927064Y-102315000D01*
X140472936Y-103785000D02*
X140927064Y-103785000D01*
%TO.C,R6*%
X167977060Y-88164997D02*
X167522932Y-88164997D01*
X167977060Y-89634997D02*
X167522932Y-89634997D01*
%TO.C,J2*%
X171984996Y-96959999D02*
X171985001Y-97760000D01*
X171985001Y-97760000D02*
X172135000Y-97760001D01*
X176065000Y-98580002D02*
X174655000Y-98579999D01*
X176065003Y-89419999D02*
X174654998Y-89420001D01*
%TO.C,R13*%
X167977061Y-90214998D02*
X167522933Y-90214998D01*
X167977061Y-91684998D02*
X167522933Y-91684998D01*
%TO.C,R12*%
X167977061Y-92364998D02*
X167522933Y-92364998D01*
X167977061Y-93834998D02*
X167522933Y-93834998D01*
%TO.C,R20*%
X145715000Y-79127064D02*
X145715000Y-78672936D01*
X147185000Y-79127064D02*
X147185000Y-78672936D01*
%TO.C,R24*%
X147877064Y-91015000D02*
X147422936Y-91015000D01*
X147877064Y-92485000D02*
X147422936Y-92485000D01*
%TO.C,R14*%
X140472936Y-98165000D02*
X140927064Y-98165000D01*
X140472936Y-99635000D02*
X140927064Y-99635000D01*
%TD*%
M02*
